<?xml version="1.0" encoding="UTF-8"?>
<svg version="1.1" xmlns="http://www.w3.org/2000/svg" width="512" height="512">
<path d="M0 0 C1.43158558 1.2540034 2.84708861 2.52649789 4.25 3.8125 C6.57441126 5.82295345 8.91164653 7.81828937 11.25 9.8125 C11.23952637 9.22758789 11.22905273 8.64267578 11.21826172 8.04003906 C11.17659736 5.38090337 11.15064099 2.72183647 11.125 0.0625 C11.10824219 -0.85789063 11.09148437 -1.77828125 11.07421875 -2.7265625 C11.06777344 -3.61601563 11.06132812 -4.50546875 11.0546875 -5.421875 C11.04421387 -6.23881836 11.03374023 -7.05576172 11.02294922 -7.89746094 C11.25 -10.1875 11.25 -10.1875 13.25 -14.1875 C22.16 -14.1875 31.07 -14.1875 40.25 -14.1875 C41.56361698 -11.56026604 41.46253909 -9.46139439 41.56640625 -6.5234375 C41.62924805 -4.84121094 41.62924805 -4.84121094 41.69335938 -3.125 C41.73267578 -1.949375 41.77199219 -0.77375 41.8125 0.4375 C41.85568359 1.62085938 41.89886719 2.80421875 41.94335938 4.0234375 C42.04967426 6.95300328 42.15170642 9.88265588 42.25 12.8125 C42.88164062 12.12285156 43.51328125 11.43320313 44.1640625 10.72265625 C58.93676962 -4.79507212 78.45912007 -15.74588128 100.25390625 -16.390625 C124.87197229 -16.73941037 145.54867564 -10.53798899 164.07421875 6.53125 C176.18072864 19.22461046 176.18072864 19.22461046 176.25 24.8125 C174.7734375 26.8125 174.7734375 26.8125 172.625 28.8125 C171.51511719 29.84697266 171.51511719 29.84697266 170.3828125 30.90234375 C169.67898438 31.53269531 168.97515625 32.16304687 168.25 32.8125 C167.3425 33.658125 166.435 34.50375 165.5 35.375 C163.25 36.8125 163.25 36.8125 161.34765625 36.72265625 C158.3171317 35.40773592 157.26063371 33.41291781 155.4375 30.6875 C146.99880335 18.73139414 135.72439019 10.29441096 121.25 6.8125 C120.54875 6.63203125 119.8475 6.4515625 119.125 6.265625 C100.26467628 3.29307398 83.83438175 6.73166943 68.25 17.8125 C56.21432765 26.65871918 47.78171625 41.10396596 45.25 55.8125 C43.5187832 74.74201439 47.20540407 91.99613793 59.4375 107.0625 C71.65896346 119.96596477 87.9440254 127.42769032 105.75 128.1875 C121.09561009 127.53267805 135.6930929 121.85811925 147.25 111.8125 C149.40884255 109.40682733 151.45034038 106.98121241 153.3984375 104.40234375 C155.25 102.8125 155.25 102.8125 157.58203125 102.75 C161.12825321 104.16225823 163.73711438 106.37918549 166.5625 108.875 C167.11228516 109.34744141 167.66207031 109.81988281 168.22851562 110.30664062 C169.5762696 111.466881 170.91415117 112.63857224 172.25 113.8125 C168.82622419 125.08590816 155.09478536 134.4069849 145.12841797 139.86328125 C124.8398463 150.11568139 101.37485121 152.29781603 79.62890625 145.42578125 C66.57391379 140.84230932 48.68060671 131.67371343 42.25 118.8125 C42.21241577 120.07694946 42.21241577 120.07694946 42.17407227 121.36694336 C42.07911845 124.48491674 41.97987552 127.60271503 41.87768555 130.72045898 C41.83428777 132.07164147 41.7926163 133.42288053 41.75268555 134.77416992 C41.69510048 136.71286701 41.63085702 138.65136276 41.56640625 140.58984375 C41.51141968 142.34155884 41.51141968 142.34155884 41.45532227 144.12866211 C41.25 146.8125 41.25 146.8125 40.25 147.8125 C38.26242972 147.91233058 36.2713248 147.94330753 34.28125 147.9453125 C33.07082031 147.94660156 31.86039063 147.94789063 30.61328125 147.94921875 C29.33839844 147.94535156 28.06351563 147.94148437 26.75 147.9375 C24.83767578 147.94330078 24.83767578 147.94330078 22.88671875 147.94921875 C21.07107422 147.94728516 21.07107422 147.94728516 19.21875 147.9453125 C18.09919922 147.94418457 16.97964844 147.94305664 15.82617188 147.94189453 C13.25 147.8125 13.25 147.8125 12.25 146.8125 C12.09213692 144.96075294 11.99892644 143.1034089 11.93359375 141.24609375 C11.87075195 139.5590332 11.87075195 139.5590332 11.80664062 137.83789062 C11.76732422 136.65388672 11.72800781 135.46988281 11.6875 134.25 C11.64431641 133.06212891 11.60113281 131.87425781 11.55664062 130.65039062 C11.45016454 127.70455216 11.34815159 124.7586257 11.25 121.8125 C10.61610352 122.49803955 9.98220703 123.1835791 9.32910156 123.88989258 C-4.4059688 138.57032162 -23.9846295 148.17912827 -44.17578125 149.1640625 C-68.35822178 149.7804409 -89.70171843 142.9658593 -107.55078125 126.0078125 C-108.27652344 125.28335938 -109.00226563 124.55890625 -109.75 123.8125 C-110.36230469 123.21179688 -110.97460938 122.61109375 -111.60546875 121.9921875 C-126.36181789 106.39165363 -133.36179174 85.04642104 -132.99609375 63.8359375 C-131.88665655 41.34913565 -122.94943767 20.57777747 -106.42578125 5.08203125 C-76.51483225 -20.28769338 -31.91261758 -25.25808393 0 0 Z M-95.65625 23.203125 C-108.79457082 39.57700243 -113.25669071 55.91242713 -111.75 76.8125 C-108.87578432 93.3998411 -99.08709306 107.93753189 -85.5 117.625 C-71.41934493 127.17648773 -55.45142091 130.57627235 -38.75 127.8125 C-21.41230301 123.94943653 -7.54121634 114.21729734 2.5 99.62109375 C11.91405413 84.51237741 14.13943506 68.27082628 10.40625 51.07421875 C6.4755873 35.30460231 -3.6648362 22.08915422 -17.2109375 13.2734375 C-42.22531395 -1.11944987 -75.46985651 1.3596395 -95.65625 23.203125 Z " fill="#0A0A0A" transform="translate(232.75,131.1875)"/>
<path d="M0 0 C0.74886475 0.00523682 1.49772949 0.01047363 2.26928711 0.01586914 C3.07817383 0.0190918 3.88706055 0.02231445 4.72045898 0.02563477 C5.5705957 0.03401367 6.42073242 0.04239258 7.29663086 0.05102539 C8.15063477 0.05553711 9.00463867 0.06004883 9.88452148 0.06469727 C12.00108749 0.07652166 14.11761771 0.0944577 16.23413086 0.11352539 C19.15357288 5.69631803 21.48315503 11.22925029 23.51147461 17.18774414 C23.80470108 18.0334346 24.09792755 18.87912506 24.40003967 19.7504425 C25.32905777 22.43222237 26.25078955 25.1164281 27.17163086 27.80102539 C28.38605827 31.32681346 29.60375747 34.85145576 30.82397461 38.37524414 C31.11573578 39.21868378 31.40749695 40.06212341 31.70809937 40.93112183 C34.06847359 47.71874802 36.5822615 54.43369392 39.23413086 61.11352539 C41.21774799 55.9693972 43.19617895 50.82329453 45.17163086 45.67602539 C45.61256577 44.5279541 45.61256577 44.5279541 46.06240845 43.35668945 C50.37698144 32.11165955 54.56941474 20.83581544 58.51708984 9.45556641 C58.85039307 8.50738037 59.18369629 7.55919434 59.52709961 6.58227539 C59.81093506 5.76178711 60.09477051 4.94129883 60.38720703 4.09594727 C61.23413086 2.11352539 61.23413086 2.11352539 63.23413086 0.11352539 C65.20532227 -0.11352539 65.20532227 -0.11352539 67.58569336 -0.08178711 C68.35220215 -0.07679199 69.11871094 -0.07179688 69.90844727 -0.06665039 C70.88217285 -0.04844238 71.85589844 -0.03023438 72.85913086 -0.01147461 C74.53148489 0.01150713 76.20384905 0.03375901 77.8762207 0.05541992 C79.32885742 0.07478841 80.78149414 0.0941569 82.23413086 0.11352539 C85.9241702 18.20672273 89.38315566 36.33821025 92.73828125 54.49584961 C93.42096075 58.18916126 94.10955443 61.88134629 94.79937458 65.57332993 C95.33684251 68.45524956 95.87030309 71.33790029 96.40263939 74.22077179 C96.6551468 75.58454688 96.90910828 76.94805365 97.16460609 78.31127167 C97.5179375 80.19867106 97.86506268 82.0872291 98.21191406 83.97583008 C98.41001175 85.04403992 98.60810944 86.11224976 98.81221008 87.21282959 C99.23413086 90.11352539 99.23413086 90.11352539 99.23413086 95.11352539 C92.63413086 95.11352539 86.03413086 95.11352539 79.23413086 95.11352539 C77.94834653 91.2561724 76.94572961 88.13489742 76.28857422 84.24145508 C76.13178696 83.32740906 75.97499969 82.41336304 75.8134613 81.47161865 C75.65193069 80.50266663 75.49040009 79.5337146 75.32397461 78.53540039 C75.15160782 77.52761536 74.97924103 76.51983032 74.801651 75.48150635 C74.25385308 72.27625256 73.71221865 69.07000249 73.17163086 65.86352539 C72.62693218 62.6428654 72.08085124 59.42246501 71.53089905 56.20269775 C71.18934967 54.20222438 70.85091042 52.20121708 70.51585388 50.199646 C70.28540123 48.84748993 70.28540123 48.84748993 70.05029297 47.46801758 C69.84949379 46.27604767 69.84949379 46.27604767 69.64463806 45.05999756 C69.30549832 43.04541444 69.30549832 43.04541444 68.23413086 41.11352539 C67.83621338 42.25716553 67.4382959 43.40080566 67.02832031 44.57910156 C65.5301143 48.88322733 64.02911903 53.18637626 62.52734375 57.48925781 C61.88174351 59.34023565 61.23686748 61.19146626 60.59277344 63.04296875 C50.07484914 93.27280711 50.07484914 93.27280711 48.23413086 95.11352539 C46.89145673 95.19984413 45.54438764 95.22059012 44.19897461 95.21118164 C43.39008789 95.20795898 42.58120117 95.20473633 41.74780273 95.20141602 C40.89766602 95.19303711 40.0475293 95.1846582 39.17163086 95.17602539 C38.31762695 95.17151367 37.46362305 95.16700195 36.58374023 95.16235352 C34.46717422 95.15052912 32.35064401 95.13259308 30.23413086 95.11352539 C25.27537146 82.0473576 20.40712999 68.94968302 15.67163086 55.80102539 C15.23028809 54.58576172 14.78894531 53.37049805 14.33422852 52.1184082 C13.92865723 50.98628906 13.52308594 49.85416992 13.10522461 48.68774414 C12.74356201 47.68316162 12.38189941 46.6785791 12.00927734 45.64355469 C11.23413086 43.11352539 11.23413086 43.11352539 11.23413086 40.11352539 C10.57413086 40.11352539 9.91413086 40.11352539 9.23413086 40.11352539 C9.15739136 41.12284622 9.15739136 41.12284622 9.07910156 42.15255737 C8.53821407 48.70825346 7.64448694 55.09828355 6.42163086 61.55883789 C6.24784912 62.49533173 6.07406738 63.43182556 5.89501953 64.396698 C5.53101405 66.35159296 5.16453778 68.3060294 4.7956543 70.26000977 C4.22920984 73.26462819 3.6725704 76.27095227 3.11694336 79.27758789 C2.76074715 81.18394535 2.40399688 83.09019938 2.04663086 84.99633789 C1.87993896 85.89724152 1.71324707 86.79814514 1.54150391 87.72634888 C0.34944336 93.99821289 0.34944336 93.99821289 -0.76586914 95.11352539 C-2.18157037 95.2000415 -3.60146414 95.22057443 -5.01977539 95.21118164 C-5.8737793 95.20795898 -6.7277832 95.20473633 -7.60766602 95.20141602 C-8.50549805 95.19303711 -9.40333008 95.1846582 -10.32836914 95.17602539 C-11.23006836 95.17151367 -12.13176758 95.16700195 -13.06079102 95.16235352 C-15.29588228 95.15052764 -17.53084351 95.13404759 -19.76586914 95.11352539 C-21.09002822 91.14104814 -20.20759833 87.96332103 -19.44238281 83.95776367 C-19.2896843 83.12654999 -19.13698578 82.2953363 -18.97966003 81.43893433 C-18.47182397 78.68579808 -17.95308529 75.93484294 -17.43383789 73.18383789 C-17.07796715 71.27205713 -16.72261215 69.36018029 -16.36775208 67.44821167 C-15.62166109 63.43747047 -14.87036698 59.42774963 -14.11523438 55.41870117 C-13.14822477 50.28332258 -12.19244718 45.14593351 -11.24036694 40.00776863 C-10.50737518 36.05734916 -9.76924183 32.10790433 -9.02947426 28.15874863 C-8.67524684 26.26520585 -8.32242207 24.37140011 -7.97102928 22.47732925 C-7.47828709 19.82659251 -6.97883936 17.17720591 -6.47753906 14.52807617 C-6.33354675 13.74660217 -6.18955444 12.96512817 -6.04119873 12.15997314 C-3.76279068 0.24190483 -3.76279068 0.24190483 0 0 Z " fill="#0B0B0B" transform="translate(140.765869140625,318.886474609375)"/>
<path d="M0 0 C16.33241631 8.05341523 27.35890761 20.46120753 33.47265625 37.54296875 C35.88247082 46.5598246 34.00360384 54.96447758 29.5625 63 C25.97431985 68.84740468 19.93860017 71.87463328 13.5625 74 C-1.7153172 75.2392204 -12.2418044 71.44796523 -24.4375 62 C-25.27410156 61.37351563 -26.11070312 60.74703125 -26.97265625 60.1015625 C-35.80704364 52.5692322 -42.52106914 40.49915832 -43.640625 28.89453125 C-43.82882904 20.53513512 -41.90204223 12.49837455 -36.4375 6 C-33.88767669 3.81293506 -31.2559696 1.82760138 -28.4375 0 C-27.8703125 -0.37769531 -27.303125 -0.75539063 -26.71875 -1.14453125 C-18.96308825 -4.05290441 -7.57734239 -2.95725452 0 0 Z " fill="#FC720C" transform="translate(244.4375,21)"/>
<path d="M0 0 C2.68439857 -0.0013576 5.36879439 -0.00310394 8.05319214 -0.00531006 C14.54554851 -0.0097235 21.03789322 -0.0088112 27.53025002 -0.00589742 C32.81285601 -0.00362604 38.09545877 -0.00333833 43.37806511 -0.00442123 C44.13394234 -0.00457447 44.88981958 -0.0047277 45.66860218 -0.00488558 C47.20481214 -0.00520535 48.74102209 -0.00552956 50.27723204 -0.00585817 C64.63373927 -0.00869994 78.99024008 -0.00544635 93.34674626 -0.0000578 C105.62976764 0.00440996 117.91277957 0.003632 130.19580078 -0.00097656 C144.50742766 -0.00634384 158.81904894 -0.00842632 173.13067669 -0.0053643 C174.6604865 -0.0050458 176.19029631 -0.00473142 177.72010612 -0.00442123 C178.47253456 -0.00426696 179.224963 -0.00411268 180.0001923 -0.00395373 C185.26881715 -0.0030951 190.53743841 -0.00453728 195.8060627 -0.00690079 C202.23757447 -0.00972294 208.66907406 -0.00890999 215.10058445 -0.00362004 C218.37362916 -0.0010155 221.64664976 -0.00047244 224.9196949 -0.0032692 C238.31075393 -0.01365045 251.62635307 0.09788979 264.98217773 1.12939453 C265.07983398 10.40673828 265.07983398 10.40673828 264.98217773 13.12939453 C263.31682045 14.79475181 261.32573575 14.25483928 259.0361557 14.25523567 C257.41954033 14.25914729 257.41954033 14.25914729 255.77026606 14.26313794 C254.57155799 14.26090721 253.37284993 14.25867649 252.13781738 14.25637817 C250.87585084 14.25793816 249.61388431 14.25949816 248.31367636 14.26110542 C244.79477109 14.26530312 241.27589273 14.26320608 237.75698733 14.2601192 C233.9682641 14.2578671 230.17954566 14.26134376 226.39082336 14.26409912 C218.96236276 14.26855786 211.53391223 14.26757989 204.10545123 14.26468648 C198.07096627 14.26243285 192.03648415 14.26211975 186.0019989 14.2632103 C185.14483649 14.26336353 184.28767408 14.26351676 183.40453705 14.26367464 C181.66351132 14.26399435 179.92248558 14.26431856 178.18145984 14.26464723 C161.83591524 14.26750233 145.49037624 14.26421454 129.14483255 14.25884686 C115.10379507 14.2543788 101.06276585 14.25515472 87.02172852 14.25976562 C70.73674397 14.26511087 54.45176434 14.26722763 38.16677904 14.26415336 C36.43197155 14.26383479 34.69716406 14.26352042 32.96235657 14.2632103 C32.10868219 14.26305602 31.25500782 14.26290175 30.37546453 14.2627428 C24.34460272 14.26187749 18.31374402 14.26334081 12.28288269 14.26568985 C4.93848463 14.26848749 -2.40590274 14.26775035 -9.75029957 14.26240911 C-13.50122995 14.25977161 -17.25214247 14.25876784 -21.00307274 14.26205826 C-25.05988485 14.26556332 -29.11665141 14.26139303 -33.17346191 14.25637817 C-34.97152401 14.25972426 -34.97152401 14.25972426 -36.80591059 14.26313794 C-37.88365417 14.26053019 -38.96139775 14.25792244 -40.07180023 14.25523567 C-41.47842053 14.25499214 -41.47842053 14.25499214 -42.91345739 14.2547437 C-45.01782227 14.12939453 -45.01782227 14.12939453 -46.01782227 13.12939453 C-46.11633397 11.2982357 -46.14754856 9.4631952 -46.14282227 7.62939453 C-46.14540039 6.62908203 -46.14797852 5.62876953 -46.15063477 4.59814453 C-46.01782227 2.12939453 -46.01782227 2.12939453 -45.01782227 1.12939453 C-42.55230561 0.88018491 -40.11700245 0.70322836 -37.64393616 0.57498169 C-36.84776951 0.53285431 -36.05160286 0.49072693 -35.23130995 0.44732296 C-23.49512738 -0.10681641 -11.7461417 -0.01004543 0 0 Z " fill="#EC6C17" transform="translate(145.017822265625,287.87060546875)"/>
<path d="M0 0 C1.27423828 -0.00193359 1.27423828 -0.00193359 2.57421875 -0.00390625 C3.91419922 0.00189453 3.91419922 0.00189453 5.28125 0.0078125 C6.17457031 0.00394531 7.06789063 0.00007813 7.98828125 -0.00390625 C8.83777344 -0.00261719 9.68726563 -0.00132812 10.5625 0 C11.34689453 0.00112793 12.13128906 0.00225586 12.93945312 0.00341797 C14.78125 0.1328125 14.78125 0.1328125 15.78125 1.1328125 C15.89458215 3.18144011 15.93811002 5.23395265 15.95483398 7.28564453 C15.96832382 8.60436554 15.98181366 9.92308655 15.99571228 11.2817688 C16.00077223 11.99158024 16.00583218 12.70139168 16.01104546 13.43271255 C16.02743308 15.65272641 16.05067414 17.87256935 16.07594299 20.09249878 C16.14674957 26.40630574 16.20661683 32.720186 16.25805664 39.03417969 C16.28998005 42.89337354 16.33129945 46.75237705 16.37825203 50.61141586 C16.39420522 52.07928895 16.40655742 53.54720596 16.41515923 55.01514053 C16.42741341 57.07815921 16.45160713 59.14073733 16.47827148 61.20361328 C16.48857895 62.3753006 16.49888641 63.54698792 16.50950623 64.75418091 C16.80801451 68.46557977 17.51568235 71.63208157 18.78125 75.1328125 C23.3294035 77.68421569 28.67278015 77.73595921 33.78125 77.1328125 C37.84787662 75.58010052 39.35644602 74.77001848 41.78125 71.1328125 C42.71546069 66.90253958 42.9276998 62.80778444 42.98657227 58.48486328 C43.00651749 57.18396759 43.02646271 55.8830719 43.04701233 54.54275513 C43.06399159 53.1378796 43.08087057 51.73300285 43.09765625 50.328125 C43.11824997 48.87937866 43.13924704 47.430638 43.16062927 45.98190308 C43.21560047 42.18441392 43.26511886 38.3868728 43.31347656 34.58929443 C43.36387478 30.70792055 43.41946484 26.82662134 43.47460938 22.9453125 C43.58188537 15.34120754 43.68291675 7.73703933 43.78125 0.1328125 C50.38125 0.1328125 56.98125 0.1328125 63.78125 0.1328125 C65.1277771 2.8258667 64.91582647 4.9212692 64.92651367 7.93676758 C64.93289352 9.1559639 64.93927338 10.37516022 64.94584656 11.63130188 C64.94737688 12.97164877 64.94848996 14.31199619 64.94921875 15.65234375 C64.95243434 17.03081802 64.95579864 18.40929194 64.95930481 19.7877655 C64.96530363 22.68721301 64.96714437 25.58663071 64.96655273 28.48608398 C64.96645204 32.16620005 64.98000336 35.8461191 64.99732494 39.52618885 C65.00856632 42.38074075 65.01046813 45.23524721 65.00994301 48.08981895 C65.01166955 50.09519768 65.02244857 52.1005622 65.03349304 54.10591125 C65.00248087 66.74481622 64.92295487 78.40259298 56.02734375 88.03125 C47.39277579 96.29950296 38.70735858 97.74542934 27.11083984 97.59912109 C16.34101251 97.20517693 9.75319253 94.04883065 1.91796875 86.5703125 C-4.27659151 79.50375747 -5.34203683 71.37371004 -5.34814453 62.2253418 C-5.34989685 61.56282913 -5.35164917 60.90031647 -5.35345459 60.21772766 C-5.35782447 58.0474682 -5.35495408 55.87729141 -5.3515625 53.70703125 C-5.35223654 52.19342534 -5.3532074 50.67981953 -5.35446167 49.16621399 C-5.3559317 46.00492312 -5.35380496 42.84366061 -5.34912109 39.68237305 C-5.34339973 35.62234865 -5.34672233 31.56239001 -5.35269356 27.50236797 C-5.35629715 24.38238524 -5.35516195 21.26241826 -5.35256577 18.14243507 C-5.3518972 16.64444788 -5.35272249 15.14645928 -5.35504532 13.64847374 C-5.35757116 11.56338036 -5.35373341 9.47839577 -5.34814453 7.39331055 C-5.34734894 6.20561569 -5.34655334 5.01792084 -5.34573364 3.79423523 C-5.14274712 -0.46011545 -3.8451437 0.00552917 0 0 Z " fill="#0E0E0E" transform="translate(258.21875,318.8671875)"/>
<path d="M0 0 C0.83265381 0.00523682 1.66530762 0.01047363 2.52319336 0.01586914 C3.42231445 0.0190918 4.32143555 0.02231445 5.24780273 0.02563477 C6.66609375 0.03820312 6.66609375 0.03820312 8.11303711 0.05102539 C9.06243164 0.05553711 10.01182617 0.06004883 10.98999023 0.06469727 C13.34356776 0.07652429 15.69702188 0.09300514 18.05053711 0.11352539 C18.09701213 9.73685825 18.13248308 19.36015208 18.15416145 28.98357296 C18.16456942 33.45279359 18.17867368 37.92193705 18.20141602 42.39111328 C18.22325141 46.70940973 18.23512817 51.02763226 18.2402916 55.34597969 C18.24396823 56.98808517 18.25114749 58.63018691 18.26199722 60.27226067 C18.40198787 82.35064113 18.40198787 82.35064113 12.05053711 90.11352539 C5.57277128 96.53775597 -1.06257051 97.99391715 -9.94946289 98.11352539 C-19.9680295 97.30726221 -29.14161489 92.52921697 -35.94946289 85.11352539 C-36.27946289 84.12352539 -36.60946289 83.13352539 -36.94946289 82.11352539 C-32.32946289 78.15352539 -27.70946289 74.19352539 -22.94946289 70.11352539 C-18.94946289 72.11352539 -18.94946289 72.11352539 -16.69946289 74.17602539 C-13.02241211 76.7666748 -10.39950336 76.81182773 -5.94946289 77.11352539 C-3.48105956 73.41092039 -3.68189973 71.51018808 -3.64648438 67.08764648 C-3.63382538 66.02138283 -3.63382538 66.02138283 -3.62091064 64.93357849 C-3.59512558 62.58469986 -3.58299278 60.23594679 -3.57055664 57.88696289 C-3.55438577 56.256958 -3.53720621 54.62696283 -3.51905823 52.99697876 C-3.47335761 48.70662923 -3.43855526 44.41626685 -3.40686035 40.12579346 C-3.35498977 33.25071357 -3.29000402 26.375776 -3.2186451 19.50087357 C-3.19574148 17.09388754 -3.17951784 14.68691982 -3.16392517 12.27987671 C-3.15052435 10.81345414 -3.13691006 9.3470335 -3.12304688 7.88061523 C-3.10877907 5.95226334 -3.10877907 5.95226334 -3.09422302 3.98495483 C-2.90184495 0.16898659 -2.90184495 0.16898659 0 0 Z " fill="#0A0A0A" transform="translate(370.949462890625,318.886474609375)"/>
<path d="M0 0 C2.68439857 -0.0013576 5.36879439 -0.00310394 8.05319214 -0.00531006 C14.54554851 -0.0097235 21.03789322 -0.0088112 27.53025002 -0.00589742 C32.81285601 -0.00362604 38.09545877 -0.00333833 43.37806511 -0.00442123 C44.13394234 -0.00457447 44.88981958 -0.0047277 45.66860218 -0.00488558 C47.20481214 -0.00520535 48.74102209 -0.00552956 50.27723204 -0.00585817 C64.63373927 -0.00869994 78.99024008 -0.00544635 93.34674626 -0.0000578 C105.62976764 0.00440996 117.91277957 0.003632 130.19580078 -0.00097656 C144.50742766 -0.00634384 158.81904894 -0.00842632 173.13067669 -0.0053643 C174.6604865 -0.0050458 176.19029631 -0.00473142 177.72010612 -0.00442123 C178.47253456 -0.00426696 179.224963 -0.00411268 180.0001923 -0.00395373 C185.26881715 -0.0030951 190.53743841 -0.00453728 195.8060627 -0.00690079 C202.23757447 -0.00972294 208.66907406 -0.00890999 215.10058445 -0.00362004 C218.37362916 -0.0010155 221.64664976 -0.00047244 224.9196949 -0.0032692 C238.31075393 -0.01365045 251.62635307 0.09788979 264.98217773 1.12939453 C265.07983398 10.40673828 265.07983398 10.40673828 264.98217773 13.12939453 C263.31682045 14.79475181 261.32573575 14.25483928 259.0361557 14.25523567 C257.41954033 14.25914729 257.41954033 14.25914729 255.77026606 14.26313794 C254.57155799 14.26090721 253.37284993 14.25867649 252.13781738 14.25637817 C250.87585084 14.25793816 249.61388431 14.25949816 248.31367636 14.26110542 C244.79477109 14.26530312 241.27589273 14.26320608 237.75698733 14.2601192 C233.9682641 14.2578671 230.17954566 14.26134376 226.39082336 14.26409912 C218.96236276 14.26855786 211.53391223 14.26757989 204.10545123 14.26468648 C198.07096627 14.26243285 192.03648415 14.26211975 186.0019989 14.2632103 C185.14483649 14.26336353 184.28767408 14.26351676 183.40453705 14.26367464 C181.66351132 14.26399435 179.92248558 14.26431856 178.18145984 14.26464723 C161.83591524 14.26750233 145.49037624 14.26421454 129.14483255 14.25884686 C115.10379507 14.2543788 101.06276585 14.25515472 87.02172852 14.25976562 C70.73674397 14.26511087 54.45176434 14.26722763 38.16677904 14.26415336 C36.43197155 14.26383479 34.69716406 14.26352042 32.96235657 14.2632103 C32.10868219 14.26305602 31.25500782 14.26290175 30.37546453 14.2627428 C24.34460272 14.26187749 18.31374402 14.26334081 12.28288269 14.26568985 C4.93848463 14.26848749 -2.40590274 14.26775035 -9.75029957 14.26240911 C-13.50122995 14.25977161 -17.25214247 14.25876784 -21.00307274 14.26205826 C-25.05988485 14.26556332 -29.11665141 14.26139303 -33.17346191 14.25637817 C-34.97152401 14.25972426 -34.97152401 14.25972426 -36.80591059 14.26313794 C-37.88365417 14.26053019 -38.96139775 14.25792244 -40.07180023 14.25523567 C-41.47842053 14.25499214 -41.47842053 14.25499214 -42.91345739 14.2547437 C-45.01782227 14.12939453 -45.01782227 14.12939453 -46.01782227 13.12939453 C-46.11633397 11.2982357 -46.14754856 9.4631952 -46.14282227 7.62939453 C-46.14540039 6.62908203 -46.14797852 5.62876953 -46.15063477 4.59814453 C-46.01782227 2.12939453 -46.01782227 2.12939453 -45.01782227 1.12939453 C-42.55230561 0.88018491 -40.11700245 0.70322836 -37.64393616 0.57498169 C-36.84776951 0.53285431 -36.05160286 0.49072693 -35.23130995 0.44732296 C-23.49512738 -0.10681641 -11.7461417 -0.01004543 0 0 Z M-44.01782227 3.12939453 C-44.01782227 6.42939453 -44.01782227 9.72939453 -44.01782227 13.12939453 C57.29217773 13.12939453 158.60217773 13.12939453 262.98217773 13.12939453 C262.98217773 9.82939453 262.98217773 6.52939453 262.98217773 3.12939453 C229.579664 3.1065853 196.17715242 3.08888659 162.77463263 3.0783292 C158.83177004 3.07707848 154.88890748 3.07578416 150.94604492 3.07446289 C149.76860819 3.07406942 149.76860819 3.07406942 148.56738485 3.07366801 C135.85501157 3.0693159 123.14264281 3.06143086 110.43027221 3.05224174 C97.38764039 3.04289247 84.34501094 3.03733622 71.30237591 3.03530604 C63.2534369 3.03393346 55.20451067 3.02959718 47.15557559 3.02147806 C40.98518244 3.01557067 34.81479905 3.01493881 28.64440346 3.01628685 C26.11198282 3.01601127 23.5795617 3.01401594 21.04714394 3.01018906 C17.59414534 3.00522607 14.14120173 3.00640595 10.6882019 3.00914001 C9.68235955 3.00622717 8.6765172 3.00331433 7.64019477 3.00031322 C2.95040137 3.01037444 -1.39140828 3.28298693 -6.01782227 4.12939453 C-7.83868931 3.89760985 -9.65915986 3.66092945 -11.47485352 3.39160156 C-17.45233029 2.77526035 -23.51286741 3.02952222 -29.51782227 3.06689453 C-30.92667484 3.0719192 -32.33552915 3.0764804 -33.74438477 3.08056641 C-37.16890865 3.09229423 -40.59334274 3.10870762 -44.01782227 3.12939453 Z " fill="#F2A569" transform="translate(145.017822265625,287.87060546875)"/>
<path d="M0 0 C2.26171875 0.15234375 2.26171875 0.15234375 5 1 C7.01953125 3.50390625 7.01953125 3.50390625 8.8125 6.5625 C9.41707031 7.57441406 10.02164062 8.58632813 10.64453125 9.62890625 C11.09183594 10.41136719 11.53914063 11.19382812 12 12 C12.33 8.37 12.66 4.74 13 1 C17 0 17 0 19 1 C19 9.58 19 18.16 19 27 C14 27 14 27 12.015625 25.1015625 C11.43296875 24.28429687 10.8503125 23.46703125 10.25 22.625 C9.65703125 21.81289063 9.0640625 21.00078125 8.453125 20.1640625 C7 18 7 18 6 16 C5.93941406 16.62648438 5.87882812 17.25296875 5.81640625 17.8984375 C5.73261719 18.71570313 5.64882813 19.53296875 5.5625 20.375 C5.48128906 21.18710937 5.40007812 21.99921875 5.31640625 22.8359375 C5 25 5 25 4 27 C2.35 27 0.7 27 -1 27 C-2.73907051 23.52185898 -2.18463639 19.58151473 -2.1875 15.75 C-2.19974609 14.90308594 -2.21199219 14.05617188 -2.22460938 13.18359375 C-2.23581454 8.38031449 -1.86512695 4.51169049 0 0 Z " fill="#3F3E3F" transform="translate(389,466)"/>
<path d="M0 0 C3.38494384 1.74375895 3.88396882 4.58583302 5.0625 8.0625 C5.0625 9.3825 5.0625 10.7025 5.0625 12.0625 C5.7225 12.0625 6.3825 12.0625 7.0625 12.0625 C7.18625 11.175625 7.31 10.28875 7.4375 9.375 C8.02378226 6.26770404 8.49395162 3.80745966 10.0625 1.0625 C12.6875 0.25 12.6875 0.25 15.0625 0.0625 C19.47155061 6.67607591 19.31588428 15.33427954 19.0625 23.0625 C17.4125 23.0625 15.7625 23.0625 14.0625 23.0625 C13.4025 20.4225 12.7425 17.7825 12.0625 15.0625 C10.7425 17.7025 9.4225 20.3425 8.0625 23.0625 C5.75 22.9375 5.75 22.9375 3.0625 22.0625 C1.25 19 1.25 19 0.0625 16.0625 C-0.5975 18.3725 -1.2575 20.6825 -1.9375 23.0625 C-3.5875 23.0625 -5.2375 23.0625 -6.9375 23.0625 C-5.28370113 0.17044197 -5.28370113 0.17044197 0 0 Z " fill="#2C2B2C" transform="translate(168.9375,428.9375)"/>
<path d="M0 0 C3.35731719 2.88885433 5.33169083 4.94043885 6.00390625 9.421875 C6.28797173 14.88326296 5.3405871 18.05056505 1.6875 22.3125 C-2.10217833 25.68289477 -4.89737132 25.89681991 -9.83984375 25.71484375 C-13.92404446 25.05027397 -15.68978566 23.44696348 -18.3125 20.3125 C-20.47593771 16.12420777 -21.56154779 12.75144277 -20.75 8.0625 C-18.84508635 4.41831737 -16.87759752 1.48632314 -13.5625 -1 C-8.44956819 -2.56228472 -4.66868121 -2.37838477 0 0 Z M-12.1875 5.8125 C-14.60014001 8.22566107 -14.60014001 8.22566107 -14.9375 11.8125 C-14.60537702 15.41158414 -14.60537702 15.41158414 -12.125 17.8125 C-9.45746067 19.53108593 -9.45746067 19.53108593 -6.6875 19.25 C-4.10855092 18.23199379 -2.91999565 17.56299391 -1.3125 15.3125 C-0.13525628 12.11712419 -0.13895952 10.76166359 -1.375 7.5625 C-3.18164701 5.09694823 -3.18164701 5.09694823 -6.1875 4.25 C-9.39100006 4.08233913 -9.39100006 4.08233913 -12.1875 5.8125 Z " fill="#2E2F30" transform="translate(147.3125,467.6875)"/>
<path d="M0 0 C3.47088709 3.06729557 5.25401453 5.69916375 6.00390625 10.328125 C6.30639433 15.44114929 5.09583167 18.4139659 1.6875 22.375 C-1.97550033 25.51471457 -5.40815933 25.95306136 -10.09375 25.796875 C-13.96020813 25.06170338 -15.6474795 23.235022 -18.3125 20.375 C-21.00528447 15.9118728 -21.22304473 11.44914671 -20.3125 6.375 C-15.81593589 -1.51171813 -8.25705142 -4.050629 0 0 Z M-12 5.9375 C-14.65596717 8.25316896 -14.65596717 8.25316896 -14.75 11.9375 C-14.55699116 15.49057574 -14.55699116 15.49057574 -12.3125 18.375 C-9.14337902 19.27062115 -7.13547146 19.66415213 -4 18.5625 C-2.16152178 17.46812675 -2.16152178 17.46812675 -1.3125 15.375 C-0.90888141 11.32909242 -0.90888141 11.32909242 -1.3125 7.375 C-5.00401412 4.18233914 -7.67503189 3.42298366 -12 5.9375 Z " fill="#333334" transform="translate(368.3125,467.625)"/>
<path d="M0 0 C2.625 0.375 2.625 0.375 6 2 C8.32615895 5.16441443 10.18914137 8.51955541 12 12 C12.33 8.37 12.66 4.74 13 1 C17 0 17 0 19 1 C19 9.58 19 18.16 19 27 C17.35 27 15.7 27 14 27 C12.015625 24.8828125 12.015625 24.8828125 10.25 22.125 C9.65703125 21.22007812 9.0640625 20.31515625 8.453125 19.3828125 C7 17 7 17 6 15 C5.93941406 15.78246094 5.87882813 16.56492187 5.81640625 17.37109375 C5.73261719 18.38300781 5.64882812 19.39492188 5.5625 20.4375 C5.48128906 21.44683594 5.40007812 22.45617187 5.31640625 23.49609375 C5 26 5 26 4 27 C2.33382885 27.04063832 0.66611905 27.042721 -1 27 C-1.1967332 24.1670419 -1.38259641 21.33403677 -1.5625 18.5 C-1.61857422 17.70851563 -1.67464844 16.91703125 -1.73242188 16.1015625 C-2.0517702 10.90682982 -1.87367907 6.13792722 -1 1 C-0.67 0.67 -0.34 0.34 0 0 Z " fill="#313031" transform="translate(200,466)"/>
<path d="M0 0 C2.08304538 -0.05418326 4.16649768 -0.09287551 6.25 -0.125 C7.99023438 -0.15980469 7.99023438 -0.15980469 9.765625 -0.1953125 C12.89074605 -0.00659746 14.47297155 0.21790057 17 2 C20.0583686 5.82984897 21.35060939 9.8115834 21 14.6875 C20.28782237 18.73713752 19.17468132 21.24303991 16 24 C10.90107768 26.05918017 6.40714197 26.27967976 1 26 C0 25 0 25 -0.11352539 22.59155273 C-0.10828857 21.54942627 -0.10305176 20.5072998 -0.09765625 19.43359375 C-0.09443359 18.30888672 -0.09121094 17.18417969 -0.08789062 16.02539062 C-0.07951172 14.84138672 -0.07113281 13.65738281 -0.0625 12.4375 C-0.05798828 11.24962891 -0.05347656 10.06175781 -0.04882812 8.83789062 C-0.03699675 5.89187774 -0.02051287 2.94596319 0 0 Z M7 6 C6.67 10.29 6.34 14.58 6 19 C10.6312462 19.42143292 10.6312462 19.42143292 12.8125 17.9375 C14.69021039 14.87386726 14.43729494 12.49835955 14 9 C12.30835778 6.95970404 12.30835778 6.95970404 10 6 C9.01 6 8.02 6 7 6 Z " fill="#262627" transform="translate(234,467)"/>
<path d="M0 0 C2.36010742 0.21777344 2.36010742 0.21777344 5 1 C6.30200195 2.96191406 6.30200195 2.96191406 7.23828125 5.515625 C7.58310547 6.43730469 7.92792969 7.35898437 8.28320312 8.30859375 C8.62287109 9.27925781 8.96253906 10.24992187 9.3125 11.25 C9.67150391 12.20519531 10.03050781 13.16039062 10.40039062 14.14453125 C12.03312208 18.61666046 13.2164894 22.19318321 13 27 C11.35 27 9.7 27 8 27 C7.731875 26.360625 7.46375 25.72125 7.1875 25.0625 C6.11332248 22.66868314 6.11332248 22.66868314 3 22 C-0.07665027 22.08221709 -0.07665027 22.08221709 -3 23 C-4.43637698 24.95163118 -4.43637698 24.95163118 -5 27 C-6.65 27 -8.3 27 -10 27 C-9.47792462 21.26990441 -8.34400381 16.54313593 -6.125 11.25 C-5.74021484 10.28126953 -5.74021484 10.28126953 -5.34765625 9.29296875 C-3.9322867 5.82922518 -2.41653375 2.86511187 0 0 Z M1 11 C0.67 12.32 0.34 13.64 0 15 C0.99 15 1.98 15 3 15 C2.34 13.68 1.68 12.36 1 11 Z " fill="#292929" transform="translate(277,466)"/>
<path d="M0 0 C0.0875127 3.22899426 0.14056146 6.45768116 0.1875 9.6875 C0.21263672 10.59951172 0.23777344 11.51152344 0.26367188 12.45117188 C0.31844487 17.47202952 0.2970139 20.92233294 -3 25 C-4.56941198 26.56941198 -6.14134994 26.2449847 -8.3125 26.3125 C-11.63716709 26.27550053 -12.70499029 26.2065068 -15.5 24.25 C-17.73157236 20.90264146 -18.12627425 17.89589785 -18.1328125 13.92578125 C-18.13410156 13.17619141 -18.13539063 12.42660156 -18.13671875 11.65429688 C-18.13285156 10.88150391 -18.12898437 10.10871094 -18.125 9.3125 C-18.12886719 8.52810547 -18.13273438 7.74371094 -18.13671875 6.93554688 C-18.12667749 1.12667749 -18.12667749 1.12667749 -17 0 C-15.33382885 -0.04063832 -13.66611905 -0.042721 -12 0 C-11.0672582 4.099361 -10.71174738 8.12043288 -10.4375 12.3125 C-10.35371094 13.56675781 -10.26992187 14.82101562 -10.18359375 16.11328125 C-10.12300781 17.06589844 -10.06242188 18.01851563 -10 19 C-9.34 19 -8.68 19 -8 19 C-6.3501993 15.70039859 -6.61741639 12.00872116 -6.4375 8.375 C-6.39431641 7.57320313 -6.35113281 6.77140625 -6.30664062 5.9453125 C-6.20048543 3.9637489 -6.09973145 1.98189729 -6 0 C-3.50907189 -1.24546405 -2.58919267 -0.7767578 0 0 Z " fill="#333233" transform="translate(184,467)"/>
<path d="M0 0 C99 0 198 0 300 0 C300 3.63 300 7.26 300 11 C299.67 11 299.34 11 299 11 C299 7.7 299 4.4 299 1 C298.26057376 1.07087043 297.52114752 1.14174086 296.75931442 1.21475887 C289.84132391 1.84029671 283.01215479 2.14014982 276.06838989 2.11352539 C274.52190287 2.11374868 274.52190287 2.11374868 272.94417369 2.11397648 C269.52672571 2.11328798 266.10933305 2.10547337 262.69189453 2.09765625 C260.22698497 2.09573503 257.76207501 2.09427219 255.29716492 2.0932312 C250.00825344 2.09008049 244.71935843 2.08394211 239.43045425 2.07516479 C231.77725658 2.06255742 224.12406408 2.05652194 216.47085772 2.05223143 C204.04241664 2.04518073 191.61398213 2.03439056 179.18554688 2.02050781 C178.44326245 2.01968 177.70097802 2.01885219 176.93620013 2.01799929 C171.66579997 2.01209729 166.39539997 2.00606173 161.125 2 C155.09407563 1.99306721 149.06315119 1.98620156 143.03222656 1.97949219 C142.28903577 1.97866406 141.54584498 1.97783593 140.78013326 1.97698271 C128.3880103 1.96329672 115.99588722 1.9535388 103.60375869 1.94658184 C95.96859672 1.94210435 88.33345416 1.93407202 80.69830124 1.92143703 C74.85416476 1.91201528 69.01003163 1.90766694 63.16588783 1.9051857 C60.7689106 1.90331123 58.371934 1.89970542 55.97496223 1.89425278 C52.70652856 1.88705076 49.4381485 1.88599837 46.16970825 1.88647461 C45.21874272 1.88287965 44.26777718 1.87928469 43.2879945 1.87558079 C38.72189454 1.88272105 34.50662518 2.19143733 30 3 C28.08329127 2.77259388 26.1665565 2.54058073 24.2578125 2.25390625 C21.71224963 1.96764053 19.24856255 1.96716586 16.6875 2 C11.07530935 2.06288169 5.57580467 1.60395563 0 1 C0 0.67 0 0.34 0 0 Z " fill="#F28030" transform="translate(109,290)"/>
<path d="M0 0 C5.41543537 1.08308707 5.81188089 1.38516751 8.8125 5.5625 C9.41707031 6.38878906 10.02164063 7.21507812 10.64453125 8.06640625 C11.09183594 8.70449219 11.53914062 9.34257812 12 10 C12.33 7.03 12.66 4.06 13 1 C14.65 0.67 16.3 0.34 18 0 C19.55608229 3.11216459 19.14322832 6.4007658 19.125 9.8125 C19.13080078 10.88081055 19.13080078 10.88081055 19.13671875 11.97070312 C19.12968433 15.77280929 18.914708 19.30487007 18 23 C15.087425 22.91433603 13.43201976 22.42089045 11.33203125 20.375 C9.83908228 18.61608625 8.39563738 16.83686981 7 15 C6.855625 15.763125 6.71125 16.52625 6.5625 17.3125 C6 20 6 20 5 23 C3.35 23 1.7 23 0 23 C0 15.41 0 7.82 0 0 Z " fill="#444444" transform="translate(241,429)"/>
<path d="M0 0 C3.81414443 2.1288248 5.3214967 4.8495949 7.6875 8.5 C8.3475 5.86 9.0075 3.22 9.6875 0.5 C11.3375 0.5 12.9875 0.5 14.6875 0.5 C14.6875 7.76 14.6875 15.02 14.6875 22.5 C8.6875 21.5 8.6875 21.5 6.7890625 19.65234375 C6.30179687 18.92144531 5.81453125 18.19054687 5.3125 17.4375 C4.80976563 16.70402344 4.30703125 15.97054688 3.7890625 15.21484375 C3.42554688 14.64894531 3.06203125 14.08304687 2.6875 13.5 C2.3575 16.47 2.0275 19.44 1.6875 22.5 C0.0375 22.5 -1.6125 22.5 -3.3125 22.5 C-4.51279908 20.09940183 -4.42709743 18.60639351 -4.41015625 15.9296875 C-4.40693359 15.03378906 -4.40371094 14.13789063 -4.40039062 13.21484375 C-4.39201172 12.27769531 -4.38363281 11.34054687 -4.375 10.375 C-4.37048828 9.43011719 -4.36597656 8.48523438 -4.36132812 7.51171875 C-4.34952357 5.17441613 -4.33305759 2.83723939 -4.3125 0.5 C-2.3125 -0.5 -2.3125 -0.5 0 0 Z " fill="#49484A" transform="translate(395.3125,429.5)"/>
<path d="M0 0 C3.27269513 2.10202751 6.2442035 4.488407 8 8 C8.47210258 12.72102578 8.73364092 15.65955345 5.6875 19.4375 C1.74560038 23.19605545 -1.56810725 23.34901243 -6.77734375 23.28125 C-10.1651538 22.85256402 -11.76080595 21.51061151 -14 19 C-16.25424752 15.31123134 -16.26594425 12.09333742 -15.61328125 7.93359375 C-14.59215884 4.71413136 -12.59723258 3.04068274 -10 1 C-6.29397865 -0.23534045 -3.90246386 -0.45528745 0 0 Z M-8.9375 7.0625 C-10.68524469 10.24956385 -9.92651358 12.60278355 -9 16 C-7.33333333 17.66666667 -7.33333333 17.66666667 -5 18 C-1.65022937 17.68097423 -0.40820361 17.40820361 2 15 C2.33015665 11.89652746 2.50531294 9.84218824 0.875 7.125 C-2.41715997 5.14970402 -5.59240814 5.22809478 -8.9375 7.0625 Z " fill="#323232" transform="translate(381,429)"/>
<path d="M0 0 C2.0300204 0.65943706 2.0300204 0.65943706 4.8125 -0.5625 C5.4725 -0.2325 6.1325 0.0975 6.8125 0.4375 C6.8125 7.6975 6.8125 14.9575 6.8125 22.4375 C5.1625 22.4375 3.5125 22.4375 1.8125 22.4375 C0.29143366 19.39536733 0.43820662 16.15702428 0.25 12.8125 C0.20681641 12.10609375 0.16363281 11.3996875 0.11914062 10.671875 C0.01305249 8.92731463 -0.08772889 7.18243303 -0.1875 5.4375 C-1.1775 5.7675 -2.1675 6.0975 -3.1875 6.4375 C-3.1875 11.3875 -3.1875 16.3375 -3.1875 21.4375 C-4.8375 21.7675 -6.4875 22.0975 -8.1875 22.4375 C-10.18366554 20.44133446 -9.59733427 16.62048037 -9.75 13.875 C-9.81477539 12.80862305 -9.81477539 12.80862305 -9.88085938 11.72070312 C-9.98721777 9.95988088 -10.08788846 8.1987168 -10.1875 6.4375 C-11.1775 6.1075 -12.1675 5.7775 -13.1875 5.4375 C-13.1875 3.7875 -13.1875 2.1375 -13.1875 0.4375 C-8.74368311 -0.60810397 -4.47414473 -1.15049436 0 0 Z " fill="#737275" transform="translate(356.1875,429.5625)"/>
<path d="M0 0 C0.88429688 -0.02578125 1.76859375 -0.0515625 2.6796875 -0.078125 C5.125 0.25 5.125 0.25 6.94140625 1.546875 C8.81901588 4.24864991 8.18229953 7.0412262 8.125 10.25 C9.115 11.735 9.115 11.735 10.125 13.25 C9.98476678 16.61559738 9.86013797 18.53648374 7.3984375 20.92578125 C4.65834442 22.52181485 3.01868752 22.56159293 -0.125 22.4375 C-1.01703125 22.41042969 -1.9090625 22.38335937 -2.828125 22.35546875 C-3.50359375 22.32066406 -4.1790625 22.28585937 -4.875 22.25 C-6.04081918 19.91836164 -6.00405609 18.52846518 -6.0078125 15.93359375 C-6.00910156 15.08732422 -6.01039063 14.24105469 -6.01171875 13.36914062 C-6.00785156 12.48419922 -6.00398438 11.59925781 -6 10.6875 C-6.00386719 9.79869141 -6.00773437 8.90988281 -6.01171875 7.99414062 C-6.01042969 7.14916016 -6.00914062 6.30417969 -6.0078125 5.43359375 C-6.00668457 4.65556396 -6.00555664 3.87753418 -6.00439453 3.07592773 C-5.73851963 -0.67591831 -3.20064035 0.05566331 0 0 Z M1.125 5.25 C0.795 5.91 0.465 6.57 0.125 7.25 C0.785 7.25 1.445 7.25 2.125 7.25 C1.795 6.59 1.465 5.93 1.125 5.25 Z M1.125 13.25 C0.795 14.24 0.465 15.23 0.125 16.25 C1.115 16.25 2.105 16.25 3.125 16.25 C3.125 15.26 3.125 14.27 3.125 13.25 C2.465 13.25 1.805 13.25 1.125 13.25 Z " fill="#333233" transform="translate(310.875,429.75)"/>
<path d="M0 0 C0 5.28 0 10.56 0 16 C0.99 16 1.98 16 3 16 C3.06058594 14.92878906 3.12117188 13.85757812 3.18359375 12.75390625 C3.26798537 11.35675609 3.35263406 9.95962143 3.4375 8.5625 C3.49647461 7.50192383 3.49647461 7.50192383 3.55664062 6.41992188 C3.88671875 1.11328125 3.88671875 1.11328125 5 0 C7.5 -0.125 7.5 -0.125 10 0 C11.84014432 1.84014432 11.17355864 4.7198786 11.1875 7.1875 C11.20167969 8.31542969 11.21585937 9.44335938 11.23046875 10.60546875 C10.99165308 14.12294025 10.42644454 16.77884582 9 20 C5.46692795 22.13317558 3.3590958 23.27799687 -0.75 22.4375 C-3.38429527 20.75447802 -4.46862892 19.74425188 -6 17 C-6.36424297 14.07376586 -6.28266839 11.19289959 -6.1875 8.25 C-6.17396484 7.45722656 -6.16042969 6.66445313 -6.14648438 5.84765625 C-6.11125223 3.89814436 -6.05744821 1.94898374 -6 0 C-4 -1 -4 -1 0 0 Z " fill="#484748" transform="translate(292,430)"/>
<path d="M0 0 C3.5 1.75 3.5 1.75 6 4 C6 5.32 6 6.64 6 8 C4.62714844 7.85691406 4.62714844 7.85691406 3.2265625 7.7109375 C2.03804688 7.60007812 0.84953125 7.48921875 -0.375 7.375 C-1.55835938 7.25898438 -2.74171875 7.14296875 -3.9609375 7.0234375 C-5.46527344 7.01183594 -5.46527344 7.01183594 -7 7 C-9.34973818 8.89755144 -9.34973818 8.89755144 -9.125 12.125 C-9.063125 13.548125 -9.063125 13.548125 -9 15 C-4.76341536 16.85378384 -4.76341536 16.85378384 -0.375 16.0625 C0.40875 15.711875 1.1925 15.36125 2 15 C4.3125 15.375 4.3125 15.375 6 16 C5.75 18.375 5.75 18.375 5 21 C0.69103501 23.81145473 -4.03985785 23.788936 -9 23 C-12.12177233 21.31712073 -14.39137035 19.2172593 -16 16 C-16.34717992 10.70550628 -16.52421718 7.25336556 -13 3 C-9.04940784 -0.27334779 -4.98369797 -0.88404779 0 0 Z " fill="#4D4C4D" transform="translate(278,429)"/>
<path d="M0 0 C2.625 1.75 2.625 1.75 3.5 3.9375 C3.54125 4.535625 3.5825 5.13375 3.625 5.75 C-1.125 6.875 -1.125 6.875 -3.375 5.75 C-7.63946708 5.29920374 -7.63946708 5.29920374 -11.25 7.25 C-11.62125 7.745 -11.9925 8.24 -12.375 8.75 C-11.6795656 11.75384054 -11.6795656 11.75384054 -10.375 14.75 C-7.34895466 16.00215669 -5.21926491 15.68920839 -2.125 14.8125 C-0.8875 14.461875 0.35 14.11125 1.625 13.75 C1.955 15.4 2.285 17.05 2.625 18.75 C-1.25404963 22.1363297 -3.97312547 22.20079711 -8.96484375 22.0390625 C-12.11134209 21.66168669 -13.98950513 20.83730801 -16.375 18.75 C-18.90996406 14.53404914 -19.07843016 10.55391327 -18.375 5.75 C-14.02189806 -1.55699253 -7.90478395 -2.92769776 0 0 Z " fill="#363637" transform="translate(149.375,430.25)"/>
<path d="M0 0 C3.12451094 1.33106968 3.30938853 1.99083733 4.6328125 5.0078125 C5.2511571 6.63944438 5.84805619 8.27932859 6.42578125 9.92578125 C6.73708984 10.74626953 7.04839844 11.56675781 7.36914062 12.41210938 C8.79918547 16.28737375 9.61328125 18.90839772 9.61328125 23.11328125 C7.96328125 22.78328125 6.31328125 22.45328125 4.61328125 22.11328125 C4.28328125 21.12328125 3.95328125 20.13328125 3.61328125 19.11328125 C0.64328125 19.11328125 -2.32671875 19.11328125 -5.38671875 19.11328125 C-5.71671875 20.43328125 -6.04671875 21.75328125 -6.38671875 23.11328125 C-8.03671875 23.11328125 -9.68671875 23.11328125 -11.38671875 23.11328125 C-10.82104347 17.73587429 -9.50441317 13.22594733 -7.44921875 8.23828125 C-7.18431641 7.5628125 -6.91941406 6.88734375 -6.64648438 6.19140625 C-4.22241633 0.20040929 -4.22241633 0.20040929 0 0 Z M-1.38671875 10.11328125 C-1.71671875 11.10328125 -2.04671875 12.09328125 -2.38671875 13.11328125 C-1.39671875 13.11328125 -0.40671875 13.11328125 0.61328125 13.11328125 C0.28328125 12.12328125 -0.04671875 11.13328125 -0.38671875 10.11328125 C-0.71671875 10.11328125 -1.04671875 10.11328125 -1.38671875 10.11328125 Z " fill="#333333" transform="translate(333.38671875,428.88671875)"/>
<path d="M0 0 C3.43096949 0.93676387 4.71334905 1.49854602 6.51171875 4.64453125 C7.09373047 6.21267578 7.09373047 6.21267578 7.6875 7.8125 C8.08324219 8.85019531 8.47898437 9.88789063 8.88671875 10.95703125 C9.25410156 11.96121094 9.62148437 12.96539062 10 14 C10.37769531 14.87011719 10.75539063 15.74023438 11.14453125 16.63671875 C12 19 12 19 12 23 C10.35 22.67 8.7 22.34 7 22 C6.67 21.01 6.34 20.02 6 19 C4.54054712 19.08708669 3.08234132 19.19526907 1.625 19.3125 C0.81289062 19.37050781 0.00078125 19.42851562 -0.8359375 19.48828125 C-3.37921338 19.82990528 -3.37921338 19.82990528 -5 23 C-6.32 23 -7.64 23 -9 23 C-8.45339757 17.74316921 -7.20973742 13.57522136 -5.0625 8.6875 C-4.79759766 8.06810547 -4.53269531 7.44871094 -4.25976562 6.81054688 C-3.07695091 4.10738968 -2.10447139 2.10447139 0 0 Z M1 10 C0.67 10.99 0.34 11.98 0 13 C0.99 12.67 1.98 12.34 3 12 C2.34 11.34 1.68 10.68 1 10 Z " fill="#373637" transform="translate(109,429)"/>
<path d="M0 0 C0.33 5.28 0.66 10.56 1 16 C1.99 15.67 2.98 15.34 4 15 C4.33 10.05 4.66 5.1 5 0 C5.99 -0.33 6.98 -0.66 8 -1 C8.99 -0.34 9.98 0.32 11 1 C11.3062852 3.53736271 11.41846993 5.77916926 11.375 8.3125 C11.38273437 9.62863281 11.39046875 10.94476563 11.3984375 12.30078125 C10.95823681 16.38774257 9.92564133 19.07435867 7 22 C5.0390625 22.203125 5.0390625 22.203125 2.625 22.25 C1.83351562 22.27578125 1.04203125 22.3015625 0.2265625 22.328125 C-2.52714035 21.92231616 -3.33271658 21.18894879 -5 19 C-6.25433458 15.23699626 -6.10695422 11.72789091 -6.0625 7.8125 C-6.05798828 7.06291016 -6.05347656 6.31332031 -6.04882812 5.54101562 C-6.03706354 3.69397617 -6.01912865 1.84697787 -6 0 C-4 -1 -4 -1 0 0 Z " fill="#363637" transform="translate(196,430)"/>
<path d="M0 0 C4.62 0 9.24 0 14 0 C13.67 1.98 13.34 3.96 13 6 C10.69 6 8.38 6 6 6 C6.33 6.66 6.66 7.32 7 8 C8.98 8 10.96 8 13 8 C13.625 10.375 13.625 10.375 14 13 C12 15 12 15 8.875 15.125 C7.92625 15.08375 6.9775 15.0425 6 15 C6 18.63 6 22.26 6 26 C4.35 26 2.7 26 1 26 C0 25 0 25 -0.11352539 22.59155273 C-0.10828857 21.54942627 -0.10305176 20.5072998 -0.09765625 19.43359375 C-0.09443359 18.30888672 -0.09121094 17.18417969 -0.08789062 16.02539062 C-0.07951172 14.84138672 -0.07113281 13.65738281 -0.0625 12.4375 C-0.05798828 11.24962891 -0.05347656 10.06175781 -0.04882812 8.83789062 C-0.03699686 5.89190588 -0.01906076 2.94594684 0 0 Z " fill="#423F41" transform="translate(101,467)"/>
<path d="M0 0 C0.77601563 -0.00257813 1.55203125 -0.00515625 2.3515625 -0.0078125 C4.375 0.125 4.375 0.125 6.375 1.125 C6.375 3.105 6.375 5.085 6.375 7.125 C5.055 7.125 3.735 7.125 2.375 7.125 C2.38023682 7.69532959 2.38547363 8.26565918 2.39086914 8.85327148 C2.41158221 11.42300323 2.4246419 13.99271747 2.4375 16.5625 C2.44587891 17.46033203 2.45425781 18.35816406 2.46289062 19.28320312 C2.46611328 20.13720703 2.46933594 20.99121094 2.47265625 21.87109375 C2.47789307 22.66185303 2.48312988 23.4526123 2.48852539 24.26733398 C2.375 26.125 2.375 26.125 1.375 27.125 C-1.125 27.25 -1.125 27.25 -3.625 27.125 C-4.625 26.125 -4.625 26.125 -4.73852539 24.26733398 C-4.73328857 23.47657471 -4.72805176 22.68581543 -4.72265625 21.87109375 C-4.71943359 21.01708984 -4.71621094 20.16308594 -4.71289062 19.28320312 C-4.70451172 18.38537109 -4.69613281 17.48753906 -4.6875 16.5625 C-4.68298828 15.66080078 -4.67847656 14.75910156 -4.67382812 13.83007812 C-4.66200225 11.59498686 -4.6455222 9.36002563 -4.625 7.125 C-5.945 6.795 -7.265 6.465 -8.625 6.125 C-8.625 4.475 -8.625 2.825 -8.625 1.125 C-5.68397771 0.27895249 -3.05733732 -0.01022521 0 0 Z " fill="#6A696B" transform="translate(309.625,465.875)"/>
<path d="M0 0 C1.94210433 7.47941368 3.39363688 14.25847464 3 22 C1.35 22 -0.3 22 -2 22 C-2.66 19.36 -3.32 16.72 -4 14 C-4.99 16.31 -5.98 18.62 -7 21 C-8.15941038 17.52176885 -7.70820884 15.54104422 -7 12 C-7.33 12.66 -7.66 13.32 -8 14 C-8.99 14 -9.98 14 -11 14 C-11 13.01 -11 12.02 -11 11 C-10.34 11 -9.68 11 -9 11 C-8.87625 10.113125 -8.7525 9.22625 -8.625 8.3125 C-8.0512414 5.2715794 -7.34864818 2.77662861 -6 0 C-3.50907189 -1.24546405 -2.58919267 -0.7767578 0 0 Z " fill="#333334" transform="translate(185,430)"/>
<path d="M0 0 C1.98 0 3.96 0 6 0 C6.08103404 2.91722548 6.14051081 5.83219516 6.1875 8.75 C6.21263672 9.575 6.23777344 10.4 6.26367188 11.25 C6.33727613 17.33461839 6.33727613 17.33461839 4.70703125 20.55078125 C3 22 3 22 -0.5 22.4375 C-4 22 -4 22 -5.9375 20.6875 C-7 19 -7 19 -7 16 C-4.69 16 -2.38 16 0 16 C0 10.72 0 5.44 0 0 Z " fill="#2E2D2E" transform="translate(215,430)"/>
<path d="M0 0 C2.125 0.375 2.125 0.375 4 1 C4.19670554 4.77041256 4.38078426 8.54133763 4.5625 12.3125 C4.61857422 13.38435547 4.67464844 14.45621094 4.73242188 15.56054688 C4.78076172 16.58857422 4.82910156 17.61660156 4.87890625 18.67578125 C4.9260376 19.62364502 4.97316895 20.57150879 5.02172852 21.5480957 C5 24 5 24 4 27 C2.33388095 27.042721 0.66617115 27.04063832 -1 27 C-3.53309722 24.46690278 -2.18555171 17.47005092 -2.1875 14.0625 C-2.19974609 12.93908203 -2.21199219 11.81566406 -2.22460938 10.65820312 C-2.22654297 9.58634766 -2.22847656 8.51449219 -2.23046875 7.41015625 C-2.23457764 6.42152588 -2.23868652 5.43289551 -2.24291992 4.41430664 C-2 2 -2 2 0 0 Z " fill="#5F5F5F" transform="translate(330,466)"/>
<path d="M0 0 C8.91 0 17.82 0 27 0 C28.46098845 2.9219769 28.11134901 5.49893475 28.09765625 8.7578125 C28.0962413 9.42086395 28.09482635 10.08391541 28.09336853 10.76705933 C28.08776754 12.88641863 28.075215 15.00567259 28.0625 17.125 C28.05748512 18.56119639 28.05292219 19.99739444 28.04882812 21.43359375 C28.03779782 24.95576345 28.02053259 28.47787145 28 32 C27.34 32 26.68 32 26 32 C26 22.1 26 12.2 26 2 C17.42 2 8.84 2 0 2 C0 9.92 0 17.84 0 26 C-0.99 26 -1.98 26 -3 26 C-2.835 24.783125 -2.67 23.56625 -2.5 22.3125 C-1.90339506 17.1637176 -2.00559958 12.09252607 -2.16015625 6.91796875 C-2 4 -2 4 0 0 Z " fill="#4D4D4F" transform="translate(246,117)"/>
<path d="M0 0 C1.65 0.33 3.3 0.66 5 1 C5 7.93 5 14.86 5 22 C3.35 22.33 1.7 22.66 0 23 C-1.62200515 21.37799485 -1.1299075 19.57976969 -1.1328125 17.34375 C-1.13410156 16.40402344 -1.13539063 15.46429688 -1.13671875 14.49609375 C-1.13285156 13.50738281 -1.12898437 12.51867187 -1.125 11.5 C-1.12886719 10.51128906 -1.13273438 9.52257812 -1.13671875 8.50390625 C-1.13542969 7.56417969 -1.13414062 6.62445313 -1.1328125 5.65625 C-1.13168457 4.78806641 -1.13055664 3.91988281 -1.12939453 3.02539062 C-1 1 -1 1 0 0 Z " fill="#353435" transform="translate(233,429)"/>
<path d="M0 0 C2.475 0.99 2.475 0.99 5 2 C5.08710289 5.10398978 5.14042309 8.20766548 5.1875 11.3125 C5.21263672 12.19357422 5.23777344 13.07464844 5.26367188 13.98242188 C5.27333984 14.82998047 5.28300781 15.67753906 5.29296875 16.55078125 C5.3086792 17.33106689 5.32438965 18.11135254 5.34057617 18.9152832 C4.91847304 21.49903853 3.98510058 22.36292167 2 24 C1.01 23.34 0.02 22.68 -1 22 C-1.35644531 19.86108398 -1.35644531 19.86108398 -1.328125 17.24609375 C-1.32296875 16.30958984 -1.3178125 15.37308594 -1.3125 14.40820312 C-1.291875 13.42787109 -1.27125 12.44753906 -1.25 11.4375 C-1.24484375 10.45330078 -1.2396875 9.46910156 -1.234375 8.45507812 C-1.15386542 1.15386542 -1.15386542 1.15386542 0 0 Z " fill="#343436" transform="translate(124,429)"/>
<path d="M0 0 C6.6 0 13.2 0 20 0 C20.04530273 9.62334546 20.08194595 19.24661932 20.10362434 28.87004757 C20.11403231 33.33926819 20.12813657 37.80841166 20.15087891 42.27758789 C20.1727143 46.59588434 20.18459106 50.91410687 20.18975449 55.2324543 C20.19343112 56.87455978 20.20061038 58.51666152 20.21146011 60.15873528 C20.34656272 81.46620708 20.34656272 81.46620708 15 89 C14.67 87.68 14.34 86.36 14 85 C14.66 85 15.32 85 16 85 C15.979375 84.195625 15.95875 83.39125 15.9375 82.5625 C16 80 16 80 17 79 C18.26110946 70.71797706 18.22143464 62.38597556 18.31640625 54.02734375 C18.33701543 52.49320466 18.35801282 50.95907074 18.37937927 49.42494202 C18.43419118 45.41541775 18.48377816 41.40584577 18.53222656 37.39624023 C18.58274293 33.29341459 18.6382706 29.19065698 18.69335938 25.08789062 C18.80043978 17.05865009 18.90152892 9.02935074 19 1 C12.73 1 6.46 1 0 1 C0 0.67 0 0.34 0 0 Z " fill="#575757" transform="translate(369,319)"/>
<path d="M0 0 C4.29 0 8.58 0 13 0 C13 1.32 13 2.64 13 4 C11.35 4 9.7 4 8 4 C8 10.27 8 16.54 8 23 C7.01 23 6.02 23 5 23 C4.67 17.06 4.34 11.12 4 5 C2.68 4.67 1.36 4.34 0 4 C0 2.68 0 1.36 0 0 Z " fill="#0A090A" transform="translate(302,468)"/>
<path d="M0 0 C3.63 0 7.26 0 11 0 C10.67 1.32 10.34 2.64 10 4 C9.34 4 8.68 4 8 4 C8 9.61 8 15.22 8 21 C6.68 21 5.36 21 4 21 C4 15.06 4 9.12 4 3 C2.68 3 1.36 3 0 3 C0 2.01 0 1.02 0 0 Z " fill="#171718" transform="translate(344,431)"/>
<path d="M0 0 C1.32 0 2.64 0 4 0 C4 7.92 4 15.84 4 24 C2.35 23.67 0.7 23.34 -1 23 C-1.38133299 21.0085944 -1.71325582 19.00720923 -2 17 C-1.67 16.67 -1.34 16.34 -1 16 C-0.76321284 13.30764224 -0.57801975 10.63501844 -0.4375 7.9375 C-0.39431641 7.17888672 -0.35113281 6.42027344 -0.30664062 5.63867188 C-0.20026367 3.75934562 -0.09960066 1.87969756 0 0 Z " fill="#080708" transform="translate(403,468)"/>
<path d="M0 0 C0 0.33 0 0.66 0 1 C-1.65 1 -3.3 1 -5 1 C-5.33 2.32 -5.66 3.64 -6 5 C-7.32 5.33 -8.64 5.66 -10 6 C-10.33 5.34 -10.66 4.68 -11 4 C-21.12431535 6.38905851 -21.12431535 6.38905851 -28.9375 12.625 C-31.73323311 15.84432903 -33.85347481 15.62977454 -38 16 C-40.33588323 16.95584438 -40.33588323 16.95584438 -42 18 C-32.16045607 6.84851688 -14.83053402 -0.61793892 0 0 Z " fill="#414044" transform="translate(173,116)"/>
<path d="M0 0 C1.64826111 2.96687001 2.44271087 5.65626525 3 9 C6.3 9.33 9.6 9.66 13 10 C13 10.66 13 11.32 13 12 C13.66 12.66 14.32 13.32 15 14 C11.5022941 15.74885295 7.81630677 15.55614521 4 15 C1.07929857 13.67887136 0.14270529 12.58223458 -2 10 C-2.61476744 5.54293606 -2.5099972 3.76499581 0 0 Z " fill="#1A191B" transform="translate(352,478)"/>
<path d="M0 0 C0 1.98 0 3.96 0 6 C1.65 6 3.3 6 5 6 C5.66 7.32 6.32 8.64 7 10 C3.7 10 0.4 10 -3 10 C-3.33 11.65 -3.66 13.3 -4 15 C-5.32 15 -6.64 15 -8 15 C-6.01886792 0 -6.01886792 0 0 0 Z " fill="#1D1C1D" transform="translate(108,437)"/>
<path d="M0 0 C0.99 0 1.98 0 3 0 C3 6.6 3 13.2 3 20 C-2 19 -2 19 -3.8125 17.125 C-5 15 -5 15 -5 12 C-3.68 11.67 -2.36 11.34 -1 11 C-0.67 7.37 -0.34 3.74 0 0 Z " fill="#0F0F0F" transform="translate(255,431)"/>
<path d="M0 0 C0.99 0 1.98 0 3 0 C3 7.92 3 15.84 3 24 C1.68 24 0.36 24 -1 24 C-1.66 21.69 -2.32 19.38 -3 17 C-2.34 16.34 -1.68 15.68 -1 15 C-0.69400937 12.43083343 -0.48912913 9.95241616 -0.375 7.375 C-0.33632812 6.66859375 -0.29765625 5.9621875 -0.2578125 5.234375 C-0.16352276 3.49001476 -0.08067109 1.74504309 0 0 Z " fill="#060506" transform="translate(215,468)"/>
<path d="M0 0 C2.08304538 -0.05418326 4.16649768 -0.09287551 6.25 -0.125 C7.99023438 -0.15980469 7.99023438 -0.15980469 9.765625 -0.1953125 C12.82786046 -0.0103949 14.44202751 0.39176977 17 2 C16.67 2.66 16.34 3.32 16 4 C15.195625 3.690625 14.39125 3.38125 13.5625 3.0625 C9.16952762 1.63707688 9.16952762 1.63707688 1 1 C1.33 8.59 1.66 16.18 2 24 C6.62 23.67 11.24 23.34 16 23 C12.76913149 26.23086851 9.13864772 26.06208032 4.75 26.125 C1 26 1 26 0 25 C-0.08737645 23.14630389 -0.10698153 21.28932459 -0.09765625 19.43359375 C-0.09443359 18.30888672 -0.09121094 17.18417969 -0.08789062 16.02539062 C-0.07951172 14.84138672 -0.07113281 13.65738281 -0.0625 12.4375 C-0.05798828 11.24962891 -0.05347656 10.06175781 -0.04882812 8.83789062 C-0.03699675 5.89187774 -0.02051287 2.94596319 0 0 Z " fill="#56555A" transform="translate(234,467)"/>
<path d="M0 0 C0.66 0 1.32 0 2 0 C2.33 0.99 2.66 1.98 3 3 C5.97 3.495 5.97 3.495 9 4 C9 4.99 9 5.98 9 7 C7.02 7.33 5.04 7.66 3 8 C2.67 11.3 2.34 14.6 2 18 C1.01 18 0.02 18 -1 18 C-1.02690844 15.37493198 -1.04679404 12.75013827 -1.0625 10.125 C-1.07087891 9.37863281 -1.07925781 8.63226563 -1.08789062 7.86328125 C-1.11328125 2.2265625 -1.11328125 2.2265625 0 0 Z " fill="#090909" transform="translate(104,473)"/>
<path d="M0 0 C0.99 0 1.98 0 3 0 C3 8.25 3 16.5 3 25 C2.01 25 1.02 25 0 25 C0 16.75 0 8.5 0 0 Z " fill="#050505" transform="translate(330,468)"/>
<path d="M0 0 C0.99 0 1.98 0 3 0 C3 6.6 3 13.2 3 20 C1.68 19.67 0.36 19.34 -1 19 C-2.125 15.25 -2.125 15.25 -1 13 C-0.77049681 10.795636 -0.58924067 8.58607827 -0.4375 6.375 C-0.35371094 5.18648438 -0.26992188 3.99796875 -0.18359375 2.7734375 C-0.12300781 1.85820312 -0.06242187 0.94296875 0 0 Z " fill="#0B0B0B" transform="translate(406,431)"/>
<path d="M0 0 C2.0625 0.4375 2.0625 0.4375 4 1 C3.75 3.375 3.75 3.375 3 6 C-0.02323958 8.01093311 -2.54288032 8.27138579 -6.125 8.25 C-7.42824219 8.25773437 -7.42824219 8.25773437 -8.7578125 8.265625 C-11 8 -11 8 -13 6 C-10.03 6.33 -7.06 6.66 -4 7 C-4 6.01 -4 5.02 -4 4 C-5.65 4 -7.3 4 -9 4 C-9.33 3.34 -9.66 2.68 -10 2 C-9.04287109 1.90912109 -9.04287109 1.90912109 -8.06640625 1.81640625 C-6.82697266 1.69072266 -6.82697266 1.69072266 -5.5625 1.5625 C-4.73878906 1.48128906 -3.91507812 1.40007812 -3.06640625 1.31640625 C-1.01337975 1.21069185 -1.01337975 1.21069185 0 0 Z " fill="#4C4B4C" transform="translate(280,444)"/>
<path d="M0 0 C0.99 0.33 1.98 0.66 3 1 C3.33333333 2.33333333 3.66666667 3.66666667 4 5 C4.99 5.33 5.98 5.66 7 6 C7.33 6.66 7.66 7.32 8 8 C10.52733235 8.65555119 10.52733235 8.65555119 13 9 C13 9.99 13 10.98 13 12 C9.57555954 11.98715032 6.33200189 11.82629354 3 11 C0.23221124 7.41815572 -0.39462334 4.47239787 0 0 Z " fill="#121112" transform="translate(263,439)"/>
<path d="M0 0 C5.625 1.125 5.625 1.125 8 4 C7.67 4.66 7.34 5.32 7 6 C6.566875 5.525625 6.13375 5.05125 5.6875 4.5625 C3.97690387 2.76313043 3.97690387 2.76313043 1 2 C1 8.6 1 15.2 1 22 C1.99 22 2.98 22 4 22 C4 17.71 4 13.42 4 9 C4.99 9.99 5.98 10.98 7 12 C6.85546875 14.69921875 6.85546875 14.69921875 6.1875 17.6875 C5.97480469 18.68136719 5.76210937 19.67523438 5.54296875 20.69921875 C5.36378906 21.45847656 5.18460938 22.21773438 5 23 C3.35 23 1.7 23 0 23 C0 15.41 0 7.82 0 0 Z " fill="#666565" transform="translate(241,429)"/>
<path d="M0 0 C0.66 0 1.32 0 2 0 C1.72285156 1.01835937 1.44570312 2.03671875 1.16015625 3.0859375 C-1.61690086 13.76741635 -2.74221149 23.97954105 -3 35 C-3.33 35 -3.66 35 -4 35 C-4.11668418 30.47938558 -4.18741645 25.95916153 -4.25 21.4375 C-4.28351563 20.16068359 -4.31703125 18.88386719 -4.3515625 17.56835938 C-4.42498716 10.50123591 -4.35913076 5.70634243 0 0 Z " fill="#3A393B" transform="translate(124,171)"/>
<path d="M0 0 C0.99 0 1.98 0 3 0 C3 6.6 3 13.2 3 20 C2.01 20 1.02 20 0 20 C0 13.4 0 6.8 0 0 Z " fill="#060606" transform="translate(359,431)"/>
<path d="M0 0 C1.65 0 3.3 0 5 0 C5 7.26 5 14.52 5 22 C3.68 21.67 2.36 21.34 1 21 C1.99 21 2.98 21 4 21 C4 14.4 4 7.8 4 1 C3.01 1 2.02 1 1 1 C1 5.29 1 9.58 1 14 C0.01 13.67 -0.98 13.34 -2 13 C-1.34 8.71 -0.68 4.42 0 0 Z " fill="#646363" transform="translate(405,430)"/>
<path d="M0 0 C0.99 0 1.98 0 3 0 C3 5.28 3 10.56 3 16 C2.01 16.33 1.02 16.66 0 17 C0 11.39 0 5.78 0 0 Z " fill="#080808" transform="translate(288,431)"/>
<path d="M0 0 C0.33 0 0.66 0 1 0 C1 1.98 1 3.96 1 6 C1.66 6 2.32 6 3 6 C3 10.62 3 15.24 3 20 C2.01 20 1.02 20 0 20 C0 13.4 0 6.8 0 0 Z " fill="#080808" transform="translate(242,431)"/>
<path d="M0 0 C1.15957207 3.47871621 0.77456651 4.34219645 -0.4375 7.6875 C-0.72496094 8.49574219 -1.01242188 9.30398438 -1.30859375 10.13671875 C-1.53675781 10.75160156 -1.76492187 11.36648438 -2 12 C-3.65 12 -5.3 12 -7 12 C-6.67 8.37 -6.34 4.74 -6 1 C-5.67 1 -5.34 1 -5 1 C-4.67 2.98 -4.34 4.96 -4 7 C-3.34 7 -2.68 7 -2 7 C-2 5.02 -2 3.04 -2 1 C-1.34 0.67 -0.68 0.34 0 0 Z " fill="#504F50" transform="translate(169,440)"/>
<path d="M0 0 C0.66 0.33 1.32 0.66 2 1 C1.67 5.29 1.34 9.58 1 14 C0.01 14 -0.98 14 -2 14 C-2 9.71 -2 5.42 -2 1 C-1.34 0.67 -0.68 0.34 0 0 Z " fill="#0D0C0D" transform="translate(395,437)"/>
<path d="M0 0 C0.66 0.33 1.32 0.66 2 1 C1.3503125 1.67095703 1.3503125 1.67095703 0.6875 2.35546875 C-2.91552816 6.1027842 -2.91552816 6.1027842 -4.375 10.9375 C-4.25125 11.618125 -4.1275 12.29875 -4 13 C-3.34 13 -2.68 13 -2 13 C-2.33 13.66 -2.66 14.32 -3 15 C-7.875 11.375 -7.875 11.375 -9 8 C-6.03 5.36 -3.06 2.72 0 0 Z " fill="#525153" transform="translate(343,393)"/>
<path d="M0 0 C0.66 0.33 1.32 0.66 2 1 C2 1.99 2 2.98 2 4 C1.41605469 4.268125 0.83210937 4.53625 0.23046875 4.8125 C-2.02298004 6.01223455 -3.76302256 7.33017142 -5.6875 9 C-6.28949219 9.515625 -6.89148438 10.03125 -7.51171875 10.5625 C-9.11383116 11.95045944 -9.11383116 11.95045944 -10 14 C-10.66 13.67 -11.32 13.34 -12 13 C-8.13635705 8.51282966 -4.25209792 4.12324647 0 0 Z " fill="#323134" transform="translate(129,134)"/>
<path d="M0 0 C1.125 3.75 1.125 3.75 0 6 C-0.08372659 7.52148326 -0.10730027 9.04655778 -0.09765625 10.5703125 C-0.09443359 11.46621094 -0.09121094 12.36210938 -0.08789062 13.28515625 C-0.07951172 14.22230469 -0.07113281 15.15945312 -0.0625 16.125 C-0.05798828 17.06988281 -0.05347656 18.01476562 -0.04882812 18.98828125 C-0.03702357 21.32558387 -0.02055759 23.66276061 0 26 C-3.19385391 22.80614609 -3.08098445 19.16080927 -3.25 14.8125 C-3.21467077 9.56611007 -1.7239584 4.91533378 0 0 Z " fill="#F1883D" transform="translate(204,33)"/>
<path d="M0 0 C1.90608098 3.21182149 2.22266247 5.53882603 2.125 9.25 C2.10695313 10.14203125 2.08890625 11.0340625 2.0703125 11.953125 C2.04710937 12.62859375 2.02390625 13.3040625 2 14 C1.01 14 0.02 14 -1 14 C-1.02694851 12.04174127 -1.04637218 10.08337774 -1.0625 8.125 C-1.07410156 7.03445313 -1.08570313 5.94390625 -1.09765625 4.8203125 C-1 2 -1 2 0 0 Z " fill="#070707" transform="translate(349,436)"/>
<path d="M0 0 C0.33 0 0.66 0 1 0 C0 7.42857143 0 7.42857143 -1 11 C-2.32 11 -3.64 11 -5 11 C-4.46939601 6.48986609 -2.69113883 3.61621781 0 0 Z " fill="#171516" transform="translate(178,441)"/>
<path d="M0 0 C1.2380014 3.57644848 0.74926071 6.33694766 0 10 C0.99 9.67 1.98 9.34 3 9 C2.67 10.32 2.34 11.64 2 13 C0.35 13 -1.3 13 -3 13 C-2.52060632 8.28596212 -2.03165952 4.33420699 0 0 Z " fill="#575557" transform="translate(270,480)"/>
<path d="M0 0 C0.66 0.33 1.32 0.66 2 1 C0.71937515 2.7074998 -0.61767557 4.37373596 -2 6 C-2.66 6 -3.32 6 -4 6 C-4 9.3 -4 12.6 -4 16 C-6.25917968 12.61123047 -6.20896551 10.96417882 -5.625 7.0078125 C-4.62947765 3.80969694 -2.53006615 2.07595171 0 0 Z " fill="#565657" transform="translate(371,430)"/>
<path d="M0 0 C0 3.67914713 -0.82802213 4.39826865 -3.1875 7.125 C-3.77917969 7.82882813 -4.37085938 8.53265625 -4.98046875 9.2578125 C-7.32542438 11.28073361 -8.96066402 11.65354719 -12 12 C-8 8 -4 4 0 0 Z " fill="#303030" transform="translate(230,237)"/>
<path d="M0 0 C0 0.33 0 0.66 0 1 C-1.65 1 -3.3 1 -5 1 C-5.33 2.32 -5.66 3.64 -6 5 C-7.32 5.33 -8.64 5.66 -10 6 C-10.33 4.35 -10.66 2.7 -11 1 C-7.32589215 -0.17571451 -3.83070817 -0.07366746 0 0 Z " fill="#2A2A2D" transform="translate(173,116)"/>
<path d="M0 0 C3.75376152 1.25125384 4.24073289 2.5652404 6 6 C6 6.66 6 7.32 6 8 C6.66 8 7.32 8 8 8 C8.66 9.65 9.32 11.3 10 13 C9.34 13 8.68 13 8 13 C6.55473264 11.26451831 5.1912778 9.46024037 3.875 7.625 C3.15054688 6.62726563 2.42609375 5.62953125 1.6796875 4.6015625 C0 2 0 2 0 0 Z " fill="#E4691E" transform="translate(207,66)"/>
<path d="M0 0 C2.12508244 3.18762365 2.5020163 5.26512223 3 9 C1.35 8.67 -0.3 8.34 -2 8 C-2.33 7.01 -2.66 6.02 -3 5 C-2.34 4.67 -1.68 4.34 -1 4 C-0.34786708 1.97536745 -0.34786708 1.97536745 0 0 Z " fill="#3F3E40" transform="translate(340,443)"/>
<path d="M0 0 C0.33 0 0.66 0 1 0 C1.50146657 7.57771707 0.94998798 12.45783241 -3 19 C-3.33 17.68 -3.66 16.36 -4 15 C-3.34 15 -2.68 15 -2 15 C-2.0309375 13.7934375 -2.0309375 13.7934375 -2.0625 12.5625 C-2 10 -2 10 -1 9 C-0.76807135 7.48530552 -0.58784762 5.96245438 -0.4375 4.4375 C-0.35371094 3.61121094 -0.26992188 2.78492188 -0.18359375 1.93359375 C-0.12300781 1.29550781 -0.06242187 0.65742188 0 0 Z " fill="#474848" transform="translate(387,389)"/>
<path d="M0 0 C0.66 0.33 1.32 0.66 2 1 C2.40729228 3.32156597 2.74438677 5.6568787 3 8 C1.68 8 0.36 8 -1 8 C-1.04241723 5.66705225 -1.04092937 3.33297433 -1 1 C-0.67 0.67 -0.34 0.34 0 0 Z " fill="#080708" transform="translate(129,476)"/>
<path d="M0 0 C1.57043101 0.01330874 3.14079971 0.03717648 4.7109375 0.0703125 C5.51273438 0.07933594 6.31453125 0.08835937 7.140625 0.09765625 C9.12252273 0.12125027 11.10426731 0.15712185 13.0859375 0.1953125 C13.0859375 0.5253125 13.0859375 0.8553125 13.0859375 1.1953125 C7.8059375 1.1953125 2.5259375 1.1953125 -2.9140625 1.1953125 C-3.5740625 2.8453125 -4.2340625 4.4953125 -4.9140625 6.1953125 C-5.5390625 4.3203125 -5.5390625 4.3203125 -5.9140625 2.1953125 C-3.9140625 0.1953125 -3.9140625 0.1953125 0 0 Z " fill="#1E1915" transform="translate(142.9140625,318.8046875)"/>
<path d="M0 0 C2.9555377 2.75170751 5.11563315 5.41970299 7 9 C7 9.66 7 10.32 7 11 C6.34 11 5.68 11 5 11 C5 10.01 5 9.02 5 8 C4.01 8 3.02 8 2 8 C0.23537317 4.91190305 0 3.76687864 0 0 Z " fill="#DF6C21" transform="translate(267,40)"/>
<path d="M0 0 C0.33 0 0.66 0 1 0 C1 4.29 1 8.58 1 13 C0.01 12.67 -0.98 12.34 -2 12 C-1.34 8.04 -0.68 4.08 0 0 Z " fill="#6A696B" transform="translate(405,431)"/>
<path d="M0 0 C0.66 0.33 1.32 0.66 2 1 C-0.64 3.97 -3.28 6.94 -6 10 C-6.99 9.67 -7.98 9.34 -9 9 C-6.03 6.03 -3.06 3.06 0 0 Z " fill="#3F3E40" transform="translate(286,133)"/>
<path d="M0 0 C1.32 0 2.64 0 4 0 C4 0.66 4 1.32 4 2 C5.32 2.33 6.64 2.66 8 3 C8 3.66 8 4.32 8 5 C1.25 3.25 1.25 3.25 -1 1 C-0.67 0.67 -0.34 0.34 0 0 Z " fill="#0D0C0D" transform="translate(275,431)"/>
<path d="M0 0 C4.71403788 0.47939368 8.66579301 0.96834048 13 3 C13 3.33 13 3.66 13 4 C11.39482903 3.91266424 9.79078338 3.80447776 8.1875 3.6875 C6.84751953 3.60048828 6.84751953 3.60048828 5.48046875 3.51171875 C2.69396 2.93686419 1.75864246 2.1793144 0 0 Z " fill="#4A494A" transform="translate(200,117)"/>
<path d="M0 0 C0.33 0 0.66 0 1 0 C1 2.64 1 5.28 1 8 C0.34 8 -0.32 8 -1 8 C-1.33 8.66 -1.66 9.32 -2 10 C-1.85950482 8.52031676 -1.71245174 7.04125484 -1.5625 5.5625 C-1.48128906 4.73878906 -1.40007812 3.91507812 -1.31640625 3.06640625 C-1 1 -1 1 0 0 Z " fill="#060506" transform="translate(166,439)"/>
<path d="M0 0 C1.60080151 4.00200378 0.29279692 7.04556236 -1 11 C-1.99 11 -2.98 11 -4 11 C-4 10.01 -4 9.02 -4 8 C-3.34 8 -2.68 8 -2 8 C-1.7834375 6.576875 -1.7834375 6.576875 -1.5625 5.125 C-1 2 -1 2 0 0 Z " fill="#595959" transform="translate(178,433)"/>
<path d="M0 0 C-0.33 0.99 -0.66 1.98 -1 3 C-4.63 2.67 -8.26 2.34 -12 2 C-12 1.67 -12 1.34 -12 1 C-10.56274129 0.83126522 -9.12518162 0.66509263 -7.6875 0.5 C-6.88699219 0.4071875 -6.08648437 0.314375 -5.26171875 0.21875 C-3 0 -3 0 0 0 Z " fill="#121113" transform="translate(340,445)"/>
<path d="M0 0 C0 1.98 0 3.96 0 6 C-0.99 6 -1.98 6 -3 6 C-3.33 4.68 -3.66 3.36 -4 2 C-1 0 -1 0 0 0 Z " fill="#050405" transform="translate(408,444)"/>
<path d="M0 0 C0.99 0.33 1.98 0.66 3 1 C2 3 2 3 -0.375 4.125 C-3 5 -3 5 -6 5 C-1.60546875 0.99609375 -1.60546875 0.99609375 0 0 Z " fill="#F88A3C" transform="translate(214,22)"/>
</svg>
