<?xml version="1.0" encoding="UTF-8"?>
<svg version="1.1" xmlns="http://www.w3.org/2000/svg" width="1024" height="1024">
<path d="M0 0 C1.95123345 1.95123345 2.6893673 3.21957205 3.8125 5.68359375 C4.33457031 6.8128125 4.33457031 6.8128125 4.8671875 7.96484375 C5.24101563 8.78082031 5.61484375 9.59679687 6 10.4375 C9.15747487 17.22710282 12.46493377 23.89932543 16 30.5 C19.73550622 37.48680679 23.20127475 44.55827759 26.54244059 51.74100381 C29.05353457 57.09885558 31.72048745 62.34498608 34.5115509 67.56144714 C40.63884186 79.11689816 46.47398702 90.81493376 52.31518555 102.5168457 C53.51693817 104.92063372 54.71885032 107.32434137 55.92095947 109.72795105 C58.48942704 114.8643666 61.05645073 120.00150151 63.62244225 125.13915443 C67.33985665 132.58219056 71.05954052 140.02409074 74.77973888 147.4657357 C80.82844245 159.5653219 86.87536677 171.66579636 92.92114258 183.7668457 C98.76981499 195.4733688 104.61932599 207.17947224 110.4699707 218.88500977 C111.0111938 219.96785005 111.0111938 219.96785005 111.5633507 221.07256589 C113.37483315 224.69683662 115.1863324 228.32109895 116.99784029 231.94535697 C120.52882805 239.00976501 124.05970531 246.07422829 127.5905304 253.13871765 C127.93224171 253.822415 128.27395302 254.50611235 128.62601922 255.2105278 C137.23006242 272.4256267 145.83245045 289.64155264 154.43440247 306.85769653 C154.95984197 307.90891359 155.48528148 308.96013064 156.0266434 310.04320276 C157.02520349 312.04251352 158.02251276 314.04244963 159.0184015 316.04309237 C161.0911266 320.20396952 163.17477999 324.35619145 165.32596779 328.4771328 C165.66636174 329.13539344 166.00675569 329.79365408 166.35746461 330.47186202 C167.22600878 332.14640885 168.10531015 333.81536493 168.98571491 335.48370647 C170 338 170 338 169 341 C168.13246094 340.78085937 167.26492188 340.56171875 166.37109375 340.3359375 C130.12393913 331.39001615 92.78626141 325.6003156 55.6875 321.625 C54.94779968 321.54546082 54.20809937 321.46592163 53.44598389 321.38397217 C36.25264051 319.56124866 19.15671045 318.76087758 1.875 318.75 C0.89845459 318.74932526 -0.07809082 318.74865051 -1.08422852 318.74795532 C-58.07749133 318.80975385 -114.22616236 329.19418044 -170 340 C-170 336.82858539 -169.56441981 335.82442627 -168.09375 333.11328125 C-167.67867188 332.33791016 -167.26359375 331.56253906 -166.8359375 330.76367188 C-166.17464844 329.5503418 -166.17464844 329.5503418 -165.5 328.3125 C-162.44374766 322.656511 -159.46274246 316.97095449 -156.59765625 311.21557617 C-155.88200426 309.78120149 -155.16630266 308.34685156 -154.45056152 306.91252136 C-154.05934616 306.12805319 -153.6681308 305.34358501 -153.26506042 304.53534508 C-150.90321941 299.80190953 -148.53609913 295.07111271 -146.16992188 290.33984375 C-145.08432915 288.16871189 -143.99875851 285.99756899 -142.91320801 283.82641602 C-106.086792 210.173584 -106.086792 210.173584 -104.43475914 206.86952686 C-103.37865992 204.75732277 -102.32256964 202.64511421 -101.26648903 200.53290081 C-99.08508572 196.17000693 -96.90362235 191.80714322 -94.72164917 187.4445343 C-90.86544285 179.73420033 -87.01398483 172.02151559 -83.16629028 164.30693054 C-80.63297819 159.22789349 -78.09753896 154.14991871 -75.56192207 149.07203197 C-73.65398345 145.25094527 -71.74680086 141.42948505 -69.84130859 137.60717773 C-54.38152356 106.59812234 -54.38152356 106.59812234 -47.95254517 94.59098816 C-45.05056681 89.16817679 -42.4504719 83.64178414 -40 78 C-39.67 77.34 -39.34 76.68 -39 76 C-38.48566406 74.93652344 -37.97132813 73.87304688 -37.44140625 72.77734375 C-36.81533329 71.49728375 -36.18902201 70.21734028 -35.5625 68.9375 C-35.09360352 67.96200195 -35.09360352 67.96200195 -34.61523438 66.96679688 C-32.22628753 62.11314376 -32.22628753 62.11314376 -30 61 C-29.30160718 59.01085649 -28.64028956 57.00859994 -28 55 C-27.09667857 53.06056458 -26.15483624 51.13870803 -25.1796875 49.234375 C-24.64472656 48.17992187 -24.10976563 47.12546875 -23.55859375 46.0390625 C-23.00300781 44.95367187 -22.44742188 43.86828125 -21.875 42.75 C-20.76458337 40.57998673 -19.6576233 38.40820004 -18.5546875 36.234375 C-18.06468262 35.27756836 -17.57467773 34.32076172 -17.06982422 33.33496094 C-15.86115437 31.12502342 -15.86115437 31.12502342 -16 29 C-15.34 29 -14.68 29 -14 29 C-13.62875 27.7934375 -13.62875 27.7934375 -13.25 26.5625 C-10.9015448 19.86940267 -8.03456829 13.81230579 -4.171875 7.86328125 C-2.58264475 5.33640515 -1.27970122 2.69410784 0 0 Z M-1 123 C-1.89282663 124.36715281 -2.73380992 125.76816131 -3.5546875 127.1796875 C-4.08175293 128.08033936 -4.60881836 128.98099121 -5.15185547 129.90893555 C-6.00481201 131.37713745 -6.00481201 131.37713745 -6.875 132.875 C-8.06144682 134.9003569 -9.24896306 136.92508768 -10.4375 138.94921875 C-11.035625 139.96806152 -11.63375 140.9869043 -12.25 142.03662109 C-14.75400493 146.27680131 -17.30467959 150.48726497 -19.875 154.6875 C-20.28991699 155.36731934 -20.70483398 156.04713867 -21.13232422 156.74755859 C-23.4893286 160.59202007 -25.8956282 164.40065514 -28.33203125 168.1953125 C-32.31326358 174.43620689 -36.06423276 180.80487378 -39.8125 187.1875 C-44.18820509 194.61481468 -48.57355228 202.0296716 -53.1875 209.3125 C-57.23280968 215.70723111 -61.13625279 222.18150295 -65 228.6875 C-65.56485107 229.63343018 -66.12970215 230.57936035 -66.71166992 231.55395508 C-67.23994385 232.44751709 -67.76821777 233.3410791 -68.3125 234.26171875 C-68.78300781 235.05537842 -69.25351562 235.84903809 -69.73828125 236.66674805 C-71.06304584 239.00795762 -71.06304584 239.00795762 -72.05566406 241.65405273 C-73.23660617 244.58778405 -75.0108517 246.53825264 -77 249 C-78.83589822 251.82500617 -80.54458515 254.71984564 -82.25 257.625 C-82.70890625 258.388125 -83.1678125 259.15125 -83.640625 259.9375 C-84.2903125 261.03964844 -84.2903125 261.03964844 -84.953125 262.1640625 C-85.34661133 262.82873535 -85.74009766 263.4934082 -86.14550781 264.17822266 C-87.21232573 266.11730845 -87.21232573 266.11730845 -87 269 C-83.72226496 268.24849977 -83.72226496 268.24849977 -82 265 C-80.44629874 263.01325206 -78.88292576 261.03593052 -77.3125 259.0625 C-70.70497647 250.70435993 -64.33812794 242.16976991 -57.96582031 233.63183594 C-55.33489538 230.10955938 -52.69689743 226.59261776 -50.05786133 223.07641602 C-48.78311758 221.37724072 -47.50949164 219.67722618 -46.23706055 217.97631836 C-43.53211128 214.36188728 -40.82061711 210.75466575 -38.05859375 207.18359375 C-37.62981934 206.62542969 -37.20104492 206.06726563 -36.75927734 205.4921875 C-35.65859356 204.06233145 -34.5503542 202.63829996 -33.44140625 201.21484375 C-31.72727206 199.02135884 -31.72727206 199.02135884 -32 196 C-31.01 195.67 -30.02 195.34 -29 195 C-27.49098579 193.20355451 -26.0641754 191.33726449 -24.6875 189.4375 C-23.87890625 188.33203125 -23.0703125 187.2265625 -22.26171875 186.12109375 C-21.51535156 185.09113281 -20.76898438 184.06117188 -20 183 C-19.00349483 181.66405268 -18.00404532 180.33028973 -17 179 C-16.53722656 178.38253906 -16.07445312 177.76507813 -15.59765625 177.12890625 C-14.33622437 175.44802513 -13.07277483 173.76865819 -11.80859375 172.08984375 C-7.80736323 166.77025062 -3.8338741 161.44162776 0 156 C8.19144871 166.17848329 16.26035773 176.47201282 23.875 187.08984375 C30.61702795 196.32295188 37.66125484 205.35177198 44.73046875 214.3359375 C45.88208386 215.84543916 46.94682712 217.42024068 48 219 C54.29430571 227.56639655 60.78866033 235.98784463 67.23876953 244.43701172 C67.89603027 245.2982666 68.55329102 246.15952148 69.23046875 247.046875 C70.18445557 248.29307617 70.18445557 248.29307617 71.15771484 249.56445312 C72.37256444 251.17051456 73.57130493 252.78890701 74.75244141 254.41992188 C75.28401855 255.15275391 75.8155957 255.88558594 76.36328125 256.640625 C76.82645752 257.29063477 77.28963379 257.94064453 77.7668457 258.61035156 C78.17378662 259.06893555 78.58072754 259.52751953 79 260 C79.66 260 80.32 260 81 260 C81.09152344 260.56203125 81.18304687 261.1240625 81.27734375 261.703125 C82.18700014 264.59435721 83.6611097 266.39919018 85.5625 268.75 C86.20316406 269.54921875 86.84382812 270.3484375 87.50390625 271.171875 C87.99761719 271.77515625 88.49132812 272.3784375 89 273 C89 269.08251758 87.57733492 267.04470129 85.6875 263.625 C85.07261719 262.50351562 84.45773437 261.38203125 83.82421875 260.2265625 C82.92123047 258.62941406 82.92123047 258.62941406 82 257 C81.484375 256.05511719 80.96875 255.11023438 80.4375 254.13671875 C79.14964341 251.7359555 79.14964341 251.7359555 76.3125 251.1875 C75.549375 251.125625 74.78625 251.06375 74 251 C74.38841064 250.28811523 74.77682129 249.57623047 75.17700195 248.84277344 C76.31230798 246.00149915 76.31230798 246.00149915 74.95776367 243.33691406 C74.07181519 241.94037598 74.07181519 241.94037598 73.16796875 240.515625 C72.53439453 239.49855469 71.90082031 238.48148437 71.24804688 237.43359375 C70.56806641 236.38300781 69.88808594 235.33242188 69.1875 234.25 C68.51912109 233.18394531 67.85074219 232.11789062 67.16210938 231.01953125 C64.39862951 226.26888754 64.39862951 226.26888754 61 222 C60 220 59 218 58 216 C57.34 215.01 56.68 214.02 56 213 C55.505 212.113125 55.01 211.22625 54.5 210.3125 C54.005 209.549375 53.51 208.78625 53 208 C52.34 208 51.68 208 51 208 C50.67 208.33 50.34 208.66 50 209 C50.99 207.515 50.99 207.515 52 206 C50.52207812 203.62421744 49.04294187 201.24921209 47.5625 198.875 C47.1102002 198.14941895 46.65790039 197.42383789 46.19189453 196.67626953 C43.6571882 192.61985469 41.09352409 188.5856387 38.48339844 184.57739258 C35.09083816 179.36674879 31.86267914 174.10646639 28.8125 168.6875 C24.36372574 160.54310209 24.36372574 160.54310209 19 153 C18.34 153 17.68 153 17 153 C16.896875 152.2575 16.79375 151.515 16.6875 150.75 C15.9346864 147.7387456 14.85625378 146.44829635 13 144 C12.05800904 142.30549902 11.14301718 140.59581401 10.25 138.875 C7.25286781 133.29387415 3.92339149 127.98259912 0 123 C-0.33 123 -0.66 123 -1 123 Z M76 248 C77 250 77 250 77 250 Z M-89 270 C-89.33 271.32 -89.66 272.64 -90 274 C-89.01 273.34 -88.02 272.68 -87 272 C-87 271.34 -87 270.68 -87 270 C-87.66 270 -88.32 270 -89 270 Z M90 273 C91 275 91 275 91 275 Z M-91 274 C-91 277 -91 277 -91 277 Z " fill="#000000" transform="translate(512,179)"/>
<path d="M0 0 C3.63 0 7.26 0 11 0 C11 0.66 11 1.32 11 2 C11.66 1.34 12.32 0.68 13 0 C15.73388672 -0.25878906 15.73388672 -0.25878906 19.1796875 -0.265625 C21.03787109 -0.26949219 21.03787109 -0.26949219 22.93359375 -0.2734375 C24.88458984 -0.26183594 24.88458984 -0.26183594 26.875 -0.25 C28.16792969 -0.25773438 29.46085938 -0.26546875 30.79296875 -0.2734375 C32.65501953 -0.26957031 32.65501953 -0.26957031 34.5546875 -0.265625 C36.26374268 -0.26224121 36.26374268 -0.26224121 38.00732422 -0.25878906 C40.89552373 -0.0090345 42.55823831 0.49657351 45 2 C45 1.34 45 0.68 45 0 C46.91635217 -0.05423638 48.83314925 -0.09289963 50.75 -0.125 C51.81734375 -0.14820313 52.8846875 -0.17140625 53.984375 -0.1953125 C57 0 57 0 58.8137207 0.96557617 C61.57643185 2.27273498 63.95362844 2.47030459 66.99609375 2.74609375 C68.18501221 2.85977295 69.37393066 2.97345215 70.59887695 3.09057617 C71.86562256 3.20506104 73.13236816 3.3195459 74.4375 3.4375 C84.44033055 4.39592578 94.37699676 5.49749845 104.30053711 7.08569336 C109.26711205 7.85594959 113.972046 8.12039571 119 8 C119 8.33 119 8.66 119 9 C120.65 9.33 122.3 9.66 124 10 C124.33 10.99 124.66 11.98 125 13 C124.01 13.33 123.02 13.66 122 14 C121.34 14.66 120.68 15.32 120 16 C118.86456391 16.86793987 117.7169728 17.72004687 116.5625 18.5625 C111.23056832 22.53288484 106.1234348 26.76651723 101 31 C82.87675882 45.9576677 82.87675882 45.9576677 74 53 C68.0994891 57.69798882 62.228191 62.43077065 56.375 67.1875 C55.70170654 67.73398193 55.02841309 68.28046387 54.3347168 68.84350586 C50.7191951 71.78029224 47.11315743 74.72785679 43.51953125 77.69140625 C42.7939502 78.28735596 42.06836914 78.88330566 41.32080078 79.49731445 C39.92431975 80.64464076 38.53064572 81.79539427 37.14013672 82.94995117 C36.50994629 83.46662354 35.87975586 83.9832959 35.23046875 84.515625 C34.40131958 85.20060059 34.40131958 85.20060059 33.55541992 85.89941406 C32 87 32 87 29 88 C26.73167223 86.49593361 24.71230601 84.97844382 22.625 83.25 C22.00431641 82.74919922 21.38363281 82.24839844 20.74414062 81.73242188 C16.07456667 77.94461519 11.49116696 74.0542238 6.91894531 70.14990234 C2.80070267 66.64423886 -1.38602705 63.23360474 -5.625 59.875 C-6.21732422 59.40126953 -6.80964844 58.92753906 -7.41992188 58.43945312 C-9.94068519 56.45738952 -11.93200386 55.02266538 -15 54 C-15.88171875 52.89205078 -15.88171875 52.89205078 -16.78125 51.76171875 C-19.33782381 48.57950451 -22.26757428 46.25389977 -25.5 43.8125 C-31.29838988 39.35790034 -36.92255313 34.75123875 -42.4765625 29.99609375 C-46.32542003 26.91371101 -46.32542003 26.91371101 -51 26 C-51 24.68 -51 23.36 -51 22 C-51.55429687 21.75507812 -52.10859375 21.51015625 -52.6796875 21.2578125 C-56.4209011 19.22974721 -59.4994397 16.39660963 -62.7578125 13.6796875 C-64.79985101 11.80014876 -64.79985101 11.80014876 -67 12 C-67 10.68 -67 9.36 -67 8 C-66.01 8 -65.02 8 -64 8 C-64 8.66 -64 9.32 -64 10 C-58.21447867 9.19190471 -52.43049394 8.37380972 -46.64770508 7.54638672 C-44.6799971 7.26628247 -42.71189653 6.98892196 -40.7434082 6.71435547 C-37.91510202 6.31937649 -35.08835139 5.91457356 -32.26171875 5.5078125 C-30.93970711 5.32643234 -30.93970711 5.32643234 -29.59098816 5.14138794 C-28.3600518 4.96142776 -28.3600518 4.96142776 -27.10424805 4.77783203 C-26.38254929 4.6756839 -25.66085052 4.57353577 -24.9172821 4.46829224 C-22.68993049 4.03988009 -22.68993049 4.03988009 -20 2 C-19.34 1.67 -18.68 1.34 -18 1 C-17.26265625 1.31453125 -16.5253125 1.6290625 -15.765625 1.953125 C-12.47690818 3.19800651 -10.23422635 3.07610986 -6.75 2.75 C-5.69296875 2.66234375 -4.6359375 2.5746875 -3.546875 2.484375 C-2.70640625 2.32453125 -1.8659375 2.1646875 -1 2 C-0.67 1.34 -0.34 0.68 0 0 Z " fill="#010101" transform="translate(483,520)"/>
<path d="M0 0 C3.1623716 1.37196165 4.9936218 2.8565122 7.1875 5.5 C9.8037346 8.59292141 12.45939157 11.6300114 15.1875 14.625 C19.55403217 19.4582994 23.79466698 24.39275833 28.0144043 29.35400391 C29.95608758 31.6338581 31.8814606 33.8814606 34 36 C34.84414841 37.13788924 35.67581042 38.28507213 36.5 39.4375 C39.84903017 43.95176451 43.61353041 48.01301799 47.421875 52.140625 C50.67336362 55.74682147 53.70818674 59.50448928 56.7578125 63.28125 C60.95341192 68.36859703 65.33579939 73.33579939 70 78 C70.763125 79.051875 71.52625 80.10375 72.3125 81.1875 C75.44544362 85.41083086 78.85509355 89.35558017 82.3125 93.3125 C93.11948161 105.69276571 103.46953809 118.43597141 112.9375 131.875 C113.64777344 132.88304687 114.35804688 133.89109375 115.08984375 134.9296875 C119.22892953 141.58269655 121.12336908 147.23627149 120 155 C117.80152894 161.21718161 113.55213255 164.59372288 107.9375 167.6875 C99.98395105 170.86891958 90.42816306 170.16781741 82 170 C82.33 169.01 82.66 168.02 83 167 C83.22325814 164.94106379 83.40705759 162.87766347 83.5625 160.8125 C83.68818359 159.18248047 83.68818359 159.18248047 83.81640625 157.51953125 C83.87699219 156.68808594 83.93757812 155.85664063 84 155 C83.34 154.67 82.68 154.34 82 154 C81.30976901 152.68856112 80.6298071 151.37091345 79.99609375 150.03125 C77.82564917 145.60524537 75.37463997 141.31892448 73 137 C72.34 137 71.68 137 71 137 C70 134 70 134 70 131 C69.04134491 128.66924071 69.04134491 128.66924071 66 127 C66 126.01 66 125.02 66 124 C65.67 123.34 65.34 122.68 65 122 C64.01 122.495 64.01 122.495 63 123 C62.88785156 122.46375 62.77570312 121.9275 62.66015625 121.375 C60.40761348 112.42371893 55.65934264 104.87301922 51 97 C50.34 97 49.68 97 49 97 C48.80664062 96.39671875 48.61328125 95.7934375 48.4140625 95.171875 C48.15367187 94.37265625 47.89328125 93.5734375 47.625 92.75 C47.36976563 91.96109375 47.11453125 91.1721875 46.8515625 90.359375 C46.03509883 88.09724629 45.26080065 86.04993486 44 84 C43.01 83.67 42.02 83.34 41 83 C39.77282211 80.54564422 39.05623709 78.3287707 38.59375 75.625 C37.96285649 72.83578658 37.00727679 70.74647565 35.625 68.25 C35.20476563 67.47140625 34.78453125 66.6928125 34.3515625 65.890625 C33.06095675 63.69373246 33.06095675 63.69373246 30 63 C29.97035156 62.10152344 29.94070313 61.20304687 29.91015625 60.27734375 C29.03278568 54.13574973 25.43409513 48.88311412 22.4375 43.5625 C21.51420898 41.8928418 21.51420898 41.8928418 20.57226562 40.18945312 C19.05782826 37.454074 17.53356909 34.72468454 16 32 C15.34 32 14.68 32 14 32 C13.896875 31.113125 13.79375 30.22625 13.6875 29.3125 C12.98527954 25.92907415 11.8403423 23.88053577 10 21 C10 20.34 10 19.68 10 19 C9.34 18.67 8.68 18.34 8 18 C7.03857422 16.44946289 7.03857422 16.44946289 6.0546875 14.47265625 C5.70019531 13.76302734 5.34570312 13.05339844 4.98046875 12.32226562 C4.61566406 11.57654297 4.25085938 10.83082031 3.875 10.0625 C3.31619141 8.9497168 3.31619141 8.9497168 2.74609375 7.81445312 C0 2.26694139 0 2.26694139 0 0 Z M41 79 C42 81 42 81 42 81 Z " fill="#020202" transform="translate(618,349)"/>
<path d="M0 0 C0 0.66 0 1.32 0 2 C0.66 2 1.32 2 2 2 C12.15089568 12.65695206 16.0736464 26.60949323 16 41 C14.56283772 55.97430379 8.62724757 68.35443984 -3 78 C-13.65702837 86.24171777 -26.76197167 89.02386097 -40.02050781 87.81591797 C-55.15006957 85.85688135 -65.95882613 79.50320548 -75.8046875 67.8671875 C-79 63.55261299 -79 63.55261299 -79 61 C-79.66 60.67 -80.32 60.34 -81 60 C-82.01529541 57.67328135 -83.01488198 55.3396553 -84 53 C-84.66 52.34 -85.32 51.68 -86 51 C-86 49.68 -86 48.36 -86 47 C-85.34 47 -84.68 47 -84 47 C-84.33 46.34 -84.66 45.68 -85 45 C-86.17460361 30.115269 -82.89483552 17.21968733 -74 5 C-64.7365603 -5.62229848 -52.55529792 -11.56400153 -38.59375 -12.84765625 C-24.24510794 -13.4559139 -10.91751857 -9.78387104 0 0 Z M-59.078125 14.11328125 C-64.76582233 21.03171981 -67.36761855 26.99334547 -67 36 C-67.495 36.495 -67.495 36.495 -68 37 C-67.92652395 46.42330359 -65.3968584 54.95849696 -59 62 C-51.30056197 68.90518021 -44.29314822 71.53240422 -34 71 C-32.68485716 71 -31.37290571 71.13847611 -30.0625 71.25 C-22.70576081 71.21978752 -15.80312931 67.65294523 -10.52734375 62.6875 C-3.62928846 55.06611922 -0.63317339 46.35939113 -0.9375 36.125 C-1.91472512 26.6613462 -5.3866305 19.07411781 -12.3125 12.5 C-26.38308318 1.20125124 -46.00591762 0.81992751 -59.078125 14.11328125 Z " fill="#090909" transform="translate(551,675)"/>
<path d="M0 0 C0.99 0.495 0.99 0.495 2 1 C1.72212646 1.50450684 1.44425293 2.00901367 1.15795898 2.52880859 C-0.09050874 4.80642927 -1.32661007 7.09053184 -2.5625 9.375 C-3.00013672 10.1690625 -3.43777344 10.963125 -3.88867188 11.78125 C-4.29794922 12.54179687 -4.70722656 13.30234375 -5.12890625 14.0859375 C-5.51119385 14.7876709 -5.89348145 15.4894043 -6.28735352 16.21240234 C-6.52252686 16.80230957 -6.7577002 17.3922168 -7 18 C-6.505 18.99 -6.505 18.99 -6 20 C-6.99 20 -7.98 20 -9 20 C-9.21398437 20.77601563 -9.42796875 21.55203125 -9.6484375 22.3515625 C-11.48675621 27.3139604 -14.04390744 31.7647167 -16.625 36.375 C-20.59794416 43.55444955 -24.4432561 50.75819909 -28.04345703 58.13085938 C-31.08273293 64.29529338 -34.44070006 70.27401398 -37.85205078 76.23925781 C-38.26181152 76.96209961 -38.67157227 77.68494141 -39.09375 78.4296875 C-39.46177734 79.07147949 -39.82980469 79.71327148 -40.20898438 80.37451172 C-41.14585732 81.99843808 -41.14585732 81.99843808 -41 84 C-41.66 84 -42.32 84 -43 84 C-43.23589844 84.64324219 -43.47179687 85.28648437 -43.71484375 85.94921875 C-45.43433027 90.03103933 -47.48871677 93.90115256 -49.5625 97.8125 C-50.23502808 99.08480469 -50.23502808 99.08480469 -50.92114258 100.3828125 C-54.30581646 106.75677398 -57.80237023 113.05930021 -61.36328125 119.3359375 C-64.55757718 124.97112141 -67.7071592 130.63123079 -70.8553772 136.29223633 C-71.52895832 137.5029929 -72.20308156 138.71344806 -72.8777771 139.92358398 C-73.83385126 141.63845234 -74.78804612 143.35436801 -75.7421875 145.0703125 C-76.2976123 146.06820801 -76.85303711 147.06610352 -77.42529297 148.09423828 C-81.22500618 154.75898947 -81.22500618 154.75898947 -82.25 162.1875 C-82.23453125 163.02667969 -82.2190625 163.86585938 -82.203125 164.73046875 C-82.07310963 167.16466917 -82.07310963 167.16466917 -81 170 C-82.64163039 171.64163039 -84.48795979 171.17115578 -86.75 171.1875 C-96.10473168 171.05386098 -105.4772637 170.74560398 -113.1796875 164.890625 C-117.10826948 160.81029522 -118.9588901 156.21684947 -119.03125 150.5546875 C-117.12449734 137.077413 -106.20124123 125.36578196 -97.58691406 115.35839844 C-95.47692368 112.90002486 -94.03620521 111.10861564 -93 108 C-91.89564183 106.86113064 -90.78351545 105.72910251 -89.640625 104.62890625 C-83.4865202 98.51875934 -77.97787791 91.80892027 -72.53515625 85.0703125 C-68.95451407 80.73381827 -65.24629311 76.51071146 -61.51660156 72.30200195 C-59.11238232 69.56255788 -56.94159079 66.9116712 -54.92578125 63.86328125 C-52.88379173 60.82721975 -50.618836 58.54826856 -48 56 C-46.03915412 53.82916282 -44.14422146 51.60402125 -42.25 49.375 C-41.72486816 48.76035889 -41.19973633 48.14571777 -40.65869141 47.51245117 C-37.51337262 43.81897561 -34.42552611 40.08494777 -31.375 36.3125 C-27.53122178 31.57741088 -23.48472507 27.06470073 -19.359375 22.57421875 C-11.1974298 13.67386731 -11.1974298 13.67386731 -4 4 C-2.68612831 2.64748503 -1.35573748 1.31054623 0 0 Z " fill="#020202" transform="translate(405,348)"/>
<path d="M0 0 C3.02990095 1.71967351 5.76327296 3.29238306 8 6 C8 6.66 8 7.32 8 8 C8.5775 8.2475 9.155 8.495 9.75 8.75 C12.32939979 10.18299988 14.06121592 11.78424676 16 14 C16 14.66 16 15.32 16 16 C16.66 16 17.32 16 18 16 C19.35386936 17.65002828 20.68678142 19.3174387 22 21 C22.66 21.33 23.32 21.66 24 22 C24 22.66 24 23.32 24 24 C24.58394531 24.24621094 25.16789062 24.49242187 25.76953125 24.74609375 C28.36927731 26.20759723 29.76144437 27.78483178 31.6875 30.0625 C36.96137547 36.10881178 42.66282869 41.69151439 48.41088867 47.28540039 C49.13252197 47.99559326 49.85415527 48.70578613 50.59765625 49.4375 C51.25258057 50.07558594 51.90750488 50.71367188 52.58227539 51.37109375 C54 53 54 53 54 55 C54.66 55 55.32 55 56 55 C56 55.66 56 56.32 56 57 C56.99 57 57.98 57 59 57 C58.34 56.34 57.68 55.68 57 55 C57.36276645 52.17042171 58.09694764 49.70915709 59 47 C58.01 46.505 58.01 46.505 57 46 C57.16298584 45.41843643 57.32597168 44.83687286 57.49389648 44.23768616 C58.28747773 40.7289459 58.10059999 37.19895519 58.0625 33.62109375 C58.05871338 32.8126149 58.05492676 32.00413605 58.05102539 31.17115784 C58.03882897 28.59321726 58.020198 26.01538956 58 23.4375 C57.97343767 20.04036758 57.95343009 16.64329079 57.9375 13.24609375 C57.92920166 12.46479599 57.92090332 11.68349823 57.91235352 10.87852478 C57.89768138 7.64656207 57.97009923 5.08970232 59 2 C62.93215655 0.52728812 67.10943954 0.88994939 71.25 0.9375 C71.99507813 0.94201172 72.74015625 0.94652344 73.5078125 0.95117188 C75.3385764 0.96290754 77.16929873 0.9808415 79 1 C79 2.98 79 4.96 79 7 C78.67 7 78.34 7 78 7 C78.00444122 8.04934219 78.00888245 9.09868439 78.01345825 10.17982483 C78.05404798 20.08159613 78.08400537 29.98335049 78.10362434 39.8851862 C78.11404979 44.97549476 78.12818643 50.06573602 78.15087891 55.15600586 C78.17265137 60.07080685 78.18457794 64.98554321 78.18975449 69.90038872 C78.19344233 71.77301488 78.20064375 73.64563761 78.21146011 75.51823616 C78.22603353 78.14643044 78.2279755 80.77435953 78.22705078 83.40258789 C78.23424133 84.17223373 78.24143188 84.94187958 78.24884033 85.73484802 C78.23068423 90.52147588 77.51293224 94.45317098 76 99 C68.70282557 93.73082442 62.85737693 87.86020074 56.90234375 81.12890625 C52.63318971 76.35131086 47.94148081 72.15400961 43.14453125 67.921875 C40.66766232 65.70216733 38.31817939 63.38441309 36 61 C35.34 60.34 34.68 59.68 34 59 C27 52 27 52 24.9375 49.625 C24.298125 49.08875 23.65875 48.5525 23 48 C20.78141747 48.13641377 20.78141747 48.13641377 19 49 C19 46 19 46 20 45 C19.01 45 18.02 45 17 45 C17.00222061 45.63671127 17.00444122 46.27342255 17.00672913 46.9294281 C17.0287804 53.53115276 17.04390593 60.13286704 17.05493164 66.73461914 C17.05997356 69.20142033 17.06680691 71.66821852 17.07543945 74.13500977 C17.08751125 77.67204529 17.09322956 81.20904145 17.09765625 84.74609375 C17.10281754 85.85649521 17.10797882 86.96689667 17.11329651 88.11094666 C17.11340981 89.64242088 17.11340981 89.64242088 17.11352539 91.20483398 C17.115746 92.10862289 17.11796661 93.0124118 17.12025452 93.94358826 C17 96 17 96 16 97 C13.13732433 97.07325168 10.299281 97.09238205 7.4375 97.0625 C6.63119141 97.05798828 5.82488281 97.05347656 4.99414062 97.04882812 C2.99606244 97.03700518 0.99802217 97.01906914 -1 97 C-1.02312143 84.500429 -1.04091406 72.00086305 -1.05181217 59.50127506 C-1.05704144 53.69786387 -1.06413987 47.89446725 -1.07543945 42.09106445 C-1.08626678 36.49549147 -1.0922765 30.89993255 -1.09487724 25.3043499 C-1.09673177 23.16441056 -1.10035291 21.02447204 -1.10573006 18.88453865 C-1.11293844 15.89835034 -1.11399103 12.91222093 -1.11352539 9.92602539 C-1.11712067 9.03194977 -1.12071594 8.13787415 -1.12442017 7.21670532 C-1.11405216 1.11405216 -1.11405216 1.11405216 0 0 Z M16 41 C16.33 41.99 16.66 42.98 17 44 C17.33 43.01 17.66 42.02 18 41 C17.34 41 16.68 41 16 41 Z " fill="#0D0D0C" transform="translate(361,663)"/>
<path d="M0 0 C1.65 0 3.3 0 5 0 C5.12568359 0.73653809 5.25136719 1.47307617 5.38085938 2.23193359 C5.96625937 4.84915169 6.73855636 6.8870582 7.90625 9.2890625 C8.51436523 10.55061157 8.51436523 10.55061157 9.13476562 11.83764648 C9.58529297 12.75747314 10.03582031 13.6772998 10.5 14.625 C10.97630859 15.60992432 11.45261719 16.59484863 11.94335938 17.60961914 C13.62211919 21.07640559 15.31014596 24.53861415 17 28 C19.8354051 33.81149153 22.66872814 39.62399373 25.5 45.4375 C25.86482483 46.18601227 26.22964966 46.93452454 26.60552979 47.70571899 C32.20261768 59.19610179 37.63595283 70.74628923 42.8984375 82.39453125 C43.26420898 83.19584473 43.62998047 83.9971582 44.00683594 84.82275391 C44.87970964 86.73629563 45.74152754 88.65487243 46.6015625 90.57421875 C47.82050826 93.3090322 47.82050826 93.3090322 51 94 C50.67 94.66 50.34 95.32 50 96 C43.4 96 36.8 96 30 96 C27 90 27 90 27 88 C26.34 87.67 25.68 87.34 25 87 C24.29583131 85.01289384 23.63511243 83.01024293 23 81 C22.16504393 79.13626465 21.29680164 77.2871378 20.3984375 75.453125 C19.90859375 74.44378906 19.41875 73.43445313 18.9140625 72.39453125 C17.88034143 70.28248693 16.8464853 68.17050872 15.8125 66.05859375 C15.08160156 64.55232422 15.08160156 64.55232422 14.3359375 63.015625 C13.88782715 62.10071289 13.4397168 61.18580078 12.97802734 60.24316406 C12 58 12 58 12 56 C11.360625 55.7525 10.72125 55.505 10.0625 55.25 C8 54 8 54 7.25 52.0625 C7 50 7 50 7 47 C6.22555505 45.2436695 5.38486776 43.51587044 4.5 41.8125 C4.0359375 40.91144531 3.571875 40.01039063 3.09375 39.08203125 C2.55234375 38.05142578 2.55234375 38.05142578 2 37 C-0.94168882 40.53637596 -2.80045075 44.49431459 -4.73046875 48.6328125 C-5.26164055 49.75887405 -5.26164055 49.75887405 -5.80354309 50.90768433 C-6.55452427 52.50206309 -7.30330814 54.09747843 -8.05004883 55.69384766 C-9.16193976 58.07036835 -10.28048838 60.44365213 -11.40039062 62.81640625 C-15.55818106 71.65020214 -19.61067944 80.52331892 -23.51591492 89.47195435 C-25.89591727 94.89591727 -25.89591727 94.89591727 -27 96 C-28.4887186 96.08669432 -29.981445 96.10703494 -31.47265625 96.09765625 C-32.37177734 96.09443359 -33.27089844 96.09121094 -34.19726562 96.08789062 C-35.61555664 96.07532227 -35.61555664 96.07532227 -37.0625 96.0625 C-38.01189453 96.05798828 -38.96128906 96.05347656 -39.93945312 96.04882812 C-42.29303065 96.0370011 -44.64648477 96.02052025 -47 96 C-47 95.34 -47 94.68 -47 94 C-46.34 94 -45.68 94 -45 94 C-44.77183594 93.21496094 -44.54367188 92.42992187 -44.30859375 91.62109375 C-42.60009823 86.89340615 -40.34833151 82.53371299 -38.0625 78.0625 C-34.21706107 70.45126142 -30.42493725 62.82012916 -26.75 55.125 C-26.31091309 54.20565674 -25.87182617 53.28631348 -25.41943359 52.33911133 C-22.64698772 46.51208532 -19.90896236 40.66944941 -17.18359375 34.8203125 C-16.85326141 34.11226471 -16.52292908 33.40421692 -16.18258667 32.67471313 C-14.550954 29.17737955 -12.92273602 25.67855457 -11.30175781 22.17626953 C-7.79610178 14.63290823 -4.10348265 7.24088392 0 0 Z " fill="#0B0B0B" transform="translate(291,664)"/>
<path d="M0 0 C3.95735452 1.47375881 5.01804239 3.35685362 6.77734375 7.1171875 C7.28386475 8.18437012 7.79038574 9.25155273 8.31225586 10.35107422 C9.11675171 12.09541748 9.11675171 12.09541748 9.9375 13.875 C10.51139379 15.09571251 11.08636433 16.31591933 11.66235352 17.53564453 C13.45826665 21.34941144 15.23003308 25.17414081 17 29 C18.08325791 31.33336835 19.16658903 33.66670271 20.25 36 C21.84704685 39.44199133 23.44204242 42.88485409 25.03051758 46.33081055 C27.90330169 52.54873036 30.82384555 58.73736975 33.82421875 64.89453125 C34.30183907 65.87595093 34.30183907 65.87595093 34.78910828 66.87719727 C36.32460904 70.02941269 37.86687533 73.17804988 39.41967773 76.32177734 C41.82573845 81.24286829 44.12243826 86.03930582 45.7734375 91.26953125 C46.17820312 92.50058594 46.58296875 93.73164062 47 95 C47.66 95.33 48.32 95.66 49 96 C42.4 96 35.8 96 29 96 C23.555 84.12 23.555 84.12 18 72 C17.34 72 16.68 72 16 72 C15.84724609 70.72769531 15.84724609 70.72769531 15.69140625 69.4296875 C14.92681493 65.63696899 13.6084567 62.60912247 11.9375 59.125 C11.38964844 57.97257813 10.84179688 56.82015625 10.27734375 55.6328125 C9.64505859 54.32957031 9.64505859 54.32957031 9 53 C8.34 53 7.68 53 7 53 C6.85304688 52.12988281 6.85304688 52.12988281 6.703125 51.2421875 C5.68711634 45.93441814 4.44700228 42.20103403 1 38 C0.34 38 -0.32 38 -1 38 C-1.36996094 39.22332031 -1.73992188 40.44664062 -2.12109375 41.70703125 C-4.21091295 47.96671764 -7.14696136 53.77899658 -10.0625 59.6875 C-11.22594507 62.07197994 -12.38795358 64.45707649 -13.546875 66.84375 C-13.83701981 67.44056076 -14.12716461 68.03737152 -14.42610168 68.65226746 C-18.80233159 77.68255035 -22.8982037 86.84271662 -27 96 C-33.6 96 -40.2 96 -47 96 C-42.3185937 86.02323247 -37.58103628 76.09304205 -32.625 66.25 C-25.59453506 52.26495606 -18.84169197 38.15330754 -12.265625 23.94921875 C-11.94773514 23.26368927 -11.62984528 22.57815979 -11.30232239 21.87185669 C-9.72726898 18.47512976 -8.15665802 15.07649767 -6.59448242 11.67382812 C-6.02019611 10.43220998 -5.44574143 9.19066969 -4.87109375 7.94921875 C-4.36505615 6.84924561 -3.85901855 5.74927246 -3.33764648 4.6159668 C-2 2 -2 2 0 0 Z " fill="#0B0B0B" transform="translate(723,664)"/>
<path d="M0 0 C0.84175781 -0.00257813 1.68351563 -0.00515625 2.55078125 -0.0078125 C3.87142578 0.00378906 3.87142578 0.00378906 5.21875 0.015625 C6.09917969 0.00789062 6.97960937 0.00015625 7.88671875 -0.0078125 C8.72847656 -0.00523437 9.57023438 -0.00265625 10.4375 0 C11.59668945 0.00338379 11.59668945 0.00338379 12.77929688 0.00683594 C14.71875 0.265625 14.71875 0.265625 16.71875 2.265625 C15.72875 2.595625 14.73875 2.925625 13.71875 3.265625 C12.45839506 5.07576908 12.45839506 5.07576908 11.40625 7.3671875 C10.97699219 8.23657959 10.54773438 9.10597168 10.10546875 10.00170898 C9.64785156 10.95505127 9.19023438 11.90839355 8.71875 12.890625 C8.23019531 13.88843994 7.74164062 14.88625488 7.23828125 15.91430664 C5.71956604 19.02567194 4.21651211 22.14412544 2.71875 25.265625 C2.2959375 26.14557129 1.873125 27.02551758 1.4375 27.93212891 C-0.24007675 31.42909678 -1.91275483 34.92834206 -3.57861328 38.4309082 C-8.37701126 48.50955517 -13.26643118 58.54359602 -18.15625 68.578125 C-18.57084473 69.42946014 -18.98543945 70.28079529 -19.41259766 71.15792847 C-21.70829047 75.87129836 -24.0096122 80.58184523 -26.31677246 85.28961182 C-27.18211857 87.06252539 -28.03751076 88.84028924 -28.89160156 90.61865234 C-29.33213867 91.52695801 -29.77267578 92.43526367 -30.2265625 93.37109375 C-30.58508301 94.1189917 -30.94360352 94.86688965 -31.31298828 95.63745117 C-32.28125 97.265625 -32.28125 97.265625 -34.28125 98.265625 C-35.59980095 96.01898238 -36.91118972 93.76865194 -38.21875 91.515625 C-38.77852539 90.56429687 -38.77852539 90.56429687 -39.34960938 89.59375 C-41.1484452 86.4822502 -42.43589419 83.73230129 -43.28125 80.265625 C-44.4944979 77.69739463 -45.73722216 75.1672852 -47.03125 72.640625 C-47.75520833 71.2109375 -48.47916667 69.78125 -49.203125 68.3515625 C-49.55697266 67.65643555 -49.91082031 66.96130859 -50.27539062 66.24511719 C-51.62367323 63.59174937 -52.95327634 60.92920436 -54.28125 58.265625 C-54.673125 57.481875 -55.065 56.698125 -55.46875 55.890625 C-55.736875 55.354375 -56.005 54.818125 -56.28125 54.265625 C-56.94125 54.265625 -57.60125 54.265625 -58.28125 54.265625 C-61.28125 50.80408654 -61.28125 50.80408654 -61.28125 48.265625 C-60.62125 48.265625 -59.96125 48.265625 -59.28125 48.265625 C-60.06608659 46.78282304 -60.85934334 45.3044752 -61.65625 43.828125 C-62.09710937 43.00441406 -62.53796875 42.18070313 -62.9921875 41.33203125 C-64.11543559 39.13095922 -64.11543559 39.13095922 -66.28125 38.265625 C-66.40757812 37.25628906 -66.53390625 36.24695313 -66.6640625 35.20703125 C-67.38568098 30.59872084 -68.99140072 27.28064578 -71.15625 23.203125 C-71.50816406 22.52185547 -71.86007812 21.84058594 -72.22265625 21.13867188 C-72.9125344 19.80379612 -73.60863959 18.47211655 -74.31152344 17.14404297 C-75.21185766 15.40004209 -76.03526825 13.61691345 -76.8515625 11.83203125 C-78.07324063 8.96003515 -78.07324063 8.96003515 -81.28125 8.265625 C-81.28125 5.955625 -81.28125 3.645625 -81.28125 1.265625 C-75.34125 1.265625 -69.40125 1.265625 -63.28125 1.265625 C-53.26796142 21.09586317 -43.67853425 41.13669892 -34.28125 61.265625 C-29.44944299 51.73706148 -24.7364261 42.15070724 -20.07623291 32.53720093 C-19.47263881 31.29287124 -18.86797876 30.04905793 -18.262146 28.80581665 C-14.44384636 20.9656542 -10.86395975 13.08010395 -7.54736328 5.01806641 C-5.63137822 0.85284936 -4.43427554 0.01294409 0 0 Z M-80.28125 5.265625 C-79.28125 7.265625 -79.28125 7.265625 -79.28125 7.265625 Z M-59.28125 48.265625 C-58.28125 50.265625 -58.28125 50.265625 -58.28125 50.265625 Z " fill="#0A0A0A" transform="translate(661.28125,663.734375)"/>
<path d="M0 0 C3.35111292 0.69005405 6.72364292 1.20460363 10.10302734 1.73510742 C13.55124399 2.28367171 16.98787152 2.88995326 20.42578125 3.49951172 C20.42578125 4.15951172 20.42578125 4.81951172 20.42578125 5.49951172 C19.595625 5.95197266 18.76546875 6.40443359 17.91015625 6.87060547 C8.81178562 11.88627612 -0.0866188 17.20588184 -8.94921875 22.62451172 C-21.44210521 30.26033218 -34.07733109 37.61555503 -46.78271484 44.89355469 C-50.56283547 47.06826463 -54.32092115 49.27893062 -58.07421875 51.49951172 C-72.47183965 59.99874662 -86.88865182 68.50498006 -101.57421875 76.49951172 C-102.70859375 77.11826172 -103.84296875 77.73701172 -105.01171875 78.37451172 C-105.85734375 78.74576172 -106.70296875 79.11701172 -107.57421875 79.49951172 C-108.23421875 79.16951172 -108.89421875 78.83951172 -109.57421875 78.49951172 C-103.72552486 72.45067241 -97.8653749 66.72067879 -91.20703125 61.55029297 C-88.09679072 59.12762787 -85.04866006 56.63804508 -82.01171875 54.12451172 C-80.99980469 53.29177734 -79.98789062 52.45904297 -78.9453125 51.60107422 C-76.53147845 49.7246321 -76.53147845 49.7246321 -75.57421875 47.49951172 C-73.91809914 46.48213981 -72.2493959 45.4851888 -70.57421875 44.49951172 C-68.8220519 43.19655106 -67.09277453 41.86229153 -65.38671875 40.49951172 C-64.52691406 39.81888672 -63.66710937 39.13826172 -62.78125 38.43701172 C-60.39412953 36.51032781 -60.39412953 36.51032781 -58.57421875 33.49951172 C-56.90938782 32.4964585 -55.24231666 31.49712243 -53.57421875 30.49951172 C-51.19383977 28.6190195 -48.91799493 26.62339095 -46.63671875 24.62451172 C-45.44044215 23.58506011 -44.24383059 22.54599388 -43.046875 21.50732422 C-42.46953613 21.00362305 -41.89219727 20.49992188 -41.29736328 19.98095703 C-39.61919891 18.53818267 -37.9120149 17.1382169 -36.1953125 15.74169922 C-33.54811653 13.77144267 -33.54811653 13.77144267 -32.57421875 11.49951172 C-31.83558594 11.07283203 -31.09695313 10.64615234 -30.3359375 10.20654297 C-27.44704472 8.57566565 -27.44704472 8.57566565 -25.09375 5.94873047 C-16.89860019 -2.41197792 -11.11775956 -2.34385603 0 0 Z " fill="#050505" transform="translate(651.57421875,536.50048828125)"/>
<path d="M0 0 C2.1875 2 2.1875 2 3.44140625 3.359375 C8.65014104 8.84225373 14.56441361 13.69029856 20.4375 18.4375 C24.24087503 21.51336588 27.90082652 24.68753166 31.5 28 C35.86769492 32.01605847 40.36849236 35.79385454 44.984375 39.51953125 C48.54669866 42.44968089 52.02478396 45.4675451 55.5 48.5 C60.89369709 53.20570806 66.35131697 57.80173371 71.92578125 62.29296875 C74 64 74 64 76 66 C76.99 66 77.98 66 79 66 C79.25910156 66.59554687 79.51820313 67.19109375 79.78515625 67.8046875 C81.08893617 70.16071424 82.36790604 71.42481743 84.4375 73.125 C85.03433594 73.62257813 85.63117188 74.12015625 86.24609375 74.6328125 C87.77762306 75.82665495 89.3842702 76.9228468 91 78 C91 78.66 91 79.32 91 80 C87.57037642 78.69481761 84.40254126 77.19967789 81.20703125 75.3984375 C80.32982422 74.90859375 79.45261719 74.41875 78.54882812 73.9140625 C76.71236858 72.88113593 74.87643754 71.84726922 73.04101562 70.8125 C72.16767578 70.32523438 71.29433594 69.83796875 70.39453125 69.3359375 C69.59893799 68.88782715 68.80334473 68.4397168 67.98364258 67.97802734 C66.06963821 66.85259431 66.06963821 66.85259431 64 67 C63.57976562 66.56300781 63.15953125 66.12601563 62.7265625 65.67578125 C60.50323167 63.5178425 58.1772309 62.50172457 55.375 61.1875 C50.73054816 58.92939316 46.53118872 56.44918345 42.29296875 53.515625 C37.3022635 50.21682834 31.97329902 47.10838958 26.359375 45.015625 C24 44 24 44 22.64477539 42.61230469 C20.69898672 40.70492924 18.69440428 39.53039704 16.32421875 38.1875 C15.41349609 37.66929687 14.50277344 37.15109375 13.56445312 36.6171875 C12.61505859 36.08351563 11.66566406 35.54984375 10.6875 35 C9.74970703 34.46632813 8.81191406 33.93265625 7.84570312 33.3828125 C3.2855735 30.79906041 -1.2789971 28.28169297 -6 26 C-8 25 -8 25 -10.09375 23.25390625 C-13.71018713 20.44922315 -17.53980017 18.21854774 -21.5 15.9375 C-22.98966052 15.07174738 -24.47924577 14.20586524 -25.96875 13.33984375 C-26.66718018 12.93660889 -27.36561035 12.53337402 -28.08520508 12.11791992 C-29.68977732 11.18111815 -31.27514993 10.2115352 -32.85546875 9.234375 C-35.23523245 7.86460209 -37.29581171 7.38631261 -40 7 C-40 5.68 -40 4.36 -40 3 C-38.97519531 2.94392578 -38.97519531 2.94392578 -37.9296875 2.88671875 C-29.41319788 2.33129551 -21.03821 1.22922382 -12.60498047 -0.0715332 C-11.69377441 -0.20519287 -10.78256836 -0.33885254 -9.84375 -0.4765625 C-9.03099609 -0.60111816 -8.21824219 -0.72567383 -7.38085938 -0.85400391 C-4.70192775 -1.01827802 -2.58101133 -0.72732683 0 0 Z " fill="#060606" transform="translate(392,536)"/>
<path d="M0 0 C0.66 0.33 1.32 0.66 2 1 C-2.29 5.29 -6.58 9.58 -11 14 C-11 10.30159372 -10.17133056 9.68584567 -7.75 7 C-7.14671875 6.319375 -6.5434375 5.63875 -5.921875 4.9375 C-4.06233388 3.06284066 -2.15205789 1.52358081 0 0 Z " fill="#2D2E2D" transform="translate(487,671)"/>
<path d="M0 0 C0 0.99 0 1.98 0 3 C-0.66 3.66 -1.32 4.32 -2 5 C-1.67 5.66 -1.34 6.32 -1 7 C-2.96466413 8.06775224 -4.96855359 9.06553465 -7 10 C-7.66 9.67 -8.32 9.34 -9 9 C-6.03 6.03 -3.06 3.06 0 0 Z " fill="#282727" transform="translate(551,606)"/>
<path d="M0 0 C0.66 0.33 1.32 0.66 2 1 C-1.32307692 7.64615385 -1.32307692 7.64615385 -4.75 9.4375 C-5.86375 9.7159375 -5.86375 9.7159375 -7 10 C-6.34 8.02 -5.68 6.04 -5 4 C-4.34 4 -3.68 4 -3 4 C-1.36323743 2.0399719 -1.36323743 2.0399719 0 0 Z " fill="#151515" transform="translate(405,348)"/>
<path d="M0 0 C0.99 0 1.98 0 3 0 C3 0.66 3 1.32 3 2 C4.65 2 6.3 2 8 2 C6.25 3.5625 6.25 3.5625 4 5 C1.75 4.6875 1.75 4.6875 0 4 C0 2.68 0 1.36 0 0 Z " fill="#202121" transform="translate(416,528)"/>
<path d="M0 0 C1.67542976 0.28604898 3.34385343 0.61781233 5 1 C5 1.99 5 2.98 5 4 C2.36 4 -0.28 4 -3 4 C-3.33 3.34 -3.66 2.68 -4 2 C-3.01 1.67 -2.02 1.34 -1 1 C-0.67 0.67 -0.34 0.34 0 0 Z " fill="#1D1D1D" transform="translate(464,521)"/>
<path d="M0 0 C3.63 0 7.26 0 11 0 C11 0.33 11 0.66 11 1 C7.37 1 3.74 1 0 1 C0 0.67 0 0.34 0 0 Z " fill="#161515" transform="translate(476,499)"/>
<path d="M0 0 C0.99 0.33 1.98 0.66 3 1 C3 1.99 3 2.98 3 4 C2.34 4 1.68 4 1 4 C0.67 2.68 0.34 1.36 0 0 Z " fill="#7B7C7A" transform="translate(315,705)"/>
<path d="M0 0 C2 2 2 2 2 5 C1.34 4.67 0.68 4.34 0 4 C0 2.68 0 1.36 0 0 Z " fill="#727171" transform="translate(544,697)"/>
<path d="M0 0 C1.485 0.99 1.485 0.99 3 2 C2.67 2.66 2.34 3.32 2 4 C1.34 3.67 0.68 3.34 0 3 C0 2.01 0 1.02 0 0 Z " fill="#7D7E7C" transform="translate(416,689)"/>
<path d="M0 0 C0.99 0 1.98 0 3 0 C3 0.66 3 1.32 3 2 C3.66 2.33 4.32 2.66 5 3 C4.01 3 3.02 3 2 3 C2 2.34 2 1.68 2 1 C1.34 0.67 0.68 0.34 0 0 Z " fill="#2B2A2A" transform="translate(352,536)"/>
<path d="M0 0 C0.66 0 1.32 0 2 0 C1.34 1.32 0.68 2.64 0 4 C0 2.68 0 1.36 0 0 Z " fill="#777775" transform="translate(296,712)"/>
<path d="M0 0 C1.485 0.99 1.485 0.99 3 2 C2.34 2 1.68 2 1 2 C0.67 2.66 0.34 3.32 0 4 C0 2.68 0 1.36 0 0 Z " fill="#7D7E7C" transform="translate(416,664)"/>
<path d="M0 0 C0.33 0.66 0.66 1.32 1 2 C0.34 2.66 -0.32 3.32 -1 4 C-0.67 2.68 -0.34 1.36 0 0 Z " fill="#777776" transform="translate(705,696)"/>
<path d="M0 0 C0.66 0.66 1.32 1.32 2 2 C0.68 1.67 -0.64 1.34 -2 1 C-1.34 0.67 -0.68 0.34 0 0 Z " fill="#171816" transform="translate(478,520)"/>
<path d="M0 0 C0.33 0.66 0.66 1.32 1 2 C-0.32 1.67 -1.64 1.34 -3 1 C-2.01 0.67 -1.02 0.34 0 0 Z " fill="#1A1A18" transform="translate(415,506)"/>
<path d="M0 0 C0 0.99 0 1.98 0 3 C-0.66 2.34 -1.32 1.68 -2 1 C-1.34 0.67 -0.68 0.34 0 0 Z " fill="#20201E" transform="translate(310,456)"/>
<path d="M0 0 C0.66 0.66 1.32 1.32 2 2 C1.34 2.66 0.68 3.32 0 4 C0 2.68 0 1.36 0 0 Z " fill="#19191A" transform="translate(336,424)"/>
<path d="M0 0 C0.99 0.495 0.99 0.495 2 1 C2 1.66 2 2.32 2 3 C1.34 3 0.68 3 0 3 C0 2.01 0 1.02 0 0 Z " fill="#151412" transform="translate(569,397)"/>
<path d="M0 0 C0.66 0.66 1.32 1.32 2 2 C1.01 2.495 1.01 2.495 0 3 C0 2.01 0 1.02 0 0 Z " fill="#777675" transform="translate(418,746)"/>
<path d="M0 0 C0.33 0.99 0.66 1.98 1 3 C0.34 2.67 -0.32 2.34 -1 2 C-0.67 1.34 -0.34 0.68 0 0 Z " fill="#838281" transform="translate(313,745)"/>
<path d="M0 0 C0.99 0.495 0.99 0.495 2 1 C1.67 1.66 1.34 2.32 1 3 C0.67 2.01 0.34 1.02 0 0 Z " fill="#7F7E7C" transform="translate(611,733)"/>
<path d="M0 0 C1 4 1 4 1 4 Z " fill="#717172" transform="translate(464,706)"/>
<path d="M0 0 C0.66 0 1.32 0 2 0 C1.67 0.99 1.34 1.98 1 3 C0.67 2.01 0.34 1.02 0 0 Z " fill="#777A78" transform="translate(417,698)"/>
<path d="M0 0 C0.99 0.33 1.98 0.66 3 1 C2.01 1 1.02 1 0 1 C0 0.67 0 0.34 0 0 Z " fill="#737575" transform="translate(540,694)"/>
<path d="M0 0 C0.33 0.99 0.66 1.98 1 3 C0.34 2.67 -0.32 2.34 -1 2 C-0.67 1.34 -0.34 0.68 0 0 Z " fill="#777976" transform="translate(273,688)"/>
<path d="M0 0 C0.33 0.99 0.66 1.98 1 3 C0.34 2.67 -0.32 2.34 -1 2 C-0.67 1.34 -0.34 0.68 0 0 Z " fill="#747371" transform="translate(529,683)"/>
<path d="M0 0 C0.99 0 1.98 0 3 0 C2.67 0.66 2.34 1.32 2 2 C1.34 1.34 0.68 0.68 0 0 Z " fill="#80827F" transform="translate(416,675)"/>
<path d="M0 0 C0 3 0 3 0 3 Z " fill="#7C7C7B" transform="translate(281,673)"/>
<path d="M0 0 C0.99 0.495 0.99 0.495 2 1 C1.34 1.66 0.68 2.32 0 3 C0 2.01 0 1.02 0 0 Z " fill="#828280" transform="translate(288,664)"/>
<path d="M0 0 C0.99 0.33 1.98 0.66 3 1 C2.01 1 1.02 1 0 1 C0 0.67 0 0.34 0 0 Z " fill="#4B4747" transform="translate(476,614)"/>
<path d="M0 0 C0.99 0.33 1.98 0.66 3 1 C2.01 1 1.02 1 0 1 C0 0.67 0 0.34 0 0 Z " fill="#191918" transform="translate(544,520)"/>
<path d="M0 0 C4 1 4 1 4 1 Z " fill="#1A1919" transform="translate(393,510)"/>
<path d="M0 0 C0.66 0 1.32 0 2 0 C2 0.66 2 1.32 2 2 C1.34 2 0.68 2 0 2 C0 1.34 0 0.68 0 0 Z " fill="#1A1B1A" transform="translate(328,434)"/>
<path d="M0 0 C0.99 0.33 1.98 0.66 3 1 C2.01 1 1.02 1 0 1 C0 0.67 0 0.34 0 0 Z " fill="#161615" transform="translate(584,424)"/>
<path d="M0 0 C0 3 0 3 0 3 Z " fill="#161615" transform="translate(449,415)"/>
<path d="M0 0 C0.99 0.495 0.99 0.495 2 1 C1.34 1.66 0.68 2.32 0 3 C0 2.01 0 1.02 0 0 Z " fill="#131212" transform="translate(476,377)"/>
<path d="M0 0 C0.99 0.495 0.99 0.495 2 1 C1.67 1.66 1.34 2.32 1 3 C0.67 2.01 0.34 1.02 0 0 Z " fill="#121211" transform="translate(480,370)"/>
<path d="M0 0 C0.99 0.33 1.98 0.66 3 1 C2.01 1 1.02 1 0 1 C0 0.67 0 0.34 0 0 Z " fill="#1B1B1B" transform="translate(384,368)"/>
<path d="M0 0 C0.66 0.66 1.32 1.32 2 2 C1.34 2 0.68 2 0 2 C0 1.34 0 0.68 0 0 Z " fill="#7D7D7A" transform="translate(428,756)"/>
<path d="M0 0 C0.66 0.66 1.32 1.32 2 2 C1.34 2 0.68 2 0 2 C0 1.34 0 0.68 0 0 Z " fill="#7A7976" transform="translate(421,749)"/>
<path d="M0 0 C0.66 0 1.32 0 2 0 C1.67 0.66 1.34 1.32 1 2 C0.67 1.34 0.34 0.68 0 0 Z " fill="#878684" transform="translate(745,749)"/>
<path d="" fill="#807F7F" transform="translate(0,0)"/>
<path d="M0 0 C0.99 0.495 0.99 0.495 2 1 C1.01 1.495 1.01 1.495 0 2 C0 1.34 0 0.68 0 0 Z " fill="#7D7D7C" transform="translate(304,730)"/>
<path d="M0 0 C0.99 0.495 0.99 0.495 2 1 C1.01 1.495 1.01 1.495 0 2 C0 1.34 0 0.68 0 0 Z " fill="#7B7B7E" transform="translate(626,720)"/>
<path d="M0 0 C0.99 0.495 0.99 0.495 2 1 C1.01 1.495 1.01 1.495 0 2 C0 1.34 0 0.68 0 0 Z " fill="#818180" transform="translate(693,720)"/>
<path d="" fill="#72726F" transform="translate(0,0)"/>
<path d="M0 0 C3 1 3 1 3 1 Z " fill="#737371" transform="translate(416,712)"/>
<path d="M0 0 C3 1 3 1 3 1 Z " fill="#797976" transform="translate(267,705)"/>
<path d="" fill="#747573" transform="translate(0,0)"/>
<path d="M0 0 C0.66 0.66 1.32 1.32 2 2 C1.34 2 0.68 2 0 2 C0 1.34 0 0.68 0 0 Z " fill="#747473" transform="translate(540,691)"/>
<path d="M0 0 C0.99 0.495 0.99 0.495 2 1 C1.01 1.495 1.01 1.495 0 2 C0 1.34 0 0.68 0 0 Z " fill="#7B7C7B" transform="translate(640,688)"/>
<path d="M0 0 C0.66 0 1.32 0 2 0 C1.67 0.66 1.34 1.32 1 2 C0.67 1.34 0.34 0.68 0 0 Z " fill="#7F7F7D" transform="translate(417,688)"/>
<path d="M0 0 C0.66 0 1.32 0 2 0 C1.67 0.66 1.34 1.32 1 2 C0.67 1.34 0.34 0.68 0 0 Z " fill="#6D6D6D" transform="translate(389,688)"/>
<path d="M0 0 C0.99 0.495 0.99 0.495 2 1 C1.01 1.495 1.01 1.495 0 2 C0 1.34 0 0.68 0 0 Z " fill="#7A7979" transform="translate(280,680)"/>
<path d="M0 0 C0.66 0.66 1.32 1.32 2 2 C1.34 2 0.68 2 0 2 C0 1.34 0 0.68 0 0 Z " fill="#707372" transform="translate(366,664)"/>
<path d="M0 0 C3 1 3 1 3 1 Z " fill="#424041" transform="translate(459,605)"/>
<path d="M0 0 C0.99 0.495 0.99 0.495 2 1 C1.01 1.495 1.01 1.495 0 2 C0 1.34 0 0.68 0 0 Z " fill="#363635" transform="translate(505,604)"/>
<path d="M0 0 C3 1 3 1 3 1 Z " fill="#383636" transform="translate(417,581)"/>
<path d="M0 0 C3 1 3 1 3 1 Z " fill="#262726" transform="translate(360,537)"/>
<path d="M0 0 C0.33 0.66 0.66 1.32 1 2 C0.34 1.67 -0.32 1.34 -1 1 C-0.67 0.67 -0.34 0.34 0 0 Z " fill="#191918" transform="translate(562,521)"/>
<path d="M0 0 C0.66 0.66 1.32 1.32 2 2 C1.34 2 0.68 2 0 2 C0 1.34 0 0.68 0 0 Z " fill="#181818" transform="translate(551,520)"/>
<path d="M0 0 C3 1 3 1 3 1 Z " fill="#222321" transform="translate(656,515)"/>
<path d="M0 0 C0.99 0.495 0.99 0.495 2 1 C1.01 1.495 1.01 1.495 0 2 C0 1.34 0 0.68 0 0 Z " fill="#171715" transform="translate(578,502)"/>
<path d="M0 0 C3 1 3 1 3 1 Z " fill="#161515" transform="translate(556,500)"/>
<path d="M0 0 C3 1 3 1 3 1 Z " fill="#171816" transform="translate(467,500)"/>
<path d="M0 0 C3 1 3 1 3 1 Z " fill="#151515" transform="translate(541,499)"/>
<path d="M0 0 C3 1 3 1 3 1 Z " fill="#161514" transform="translate(536,499)"/>
<path d="M0 0 C0.99 0.495 0.99 0.495 2 1 C1.01 1.495 1.01 1.495 0 2 C0 1.34 0 0.68 0 0 Z " fill="#1E1F1C" transform="translate(317,448)"/>
<path d="M0 0 C3 1 3 1 3 1 Z " fill="#171716" transform="translate(432,435)"/>
<path d="M0 0 C0.33 0.66 0.66 1.32 1 2 C0.34 1.67 -0.32 1.34 -1 1 C-0.67 0.67 -0.34 0.34 0 0 Z " fill="#151515" transform="translate(443,423)"/>
<path d="M0 0 C0.66 0 1.32 0 2 0 C1.67 0.66 1.34 1.32 1 2 C0.67 1.34 0.34 0.68 0 0 Z " fill="#141414" transform="translate(450,408)"/>
<path d="M0 0 C0.66 0 1.32 0 2 0 C1.67 0.66 1.34 1.32 1 2 C0.67 1.34 0.34 0.68 0 0 Z " fill="#121313" transform="translate(563,400)"/>
<path d="M0 0 C0.33 0.66 0.66 1.32 1 2 C0.34 1.67 -0.32 1.34 -1 1 C-0.67 0.67 -0.34 0.34 0 0 Z " fill="#1B1C1A" transform="translate(641,396)"/>
<path d="M0 0 C0.99 0.495 0.99 0.495 2 1 C1.01 1.495 1.01 1.495 0 2 C0 1.34 0 0.68 0 0 Z " fill="#1A1A19" transform="translate(361,392)"/>
<path d="M0 0 C0.66 0.66 1.32 1.32 2 2 C1.34 2 0.68 2 0 2 C0 1.34 0 0.68 0 0 Z " fill="#141412" transform="translate(555,374)"/>
<path d="M0 0 C0.99 0.495 0.99 0.495 2 1 C1.01 1.495 1.01 1.495 0 2 C0 1.34 0 0.68 0 0 Z " fill="#121311" transform="translate(496,352)"/>
<path d="M0 0 C0.33 0.66 0.66 1.32 1 2 C0.34 1.67 -0.32 1.34 -1 1 C-0.67 0.67 -0.34 0.34 0 0 Z " fill="#121310" transform="translate(540,349)"/>
<path d="M0 0 C2 1 2 1 2 1 Z " fill="#82837E" transform="translate(431,759)"/>
<path d="" fill="#8D8E8B" transform="translate(0,0)"/>
<path d="" fill="#8A8B89" transform="translate(0,0)"/>
<path d="M0 0 C2 1 2 1 2 1 Z " fill="#858583" transform="translate(379,758)"/>
<path d="M0 0 C2 1 2 1 2 1 Z " fill="#7A7B7A" transform="translate(490,757)"/>
<path d="M0 0 C2 1 2 1 2 1 Z " fill="#7B7B7B" transform="translate(488,756)"/>
<path d="" fill="#8B8A88" transform="translate(0,0)"/>
<path d="" fill="#7F7E7D" transform="translate(0,0)"/>
<path d="" fill="#858383" transform="translate(0,0)"/>
<path d="" fill="#848483" transform="translate(0,0)"/>
<path d="M0 0 C2 1 2 1 2 1 Z " fill="#7D7F7E" transform="translate(616,745)"/>
<path d="" fill="#7C7C7A" transform="translate(0,0)"/>
<path d="M0 0 C2 1 2 1 2 1 Z " fill="#74726F" transform="translate(406,735)"/>
<path d="M0 0 C2 1 2 1 2 1 Z " fill="#797B79" transform="translate(468,734)"/>
<path d="" fill="#71716F" transform="translate(0,0)"/>
<path d="M0 0 C2 1 2 1 2 1 Z " fill="#81827F" transform="translate(737,733)"/>
<path d="" fill="#7E7D7A" transform="translate(0,0)"/>
<path d="" fill="#797A79" transform="translate(0,0)"/>
<path d="" fill="#828282" transform="translate(0,0)"/>
<path d="" fill="#6C6C69" transform="translate(0,0)"/>
<path d="M0 0 C2 1 2 1 2 1 Z " fill="#7B7979" transform="translate(728,719)"/>
<path d="" fill="#7B7979" transform="translate(0,0)"/>
<path d="" fill="#737372" transform="translate(0,0)"/>
<path d="" fill="#7B7C78" transform="translate(0,0)"/>
<path d="" fill="#737271" transform="translate(0,0)"/>
<path d="" fill="#6D6B6B" transform="translate(0,0)"/>
<path d="M0 0 C2 1 2 1 2 1 Z " fill="#7C7B7B" transform="translate(696,712)"/>
<path d="M0 0 C2 1 2 1 2 1 Z " fill="#767776" transform="translate(622,712)"/>
<path d="" fill="#7B7C79" transform="translate(0,0)"/>
<path d="M0 0 C2 1 2 1 2 1 Z " fill="#737474" transform="translate(464,704)"/>
<path d="" fill="#727271" transform="translate(0,0)"/>
<path d="M0 0 C2 1 2 1 2 1 Z " fill="#797677" transform="translate(592,701)"/>
<path d="" fill="#797776" transform="translate(0,0)"/>
<path d="" fill="#7A7876" transform="translate(0,0)"/>
<path d="" fill="#777776" transform="translate(0,0)"/>
<path d="" fill="#787877" transform="translate(0,0)"/>
<path d="" fill="#797A79" transform="translate(0,0)"/>
<path d="" fill="#6E6E6C" transform="translate(0,0)"/>
<path d="M0 0 C2 1 2 1 2 1 Z " fill="#7B7C79" transform="translate(417,696)"/>
<path d="M0 0 C2 1 2 1 2 1 Z " fill="#7B7D7C" transform="translate(641,691)"/>
<path d="" fill="#7D8081" transform="translate(0,0)"/>
<path d="M0 0 C2 1 2 1 2 1 Z " fill="#7E7D7B" transform="translate(708,688)"/>
<path d="" fill="#71726F" transform="translate(0,0)"/>
<path d="M0 0 C2 1 2 1 2 1 Z " fill="#727372" transform="translate(498,685)"/>
<path d="" fill="#777878" transform="translate(0,0)"/>
<path d="" fill="#7E827E" transform="translate(0,0)"/>
<path d="" fill="#7C7E7C" transform="translate(0,0)"/>
<path d="" fill="#767976" transform="translate(0,0)"/>
<path d="" fill="#737374" transform="translate(0,0)"/>
<path d="" fill="#7F7F7A" transform="translate(0,0)"/>
<path d="M0 0 C2 1 2 1 2 1 Z " fill="#7F807F" transform="translate(715,673)"/>
<path d="" fill="#858784" transform="translate(0,0)"/>
<path d="" fill="#7A7A79" transform="translate(0,0)"/>
<path d="M0 0 C2 1 2 1 2 1 Z " fill="#656665" transform="translate(534,664)"/>
<path d="M0 0 C2 1 2 1 2 1 Z " fill="#6E706D" transform="translate(496,664)"/>
<path d="M0 0 C2 1 2 1 2 1 Z " fill="#464444" transform="translate(472,612)"/>
<path d="" fill="#3B3838" transform="translate(0,0)"/>
<path d="" fill="#434342" transform="translate(0,0)"/>
<path d="M0 0 C2 1 2 1 2 1 Z " fill="#2C2C2C" transform="translate(496,597)"/>
<path d="M0 0 C2 1 2 1 2 1 Z " fill="#272526" transform="translate(584,576)"/>
<path d="M0 0 C2 1 2 1 2 1 Z " fill="#333232" transform="translate(636,563)"/>
<path d="M0 0 C2 1 2 1 2 1 Z " fill="#202120" transform="translate(603,560)"/>
<path d="" fill="#202120" transform="translate(0,0)"/>
<path d="M0 0 C2 1 2 1 2 1 Z " fill="#1E1F1F" transform="translate(608,552)"/>
<path d="M0 0 C2 1 2 1 2 1 Z " fill="#1F1E1F" transform="translate(424,538)"/>
<path d="M0 0 C2 1 2 1 2 1 Z " fill="#1E201F" transform="translate(627,537)"/>
<path d="M0 0 C2 1 2 1 2 1 Z " fill="#222324" transform="translate(368,536)"/>
<path d="M0 0 C2 1 2 1 2 1 Z " fill="#1A1A1A" transform="translate(547,521)"/>
<path d="" fill="#171718" transform="translate(0,0)"/>
<path d="M0 0 C2 1 2 1 2 1 Z " fill="#191817" transform="translate(468,520)"/>
<path d="M0 0 C2 1 2 1 2 1 Z " fill="#2A2A29" transform="translate(676,519)"/>
<path d="M0 0 C2 1 2 1 2 1 Z " fill="#212121" transform="translate(652,514)"/>
<path d="M0 0 C2 1 2 1 2 1 Z " fill="#1A1C1A" transform="translate(389,511)"/>
<path d="" fill="#1B1A1A" transform="translate(0,0)"/>
<path d="M0 0 C2 1 2 1 2 1 Z " fill="#181819" transform="translate(402,509)"/>
<path d="M0 0 C2 1 2 1 2 1 Z " fill="#1A1B1A" transform="translate(617,508)"/>
<path d="" fill="#1F2020" transform="translate(0,0)"/>
<path d="M0 0 C2 1 2 1 2 1 Z " fill="#181918" transform="translate(568,501)"/>
<path d="M0 0 C2 1 2 1 2 1 Z " fill="#181817" transform="translate(553,500)"/>
<path d="" fill="#1F1E1D" transform="translate(0,0)"/>
<path d="M0 0 C2 1 2 1 2 1 Z " fill="#121311" transform="translate(502,498)"/>
<path d="M0 0 C2 1 2 1 2 1 Z " fill="#1C1D1A" transform="translate(352,491)"/>
<path d="" fill="#262624" transform="translate(0,0)"/>
<path d="" fill="#1E1E1D" transform="translate(0,0)"/>
<path d="" fill="#1A1A1A" transform="translate(0,0)"/>
<path d="" fill="#1B191A" transform="translate(0,0)"/>
<path d="" fill="#171815" transform="translate(0,0)"/>
<path d="" fill="#181818" transform="translate(0,0)"/>
<path d="" fill="#151717" transform="translate(0,0)"/>
<path d="" fill="#181916" transform="translate(0,0)"/>
<path d="" fill="#141314" transform="translate(0,0)"/>
<path d="M0 0 C2 1 2 1 2 1 Z " fill="#1D1D1C" transform="translate(670,406)"/>
<path d="M0 0 C2 1 2 1 2 1 Z " fill="#131312" transform="translate(456,404)"/>
<path d="" fill="#1A1919" transform="translate(0,0)"/>
<path d="" fill="#1A1A18" transform="translate(0,0)"/>
<path d="M0 0 C2 1 2 1 2 1 Z " fill="#151514" transform="translate(560,384)"/>
<path d="" fill="#141413" transform="translate(0,0)"/>
<path d="M0 0 C2 1 2 1 2 1 Z " fill="#131313" transform="translate(545,359)"/>
<path d="M0 0 C2 1 2 1 2 1 Z " fill="#111211" transform="translate(536,345)"/>
<path d="M0 0 C2 1 2 1 2 1 Z " fill="#121211" transform="translate(505,339)"/>
<path d="M0 0 C2 1 2 1 2 1 Z " fill="#121311" transform="translate(524,326)"/>
<path d="M0 0 C2 1 2 1 2 1 Z " fill="#121211" transform="translate(520,325)"/>
<path d="M0 0 C2 1 2 1 2 1 Z " fill="#121211" transform="translate(521,323)"/>
<path d="" fill="#141313" transform="translate(0,0)"/>
<path d="M0 0 C2 1 2 1 2 1 Z " fill="#151716" transform="translate(464,267)"/>
<path d="" fill="#151515" transform="translate(0,0)"/>
<path d="" fill="#171716" transform="translate(0,0)"/>
<path d="" fill="#565755" transform="translate(0,0)"/>
<path d="" fill="#7E7D7C" transform="translate(0,0)"/>
<path d="" fill="#7F7E7C" transform="translate(0,0)"/>
<path d="" fill="#8F8F8C" transform="translate(0,0)"/>
<path d="" fill="#787977" transform="translate(0,0)"/>
<path d="" fill="#868582" transform="translate(0,0)"/>
<path d="" fill="#8D8D8A" transform="translate(0,0)"/>
<path d="" fill="#7C7B79" transform="translate(0,0)"/>
<path d="" fill="#7E807C" transform="translate(0,0)"/>
<path d="" fill="#858784" transform="translate(0,0)"/>
<path d="" fill="#868884" transform="translate(0,0)"/>
<path d="" fill="#8C8C8B" transform="translate(0,0)"/>
<path d="" fill="#8C8D8B" transform="translate(0,0)"/>
<path d="" fill="#8D8E8B" transform="translate(0,0)"/>
<path d="" fill="#7F7C7C" transform="translate(0,0)"/>
<path d="" fill="#8A8886" transform="translate(0,0)"/>
<path d="" fill="#878B87" transform="translate(0,0)"/>
<path d="" fill="#868784" transform="translate(0,0)"/>
<path d="" fill="#878686" transform="translate(0,0)"/>
<path d="" fill="#888887" transform="translate(0,0)"/>
<path d="" fill="#8A8D8B" transform="translate(0,0)"/>
<path d="" fill="#848683" transform="translate(0,0)"/>
<path d="" fill="#8B8787" transform="translate(0,0)"/>
<path d="" fill="#858684" transform="translate(0,0)"/>
<path d="" fill="#868685" transform="translate(0,0)"/>
<path d="" fill="#83827E" transform="translate(0,0)"/>
<path d="" fill="#7C7D7C" transform="translate(0,0)"/>
<path d="" fill="#7D7D7C" transform="translate(0,0)"/>
<path d="" fill="#818280" transform="translate(0,0)"/>
<path d="" fill="#7C7E7B" transform="translate(0,0)"/>
<path d="" fill="#7A7877" transform="translate(0,0)"/>
<path d="" fill="#81827E" transform="translate(0,0)"/>
<path d="" fill="#7A7B7A" transform="translate(0,0)"/>
<path d="" fill="#838583" transform="translate(0,0)"/>
<path d="" fill="#828280" transform="translate(0,0)"/>
<path d="" fill="#868384" transform="translate(0,0)"/>
<path d="" fill="#817F7B" transform="translate(0,0)"/>
<path d="" fill="#808280" transform="translate(0,0)"/>
<path d="" fill="#808383" transform="translate(0,0)"/>
<path d="" fill="#7F7F7C" transform="translate(0,0)"/>
<path d="" fill="#767675" transform="translate(0,0)"/>
<path d="" fill="#80817E" transform="translate(0,0)"/>
<path d="" fill="#7F7E7C" transform="translate(0,0)"/>
<path d="" fill="#757472" transform="translate(0,0)"/>
<path d="" fill="#757572" transform="translate(0,0)"/>
<path d="" fill="#828280" transform="translate(0,0)"/>
<path d="" fill="#858786" transform="translate(0,0)"/>
<path d="" fill="#7A7A7A" transform="translate(0,0)"/>
<path d="" fill="#707170" transform="translate(0,0)"/>
<path d="" fill="#757474" transform="translate(0,0)"/>
<path d="" fill="#797A7A" transform="translate(0,0)"/>
<path d="" fill="#848682" transform="translate(0,0)"/>
<path d="" fill="#6E706E" transform="translate(0,0)"/>
<path d="" fill="#757574" transform="translate(0,0)"/>
<path d="" fill="#6F6F70" transform="translate(0,0)"/>
<path d="" fill="#868482" transform="translate(0,0)"/>
<path d="" fill="#717371" transform="translate(0,0)"/>
<path d="" fill="#717171" transform="translate(0,0)"/>
<path d="" fill="#80817F" transform="translate(0,0)"/>
<path d="" fill="#6E6F6F" transform="translate(0,0)"/>
<path d="" fill="#747571" transform="translate(0,0)"/>
<path d="" fill="#848280" transform="translate(0,0)"/>
<path d="" fill="#71736F" transform="translate(0,0)"/>
<path d="" fill="#7D7D79" transform="translate(0,0)"/>
<path d="" fill="#737070" transform="translate(0,0)"/>
<path d="" fill="#7E7D7C" transform="translate(0,0)"/>
<path d="" fill="#7B7C7A" transform="translate(0,0)"/>
<path d="" fill="#82817F" transform="translate(0,0)"/>
<path d="" fill="#7A7B78" transform="translate(0,0)"/>
<path d="" fill="#7D7C7A" transform="translate(0,0)"/>
<path d="" fill="#7D7D7B" transform="translate(0,0)"/>
<path d="" fill="#7B7E7C" transform="translate(0,0)"/>
<path d="" fill="#82817F" transform="translate(0,0)"/>
<path d="" fill="#7B7B79" transform="translate(0,0)"/>
<path d="" fill="#7D7E7D" transform="translate(0,0)"/>
<path d="" fill="#7F8080" transform="translate(0,0)"/>
<path d="" fill="#6F7270" transform="translate(0,0)"/>
<path d="" fill="#71706F" transform="translate(0,0)"/>
<path d="" fill="#7A7B78" transform="translate(0,0)"/>
<path d="" fill="#7C7D7A" transform="translate(0,0)"/>
<path d="" fill="#6E6C6C" transform="translate(0,0)"/>
<path d="" fill="#6C6C6A" transform="translate(0,0)"/>
<path d="" fill="#7E7E7D" transform="translate(0,0)"/>
<path d="" fill="#6E6C6B" transform="translate(0,0)"/>
<path d="" fill="#6D6B6B" transform="translate(0,0)"/>
<path d="" fill="#85827F" transform="translate(0,0)"/>
<path d="" fill="#80817C" transform="translate(0,0)"/>
<path d="" fill="#727371" transform="translate(0,0)"/>
<path d="" fill="#787A75" transform="translate(0,0)"/>
<path d="" fill="#7E7F7E" transform="translate(0,0)"/>
<path d="" fill="#6E7270" transform="translate(0,0)"/>
<path d="" fill="#797A7A" transform="translate(0,0)"/>
<path d="" fill="#818080" transform="translate(0,0)"/>
<path d="" fill="#7E7C7B" transform="translate(0,0)"/>
<path d="" fill="#80807F" transform="translate(0,0)"/>
<path d="" fill="#6F7171" transform="translate(0,0)"/>
<path d="" fill="#777B77" transform="translate(0,0)"/>
<path d="" fill="#82817F" transform="translate(0,0)"/>
<path d="" fill="#797976" transform="translate(0,0)"/>
<path d="" fill="#807F7C" transform="translate(0,0)"/>
<path d="" fill="#787B79" transform="translate(0,0)"/>
<path d="" fill="#7C7C79" transform="translate(0,0)"/>
<path d="" fill="#7D7D7B" transform="translate(0,0)"/>
<path d="" fill="#727273" transform="translate(0,0)"/>
<path d="" fill="#6C6C68" transform="translate(0,0)"/>
<path d="" fill="#696766" transform="translate(0,0)"/>
<path d="" fill="#7A7975" transform="translate(0,0)"/>
<path d="" fill="#7C7D7D" transform="translate(0,0)"/>
<path d="" fill="#7B7C7A" transform="translate(0,0)"/>
<path d="" fill="#7B7A78" transform="translate(0,0)"/>
<path d="" fill="#7A7B7B" transform="translate(0,0)"/>
<path d="" fill="#7D7B7B" transform="translate(0,0)"/>
<path d="" fill="#807E7E" transform="translate(0,0)"/>
<path d="" fill="#6B6967" transform="translate(0,0)"/>
<path d="" fill="#7B7D7B" transform="translate(0,0)"/>
<path d="" fill="#787976" transform="translate(0,0)"/>
<path d="" fill="#777879" transform="translate(0,0)"/>
<path d="" fill="#707173" transform="translate(0,0)"/>
<path d="" fill="#6D6C6C" transform="translate(0,0)"/>
<path d="" fill="#666867" transform="translate(0,0)"/>
<path d="" fill="#737473" transform="translate(0,0)"/>
<path d="" fill="#7B7A78" transform="translate(0,0)"/>
<path d="" fill="#7B7C7A" transform="translate(0,0)"/>
<path d="" fill="#7A7B7B" transform="translate(0,0)"/>
<path d="" fill="#6C6C69" transform="translate(0,0)"/>
<path d="" fill="#80817E" transform="translate(0,0)"/>
<path d="" fill="#757673" transform="translate(0,0)"/>
<path d="" fill="#6D6D6D" transform="translate(0,0)"/>
<path d="" fill="#7E7E7D" transform="translate(0,0)"/>
<path d="" fill="#6C6D6A" transform="translate(0,0)"/>
<path d="" fill="#7D7C79" transform="translate(0,0)"/>
<path d="" fill="#7B7D7A" transform="translate(0,0)"/>
<path d="" fill="#7B7B7C" transform="translate(0,0)"/>
<path d="" fill="#7E7C7C" transform="translate(0,0)"/>
<path d="" fill="#6E6D6A" transform="translate(0,0)"/>
<path d="" fill="#797A78" transform="translate(0,0)"/>
<path d="" fill="#7A7B78" transform="translate(0,0)"/>
<path d="" fill="#7F7F7B" transform="translate(0,0)"/>
<path d="" fill="#7D7C7C" transform="translate(0,0)"/>
<path d="" fill="#7D7C7A" transform="translate(0,0)"/>
<path d="" fill="#797979" transform="translate(0,0)"/>
<path d="" fill="#7B7A79" transform="translate(0,0)"/>
<path d="" fill="#797779" transform="translate(0,0)"/>
<path d="" fill="#757172" transform="translate(0,0)"/>
<path d="" fill="#787879" transform="translate(0,0)"/>
<path d="" fill="#767374" transform="translate(0,0)"/>
<path d="" fill="#797678" transform="translate(0,0)"/>
<path d="" fill="#727372" transform="translate(0,0)"/>
<path d="" fill="#767777" transform="translate(0,0)"/>
<path d="" fill="#7F7E7C" transform="translate(0,0)"/>
<path d="" fill="#787A77" transform="translate(0,0)"/>
<path d="" fill="#7A7C79" transform="translate(0,0)"/>
<path d="" fill="#797A79" transform="translate(0,0)"/>
<path d="" fill="#7A7B77" transform="translate(0,0)"/>
<path d="" fill="#767675" transform="translate(0,0)"/>
<path d="" fill="#767774" transform="translate(0,0)"/>
<path d="" fill="#7A7978" transform="translate(0,0)"/>
<path d="" fill="#7B7B79" transform="translate(0,0)"/>
<path d="" fill="#787978" transform="translate(0,0)"/>
<path d="" fill="#747572" transform="translate(0,0)"/>
<path d="" fill="#757575" transform="translate(0,0)"/>
<path d="" fill="#71716F" transform="translate(0,0)"/>
<path d="" fill="#797976" transform="translate(0,0)"/>
<path d="" fill="#7E807B" transform="translate(0,0)"/>
<path d="" fill="#727673" transform="translate(0,0)"/>
<path d="" fill="#747674" transform="translate(0,0)"/>
<path d="" fill="#7A7C79" transform="translate(0,0)"/>
<path d="" fill="#7A7D7A" transform="translate(0,0)"/>
<path d="" fill="#727372" transform="translate(0,0)"/>
<path d="" fill="#737676" transform="translate(0,0)"/>
<path d="" fill="#787975" transform="translate(0,0)"/>
<path d="" fill="#716F6D" transform="translate(0,0)"/>
<path d="" fill="#797B78" transform="translate(0,0)"/>
<path d="" fill="#797878" transform="translate(0,0)"/>
<path d="" fill="#6F7470" transform="translate(0,0)"/>
<path d="" fill="#7B7A78" transform="translate(0,0)"/>
<path d="" fill="#747472" transform="translate(0,0)"/>
<path d="" fill="#81827E" transform="translate(0,0)"/>
<path d="" fill="#72726F" transform="translate(0,0)"/>
<path d="" fill="#7A7A78" transform="translate(0,0)"/>
<path d="" fill="#767775" transform="translate(0,0)"/>
<path d="" fill="#78787A" transform="translate(0,0)"/>
<path d="" fill="#80807F" transform="translate(0,0)"/>
<path d="" fill="#807F7D" transform="translate(0,0)"/>
<path d="" fill="#787A78" transform="translate(0,0)"/>
<path d="" fill="#7E7E7A" transform="translate(0,0)"/>
<path d="" fill="#7C7C7B" transform="translate(0,0)"/>
<path d="" fill="#7F8181" transform="translate(0,0)"/>
<path d="" fill="#797D78" transform="translate(0,0)"/>
<path d="" fill="#7C7B7B" transform="translate(0,0)"/>
<path d="" fill="#7A7A7A" transform="translate(0,0)"/>
<path d="" fill="#70716F" transform="translate(0,0)"/>
<path d="" fill="#7E817D" transform="translate(0,0)"/>
<path d="" fill="#717370" transform="translate(0,0)"/>
<path d="" fill="#7E817D" transform="translate(0,0)"/>
<path d="" fill="#6D6C6B" transform="translate(0,0)"/>
<path d="" fill="#6F6E6F" transform="translate(0,0)"/>
<path d="" fill="#6E706F" transform="translate(0,0)"/>
<path d="" fill="#7C7C7B" transform="translate(0,0)"/>
<path d="" fill="#838381" transform="translate(0,0)"/>
<path d="" fill="#7A7979" transform="translate(0,0)"/>
<path d="" fill="#828482" transform="translate(0,0)"/>
<path d="" fill="#81807F" transform="translate(0,0)"/>
<path d="" fill="#676767" transform="translate(0,0)"/>
<path d="" fill="#7E7E7D" transform="translate(0,0)"/>
<path d="" fill="#7B7C7B" transform="translate(0,0)"/>
<path d="" fill="#6C6A6A" transform="translate(0,0)"/>
<path d="" fill="#6B6C68" transform="translate(0,0)"/>
<path d="" fill="#7D7F7B" transform="translate(0,0)"/>
<path d="" fill="#6E6D6D" transform="translate(0,0)"/>
<path d="" fill="#686B68" transform="translate(0,0)"/>
<path d="" fill="#6A6C69" transform="translate(0,0)"/>
<path d="" fill="#6C6C6A" transform="translate(0,0)"/>
<path d="" fill="#7F8383" transform="translate(0,0)"/>
<path d="" fill="#6B6D6B" transform="translate(0,0)"/>
<path d="" fill="#777879" transform="translate(0,0)"/>
<path d="" fill="#6D6C6B" transform="translate(0,0)"/>
<path d="" fill="#4A4B45" transform="translate(0,0)"/>
<path d="" fill="#414342" transform="translate(0,0)"/>
<path d="" fill="#3D3C38" transform="translate(0,0)"/>
<path d="" fill="#353636" transform="translate(0,0)"/>
<path d="" fill="#3A3939" transform="translate(0,0)"/>
<path d="" fill="#3E3C3B" transform="translate(0,0)"/>
<path d="" fill="#444343" transform="translate(0,0)"/>
<path d="" fill="#41403E" transform="translate(0,0)"/>
<path d="" fill="#383636" transform="translate(0,0)"/>
<path d="" fill="#434240" transform="translate(0,0)"/>
<path d="" fill="#343432" transform="translate(0,0)"/>
<path d="" fill="#2F312F" transform="translate(0,0)"/>
<path d="" fill="#2E2E2F" transform="translate(0,0)"/>
<path d="" fill="#424141" transform="translate(0,0)"/>
<path d="" fill="#3F3E3E" transform="translate(0,0)"/>
<path d="" fill="#3D3E3E" transform="translate(0,0)"/>
<path d="" fill="#3C3D3C" transform="translate(0,0)"/>
<path d="" fill="#2B2B2A" transform="translate(0,0)"/>
<path d="" fill="#3E3F3C" transform="translate(0,0)"/>
<path d="" fill="#2B2B2A" transform="translate(0,0)"/>
<path d="" fill="#3B3E3B" transform="translate(0,0)"/>
<path d="" fill="#3A3638" transform="translate(0,0)"/>
<path d="" fill="#2D2C2C" transform="translate(0,0)"/>
<path d="" fill="#3B3C39" transform="translate(0,0)"/>
<path d="" fill="#3D3A37" transform="translate(0,0)"/>
<path d="" fill="#282828" transform="translate(0,0)"/>
<path d="" fill="#353537" transform="translate(0,0)"/>
<path d="" fill="#373837" transform="translate(0,0)"/>
<path d="" fill="#3D3C3B" transform="translate(0,0)"/>
<path d="" fill="#353634" transform="translate(0,0)"/>
<path d="" fill="#383737" transform="translate(0,0)"/>
<path d="" fill="#252523" transform="translate(0,0)"/>
<path d="" fill="#272725" transform="translate(0,0)"/>
<path d="" fill="#222222" transform="translate(0,0)"/>
<path d="" fill="#262625" transform="translate(0,0)"/>
<path d="" fill="#262824" transform="translate(0,0)"/>
<path d="" fill="#363735" transform="translate(0,0)"/>
<path d="" fill="#232021" transform="translate(0,0)"/>
<path d="" fill="#383735" transform="translate(0,0)"/>
<path d="" fill="#373936" transform="translate(0,0)"/>
<path d="" fill="#373535" transform="translate(0,0)"/>
<path d="" fill="#262724" transform="translate(0,0)"/>
<path d="" fill="#393736" transform="translate(0,0)"/>
<path d="" fill="#373536" transform="translate(0,0)"/>
<path d="" fill="#363634" transform="translate(0,0)"/>
<path d="" fill="#242522" transform="translate(0,0)"/>
<path d="" fill="#232321" transform="translate(0,0)"/>
<path d="" fill="#252725" transform="translate(0,0)"/>
<path d="" fill="#232424" transform="translate(0,0)"/>
<path d="" fill="#20201E" transform="translate(0,0)"/>
<path d="" fill="#32302E" transform="translate(0,0)"/>
<path d="" fill="#343432" transform="translate(0,0)"/>
<path d="" fill="#222220" transform="translate(0,0)"/>
<path d="" fill="#302F2E" transform="translate(0,0)"/>
<path d="" fill="#343233" transform="translate(0,0)"/>
<path d="" fill="#1E1C1C" transform="translate(0,0)"/>
<path d="" fill="#323130" transform="translate(0,0)"/>
<path d="" fill="#202121" transform="translate(0,0)"/>
<path d="" fill="#353535" transform="translate(0,0)"/>
<path d="" fill="#323231" transform="translate(0,0)"/>
<path d="" fill="#202021" transform="translate(0,0)"/>
<path d="" fill="#201E20" transform="translate(0,0)"/>
<path d="" fill="#323133" transform="translate(0,0)"/>
<path d="" fill="#1F2020" transform="translate(0,0)"/>
<path d="" fill="#222223" transform="translate(0,0)"/>
<path d="" fill="#2F3231" transform="translate(0,0)"/>
<path d="" fill="#1F211E" transform="translate(0,0)"/>
<path d="" fill="#333333" transform="translate(0,0)"/>
<path d="" fill="#2F302D" transform="translate(0,0)"/>
<path d="" fill="#21211E" transform="translate(0,0)"/>
<path d="" fill="#1D201E" transform="translate(0,0)"/>
<path d="" fill="#22221F" transform="translate(0,0)"/>
<path d="" fill="#313030" transform="translate(0,0)"/>
<path d="" fill="#21201E" transform="translate(0,0)"/>
<path d="" fill="#212120" transform="translate(0,0)"/>
<path d="" fill="#1E1F1E" transform="translate(0,0)"/>
<path d="" fill="#1D1D1E" transform="translate(0,0)"/>
<path d="" fill="#30342F" transform="translate(0,0)"/>
<path d="" fill="#353233" transform="translate(0,0)"/>
<path d="" fill="#1D1D1C" transform="translate(0,0)"/>
<path d="" fill="#353532" transform="translate(0,0)"/>
<path d="" fill="#30332E" transform="translate(0,0)"/>
<path d="" fill="#1F1D1D" transform="translate(0,0)"/>
<path d="" fill="#20201D" transform="translate(0,0)"/>
<path d="" fill="#343536" transform="translate(0,0)"/>
<path d="" fill="#201F1F" transform="translate(0,0)"/>
<path d="" fill="#1F2120" transform="translate(0,0)"/>
<path d="" fill="#1F211C" transform="translate(0,0)"/>
<path d="" fill="#1D1E1D" transform="translate(0,0)"/>
<path d="" fill="#2E302E" transform="translate(0,0)"/>
<path d="" fill="#2E3030" transform="translate(0,0)"/>
<path d="" fill="#202120" transform="translate(0,0)"/>
<path d="" fill="#282828" transform="translate(0,0)"/>
<path d="" fill="#282724" transform="translate(0,0)"/>
<path d="" fill="#292A2B" transform="translate(0,0)"/>
<path d="" fill="#1D1D1C" transform="translate(0,0)"/>
<path d="" fill="#1F1D1F" transform="translate(0,0)"/>
<path d="" fill="#191917" transform="translate(0,0)"/>
<path d="" fill="#1B1C1C" transform="translate(0,0)"/>
<path d="" fill="#1C1919" transform="translate(0,0)"/>
<path d="" fill="#1D1E1B" transform="translate(0,0)"/>
<path d="" fill="#1A1918" transform="translate(0,0)"/>
<path d="" fill="#191B1A" transform="translate(0,0)"/>
<path d="" fill="#1B1A1A" transform="translate(0,0)"/>
<path d="" fill="#171A18" transform="translate(0,0)"/>
<path d="" fill="#17191A" transform="translate(0,0)"/>
<path d="" fill="#151515" transform="translate(0,0)"/>
<path d="" fill="#151716" transform="translate(0,0)"/>
<path d="" fill="#181818" transform="translate(0,0)"/>
<path d="" fill="#2E2D2D" transform="translate(0,0)"/>
<path d="" fill="#232022" transform="translate(0,0)"/>
<path d="" fill="#20211F" transform="translate(0,0)"/>
<path d="" fill="#303130" transform="translate(0,0)"/>
<path d="" fill="#272726" transform="translate(0,0)"/>
<path d="" fill="#313031" transform="translate(0,0)"/>
<path d="" fill="#252423" transform="translate(0,0)"/>
<path d="" fill="#212020" transform="translate(0,0)"/>
<path d="" fill="#222020" transform="translate(0,0)"/>
<path d="" fill="#30302E" transform="translate(0,0)"/>
<path d="" fill="#292A2B" transform="translate(0,0)"/>
<path d="" fill="#2A2828" transform="translate(0,0)"/>
<path d="" fill="#282828" transform="translate(0,0)"/>
<path d="" fill="#262725" transform="translate(0,0)"/>
<path d="" fill="#1D1E1A" transform="translate(0,0)"/>
<path d="" fill="#1C1E1C" transform="translate(0,0)"/>
<path d="" fill="#1A1919" transform="translate(0,0)"/>
<path d="" fill="#191A1A" transform="translate(0,0)"/>
<path d="" fill="#212021" transform="translate(0,0)"/>
<path d="" fill="#232524" transform="translate(0,0)"/>
<path d="" fill="#181817" transform="translate(0,0)"/>
<path d="" fill="#161717" transform="translate(0,0)"/>
<path d="" fill="#2A2A2B" transform="translate(0,0)"/>
<path d="" fill="#21201F" transform="translate(0,0)"/>
<path d="" fill="#151817" transform="translate(0,0)"/>
<path d="" fill="#181817" transform="translate(0,0)"/>
<path d="" fill="#191817" transform="translate(0,0)"/>
<path d="" fill="#191817" transform="translate(0,0)"/>
<path d="" fill="#171618" transform="translate(0,0)"/>
<path d="" fill="#2C2B2A" transform="translate(0,0)"/>
<path d="" fill="#191919" transform="translate(0,0)"/>
<path d="" fill="#171716" transform="translate(0,0)"/>
<path d="" fill="#21211F" transform="translate(0,0)"/>
<path d="" fill="#171816" transform="translate(0,0)"/>
<path d="" fill="#141514" transform="translate(0,0)"/>
<path d="" fill="#161514" transform="translate(0,0)"/>
<path d="" fill="#1F1F1E" transform="translate(0,0)"/>
<path d="" fill="#1B1B19" transform="translate(0,0)"/>
<path d="" fill="#242526" transform="translate(0,0)"/>
<path d="" fill="#252724" transform="translate(0,0)"/>
<path d="" fill="#1D1E1E" transform="translate(0,0)"/>
<path d="" fill="#1D1D1E" transform="translate(0,0)"/>
<path d="" fill="#1D1D1A" transform="translate(0,0)"/>
<path d="" fill="#222322" transform="translate(0,0)"/>
<path d="" fill="#232725" transform="translate(0,0)"/>
<path d="" fill="#1B1B1C" transform="translate(0,0)"/>
<path d="" fill="#1C1D1B" transform="translate(0,0)"/>
<path d="" fill="#1C1D1C" transform="translate(0,0)"/>
<path d="" fill="#252725" transform="translate(0,0)"/>
<path d="" fill="#171A17" transform="translate(0,0)"/>
<path d="" fill="#222324" transform="translate(0,0)"/>
<path d="" fill="#1A1A18" transform="translate(0,0)"/>
<path d="" fill="#181A19" transform="translate(0,0)"/>
<path d="" fill="#1E201E" transform="translate(0,0)"/>
<path d="" fill="#191A1A" transform="translate(0,0)"/>
<path d="" fill="#191B19" transform="translate(0,0)"/>
<path d="" fill="#221F21" transform="translate(0,0)"/>
<path d="" fill="#1B1A1A" transform="translate(0,0)"/>
<path d="" fill="#181815" transform="translate(0,0)"/>
<path d="" fill="#1B1A18" transform="translate(0,0)"/>
<path d="" fill="#1D1E1B" transform="translate(0,0)"/>
<path d="" fill="#181718" transform="translate(0,0)"/>
<path d="" fill="#1D1B19" transform="translate(0,0)"/>
<path d="" fill="#19181A" transform="translate(0,0)"/>
<path d="" fill="#1A1B19" transform="translate(0,0)"/>
<path d="" fill="#181A1B" transform="translate(0,0)"/>
<path d="" fill="#1D1D1C" transform="translate(0,0)"/>
<path d="" fill="#181717" transform="translate(0,0)"/>
<path d="" fill="#171819" transform="translate(0,0)"/>
<path d="" fill="#1B1B1B" transform="translate(0,0)"/>
<path d="" fill="#181919" transform="translate(0,0)"/>
<path d="" fill="#191819" transform="translate(0,0)"/>
<path d="" fill="#161818" transform="translate(0,0)"/>
<path d="" fill="#191718" transform="translate(0,0)"/>
<path d="" fill="#161715" transform="translate(0,0)"/>
<path d="" fill="#191918" transform="translate(0,0)"/>
<path d="" fill="#191B1B" transform="translate(0,0)"/>
<path d="" fill="#171916" transform="translate(0,0)"/>
<path d="" fill="#161717" transform="translate(0,0)"/>
<path d="" fill="#1B1C1B" transform="translate(0,0)"/>
<path d="" fill="#1A1B1C" transform="translate(0,0)"/>
<path d="" fill="#181817" transform="translate(0,0)"/>
<path d="" fill="#171A17" transform="translate(0,0)"/>
<path d="" fill="#151616" transform="translate(0,0)"/>
<path d="" fill="#191716" transform="translate(0,0)"/>
<path d="" fill="#161716" transform="translate(0,0)"/>
<path d="" fill="#131312" transform="translate(0,0)"/>
<path d="" fill="#171919" transform="translate(0,0)"/>
<path d="" fill="#141415" transform="translate(0,0)"/>
<path d="" fill="#1A1D1C" transform="translate(0,0)"/>
<path d="" fill="#151413" transform="translate(0,0)"/>
<path d="" fill="#171615" transform="translate(0,0)"/>
<path d="" fill="#1B1B1A" transform="translate(0,0)"/>
<path d="" fill="#181815" transform="translate(0,0)"/>
<path d="" fill="#161514" transform="translate(0,0)"/>
<path d="" fill="#161513" transform="translate(0,0)"/>
<path d="" fill="#121413" transform="translate(0,0)"/>
<path d="" fill="#181615" transform="translate(0,0)"/>
<path d="" fill="#1D1C19" transform="translate(0,0)"/>
<path d="" fill="#141414" transform="translate(0,0)"/>
<path d="" fill="#171615" transform="translate(0,0)"/>
<path d="" fill="#181B19" transform="translate(0,0)"/>
<path d="" fill="#1C1B1C" transform="translate(0,0)"/>
<path d="" fill="#161514" transform="translate(0,0)"/>
<path d="" fill="#161716" transform="translate(0,0)"/>
<path d="" fill="#1A181A" transform="translate(0,0)"/>
<path d="" fill="#141514" transform="translate(0,0)"/>
<path d="" fill="#121213" transform="translate(0,0)"/>
<path d="" fill="#1D1E1B" transform="translate(0,0)"/>
<path d="" fill="#141411" transform="translate(0,0)"/>
<path d="" fill="#1C1B19" transform="translate(0,0)"/>
<path d="" fill="#171413" transform="translate(0,0)"/>
<path d="" fill="#191A19" transform="translate(0,0)"/>
<path d="" fill="#161514" transform="translate(0,0)"/>
<path d="" fill="#1A1B1A" transform="translate(0,0)"/>
<path d="" fill="#181917" transform="translate(0,0)"/>
<path d="" fill="#151414" transform="translate(0,0)"/>
<path d="" fill="#171513" transform="translate(0,0)"/>
<path d="" fill="#171918" transform="translate(0,0)"/>
<path d="" fill="#131413" transform="translate(0,0)"/>
<path d="" fill="#151716" transform="translate(0,0)"/>
<path d="" fill="#191A1B" transform="translate(0,0)"/>
<path d="" fill="#1A1A1A" transform="translate(0,0)"/>
<path d="" fill="#12130F" transform="translate(0,0)"/>
<path d="" fill="#121313" transform="translate(0,0)"/>
<path d="" fill="#191B19" transform="translate(0,0)"/>
<path d="" fill="#151614" transform="translate(0,0)"/>
<path d="" fill="#181917" transform="translate(0,0)"/>
<path d="" fill="#1A1919" transform="translate(0,0)"/>
<path d="" fill="#1D1C1C" transform="translate(0,0)"/>
<path d="" fill="#171614" transform="translate(0,0)"/>
<path d="" fill="#111113" transform="translate(0,0)"/>
<path d="" fill="#161614" transform="translate(0,0)"/>
<path d="" fill="#151214" transform="translate(0,0)"/>
<path d="" fill="#191918" transform="translate(0,0)"/>
<path d="" fill="#0F1212" transform="translate(0,0)"/>
<path d="" fill="#1A1C1B" transform="translate(0,0)"/>
<path d="" fill="#111013" transform="translate(0,0)"/>
<path d="" fill="#1B191A" transform="translate(0,0)"/>
<path d="" fill="#141412" transform="translate(0,0)"/>
<path d="" fill="#161615" transform="translate(0,0)"/>
<path d="" fill="#1B191A" transform="translate(0,0)"/>
<path d="" fill="#181717" transform="translate(0,0)"/>
<path d="" fill="#181516" transform="translate(0,0)"/>
<path d="" fill="#181818" transform="translate(0,0)"/>
<path d="" fill="#141414" transform="translate(0,0)"/>
<path d="" fill="#171716" transform="translate(0,0)"/>
<path d="" fill="#1A1B1A" transform="translate(0,0)"/>
<path d="" fill="#131311" transform="translate(0,0)"/>
<path d="" fill="#151518" transform="translate(0,0)"/>
<path d="" fill="#131512" transform="translate(0,0)"/>
<path d="" fill="#1A1B1A" transform="translate(0,0)"/>
<path d="" fill="#19191A" transform="translate(0,0)"/>
<path d="" fill="#181615" transform="translate(0,0)"/>
<path d="" fill="#1C1B1A" transform="translate(0,0)"/>
<path d="" fill="#151514" transform="translate(0,0)"/>
<path d="" fill="#131414" transform="translate(0,0)"/>
<path d="" fill="#191818" transform="translate(0,0)"/>
<path d="" fill="#141314" transform="translate(0,0)"/>
<path d="" fill="#131514" transform="translate(0,0)"/>
<path d="" fill="#171718" transform="translate(0,0)"/>
<path d="" fill="#181A1A" transform="translate(0,0)"/>
<path d="" fill="#1A1C1C" transform="translate(0,0)"/>
<path d="" fill="#1A1A19" transform="translate(0,0)"/>
<path d="" fill="#151415" transform="translate(0,0)"/>
<path d="" fill="#1C1A1A" transform="translate(0,0)"/>
<path d="" fill="#161413" transform="translate(0,0)"/>
<path d="" fill="#1A1B19" transform="translate(0,0)"/>
<path d="" fill="#1A1B19" transform="translate(0,0)"/>
<path d="" fill="#131614" transform="translate(0,0)"/>
<path d="" fill="#111010" transform="translate(0,0)"/>
<path d="" fill="#1B1C1B" transform="translate(0,0)"/>
<path d="" fill="#191A18" transform="translate(0,0)"/>
<path d="" fill="#1B1717" transform="translate(0,0)"/>
<path d="" fill="#181717" transform="translate(0,0)"/>
<path d="" fill="#111211" transform="translate(0,0)"/>
<path d="" fill="#151613" transform="translate(0,0)"/>
<path d="" fill="#161917" transform="translate(0,0)"/>
<path d="" fill="#1D1D1C" transform="translate(0,0)"/>
<path d="" fill="#171A19" transform="translate(0,0)"/>
<path d="" fill="#141413" transform="translate(0,0)"/>
<path d="" fill="#0F1110" transform="translate(0,0)"/>
<path d="" fill="#0F1011" transform="translate(0,0)"/>
<path d="" fill="#101011" transform="translate(0,0)"/>
<path d="" fill="#131110" transform="translate(0,0)"/>
<path d="" fill="#110F10" transform="translate(0,0)"/>
<path d="" fill="#19191E" transform="translate(0,0)"/>
<path d="" fill="#1A1B1B" transform="translate(0,0)"/>
<path d="" fill="#10110F" transform="translate(0,0)"/>
<path d="" fill="#1C1B1A" transform="translate(0,0)"/>
<path d="" fill="#1B1B19" transform="translate(0,0)"/>
<path d="" fill="#171B19" transform="translate(0,0)"/>
<path d="" fill="#131312" transform="translate(0,0)"/>
<path d="" fill="#181A18" transform="translate(0,0)"/>
<path d="" fill="#1A1B1A" transform="translate(0,0)"/>
<path d="" fill="#191A19" transform="translate(0,0)"/>
<path d="" fill="#1B1A1C" transform="translate(0,0)"/>
<path d="" fill="#1A1C1A" transform="translate(0,0)"/>
<path d="" fill="#191C1B" transform="translate(0,0)"/>
<path d="" fill="#1B1B1A" transform="translate(0,0)"/>
<path d="" fill="#1B1B19" transform="translate(0,0)"/>
<path d="" fill="#1B1C1D" transform="translate(0,0)"/>
<path d="" fill="#171717" transform="translate(0,0)"/>
<path d="" fill="#141314" transform="translate(0,0)"/>
<path d="" fill="#121313" transform="translate(0,0)"/>
<path d="" fill="#202120" transform="translate(0,0)"/>
<path d="" fill="#121511" transform="translate(0,0)"/>
<path d="" fill="#151514" transform="translate(0,0)"/>
<path d="" fill="#181717" transform="translate(0,0)"/>
<path d="" fill="#121313" transform="translate(0,0)"/>
<path d="" fill="#131511" transform="translate(0,0)"/>
<path d="" fill="#151415" transform="translate(0,0)"/>
<path d="" fill="#151615" transform="translate(0,0)"/>
<path d="" fill="#120E0F" transform="translate(0,0)"/>
<path d="" fill="#131313" transform="translate(0,0)"/>
<path d="" fill="#111110" transform="translate(0,0)"/>
<path d="" fill="#141414" transform="translate(0,0)"/>
<path d="" fill="#131413" transform="translate(0,0)"/>
<path d="" fill="#161918" transform="translate(0,0)"/>
<path d="" fill="#131311" transform="translate(0,0)"/>
<path d="" fill="#151413" transform="translate(0,0)"/>
<path d="" fill="#141413" transform="translate(0,0)"/>
<path d="" fill="#141413" transform="translate(0,0)"/>
<path d="" fill="#171916" transform="translate(0,0)"/>
<path d="" fill="#121411" transform="translate(0,0)"/>
<path d="" fill="#141211" transform="translate(0,0)"/>
<path d="" fill="#121312" transform="translate(0,0)"/>
<path d="" fill="#131412" transform="translate(0,0)"/>
<path d="" fill="#131314" transform="translate(0,0)"/>
<path d="" fill="#181917" transform="translate(0,0)"/>
<path d="" fill="#171815" transform="translate(0,0)"/>
<path d="" fill="#171716" transform="translate(0,0)"/>
<path d="" fill="#161718" transform="translate(0,0)"/>
<path d="" fill="#171715" transform="translate(0,0)"/>
<path d="" fill="#131515" transform="translate(0,0)"/>
<path d="" fill="#161714" transform="translate(0,0)"/>
<path d="" fill="#151414" transform="translate(0,0)"/>
<path d="" fill="#171816" transform="translate(0,0)"/>
<path d="" fill="#181415" transform="translate(0,0)"/>
<path d="" fill="#171815" transform="translate(0,0)"/>
<path d="" fill="#151716" transform="translate(0,0)"/>
<path d="" fill="#161515" transform="translate(0,0)"/>
<path d="" fill="#161516" transform="translate(0,0)"/>
<path d="" fill="#171616" transform="translate(0,0)"/>
<path d="" fill="#1A1917" transform="translate(0,0)"/>
<path d="" fill="#1E1F20" transform="translate(0,0)"/>
</svg>
