<?xml version="1.0" encoding="UTF-8"?>
<svg version="1.1" xmlns="http://www.w3.org/2000/svg" width="1024" height="1024">
<path d="M0 0 C0.82371094 0.65484375 1.64742187 1.3096875 2.49609375 1.984375 C3.28886719 2.59796875 4.08164062 3.2115625 4.8984375 3.84375 C9.87039503 7.74395656 14.69302897 11.81704739 19.49609375 15.921875 C20.04112549 16.38754883 20.58615723 16.85322266 21.14770508 17.33300781 C30.08050828 25.01708312 38.68075386 32.98241466 47.01000977 41.31298828 C48.55532441 42.8561103 50.10849821 44.39101806 51.66210938 45.92578125 C58.05963015 52.28766743 63.87371249 58.91644151 69.49609375 65.984375 C70.49035842 67.16740873 71.4906174 68.34546355 72.5 69.515625 C78.18917256 76.11680233 83.48321558 82.84785935 88.49609375 89.984375 C89.42002823 91.28554319 90.34454902 92.58629518 91.26953125 93.88671875 C94.36171032 98.24097058 97.43125482 102.61085283 100.49609375 106.984375 C101.18276123 107.96083984 101.18276123 107.96083984 101.88330078 108.95703125 C115.76066783 128.72530255 128.43089125 149.32903354 140.71582031 170.11621094 C141.75847548 171.88032417 142.80294204 173.6433555 143.84765625 175.40625 C147.10579784 180.90877347 150.34782283 186.41810218 153.49609375 191.984375 C154.18832031 191.86320313 154.88054687 191.74203125 155.59375 191.6171875 C158.89135476 191.05238036 162.19349127 190.51915089 165.49609375 189.984375 C166.57117188 189.79359375 167.64625 189.6028125 168.75390625 189.40625 C194.68315679 185.27174536 222.76582688 186.94832062 244.9921875 202.15234375 C245.81847656 202.75691406 246.64476562 203.36148438 247.49609375 203.984375 C248.31207031 204.57863281 249.12804687 205.17289063 249.96875 205.78515625 C281.04907064 229.57563941 293.5229103 263.33293038 299.49609375 300.984375 C299.60937012 301.6949707 299.72264648 302.40556641 299.83935547 303.13769531 C312.11249206 384.22182993 294.5680097 489.31638019 245.921875 556.25195312 C232.70287444 573.86007496 216.0463164 588.63405621 193.49609375 591.984375 C170.48514248 594.07779006 148.5074059 586.08244058 130.59765625 571.6484375 C129.02307537 570.22889228 127.46583065 568.78953644 125.9375 567.3203125 C123.91476087 565.3849557 121.85727227 563.55330577 119.73828125 561.7265625 C108.71860041 552.13138638 98.39290153 541.57443412 89.49609375 529.984375 C88.39847802 528.59008785 87.29939146 527.19695793 86.19921875 525.8046875 C76.66600732 513.7009114 67.62305267 501.3565092 59.15722656 488.48364258 C56.86756477 485.00654926 54.51643847 481.58348284 52.11328125 478.18359375 C48.51944681 473.06808052 45.14322921 467.83392351 41.80859375 462.546875 C41.20845459 461.59893066 40.60831543 460.65098633 39.98999023 459.67431641 C38.75733487 457.72668521 37.52564062 455.77844538 36.29492188 453.82958984 C34.59097736 451.13445284 32.88067994 448.44347817 31.16796875 445.75390625 C26.33269348 438.14952731 21.57148508 430.53462832 17.09765625 422.7109375 C14.78752015 418.77807166 12.29181636 414.971295 9.78125 411.1640625 C8.49609375 408.984375 8.49609375 408.984375 8.49609375 406.984375 C-11.46304806 402.95658422 -28.06415059 405.54997354 -45.50390625 415.984375 C-46.16390625 416.974375 -46.82390625 417.964375 -47.50390625 418.984375 C-49.15594243 420.00836437 -50.82421013 421.00641859 -52.50390625 421.984375 C-58.44385784 426.72043583 -63.74210373 432.20129038 -69.07641602 437.59375 C-87.27676506 455.99137753 -108.64292771 475.10548047 -135.98242188 475.30664062 C-136.95888672 475.30341797 -137.93535156 475.30019531 -138.94140625 475.296875 C-140.40030273 475.32104492 -140.40030273 475.32104492 -141.88867188 475.34570312 C-155.08896532 475.35452096 -165.52192234 470.62054002 -175.31640625 461.796875 C-183.95407581 452.57782383 -186.88621372 440.54712935 -186.75390625 428.296875 C-186.75003906 427.42272949 -186.74617187 426.54858398 -186.7421875 425.64794922 C-186.66105592 419.5281493 -186.10867765 413.72562762 -184.94140625 407.7109375 C-184.46821559 404.76194573 -184.43354171 401.96607246 -184.50390625 398.984375 C-183.84390625 398.984375 -183.18390625 398.984375 -182.50390625 398.984375 C-182.39820313 397.7365625 -182.2925 396.48875 -182.18359375 395.203125 C-181.53905055 389.47583454 -180.14503302 384.0360301 -178.62890625 378.484375 C-178.32573486 377.37070557 -178.02256348 376.25703613 -177.71020508 375.10961914 C-167.80760865 339.5641505 -154.47168507 305.0738041 -137.6015625 272.25268555 C-136.99441406 271.06412964 -136.99441406 271.06412964 -136.375 269.8515625 C-135.8325061 268.80137939 -135.8325061 268.80137939 -135.27905273 267.72998047 C-134.3686256 265.9980558 -134.3686256 265.9980558 -134.50390625 263.984375 C-133.84390625 263.984375 -133.18390625 263.984375 -132.50390625 263.984375 C-132.14619141 262.98857422 -132.14619141 262.98857422 -131.78125 261.97265625 C-130.16192552 258.18432833 -128.15980397 254.71544994 -126.06640625 251.171875 C-125.63118652 250.43283936 -125.1959668 249.69380371 -124.74755859 248.93237305 C-120.38895517 241.63004548 -115.61333208 234.64039832 -110.69628906 227.70556641 C-109.51928199 226.00656971 -108.41456388 224.27310176 -107.30859375 222.52734375 C-106.71304688 221.68816406 -106.1175 220.84898437 -105.50390625 219.984375 C-104.84390625 219.984375 -104.18390625 219.984375 -103.50390625 219.984375 C-103.24480469 219.4171875 -102.98570312 218.85 -102.71875 218.265625 C-96.15500826 205.94014213 -82.02780729 190.76951554 -70.50390625 182.984375 C-69.84390625 182.984375 -69.18390625 182.984375 -68.50390625 182.984375 C-69.18672328 177.54627646 -69.87503496 172.10889136 -70.56640625 166.671875 C-70.67450623 165.82103333 -70.7826062 164.97019165 -70.89398193 164.09356689 C-72.57786968 150.87298335 -74.36635558 137.66912859 -76.20849609 124.46972656 C-77.67192275 113.97889457 -79.10346053 103.48379941 -80.50390625 92.984375 C-80.66079926 91.80914276 -80.66079926 91.80914276 -80.82086182 90.61016846 C-82.78585872 75.76719271 -83.77781697 61.06997522 -83.87890625 46.109375 C-83.88703339 45.406987 -83.89516052 44.704599 -83.90353394 43.98092651 C-84.06688851 25.30423685 -81.05552245 5.83713823 -67.50390625 -8.015625 C-46.71598885 -26.7406193 -19.43786861 -14.90332868 0 0 Z M-41.50390625 73.984375 C-47.34589494 83.46228672 -48.95072746 94.04944553 -49.50390625 104.984375 C-49.56964844 106.26570313 -49.63539063 107.54703125 -49.703125 108.8671875 C-50.07920355 120.67500574 -48.88896469 132.26980959 -47.56640625 143.984375 C-47.4750943 144.79389618 -47.38378235 145.60341736 -47.28970337 146.43746948 C-47.02393123 148.76625913 -46.75214969 151.09422783 -46.4765625 153.421875 C-46.39420349 154.12526505 -46.31184448 154.82865509 -46.22698975 155.55335999 C-45.83644341 158.75933629 -45.39759443 161.87658553 -44.50390625 164.984375 C-43.71693359 164.7678125 -43.71693359 164.7678125 -42.9140625 164.546875 C-34.46097218 162.52150893 -26.13078408 162.72659541 -17.50390625 162.984375 C-16.54871094 163.00242187 -15.59351563 163.02046875 -14.609375 163.0390625 C-8.78186528 163.35915189 -4.06214941 165.16803067 1.2421875 167.5390625 C4.70439999 169.07689998 8.21073409 170.4362634 11.74609375 171.796875 C17.77436844 174.16451961 23.52662864 176.92245293 29.28833008 179.87329102 C36.51467489 183.55440492 43.91778382 186.81659037 51.35668945 190.04174805 C52.8235902 190.68806823 54.28283458 191.3519668 55.73510742 192.03051758 C60.72752121 194.34433725 65.56229521 195.99191579 70.93359375 197.171875 C71.67875244 197.33913086 72.42391113 197.50638672 73.19165039 197.67871094 C88.73974468 201.07176124 104.89086011 201.07233643 120.49609375 197.984375 C116.43590748 189.12128546 111.52853008 181.26027459 106.03515625 173.24462891 C102.98545293 168.76586092 99.99689335 164.24598314 96.99609375 159.734375 C95.79839553 157.93735439 94.60049315 156.14046982 93.40234375 154.34375 C91.76692708 151.890625 90.13151042 149.4375 88.49609375 146.984375 C87.83609375 146.984375 87.17609375 146.984375 86.49609375 146.984375 C86.26792969 146.2934375 86.03976562 145.6025 85.8046875 144.890625 C84.20324031 141.33397812 81.99265169 138.49447645 79.55859375 135.484375 C79.07422852 134.87706543 78.58986328 134.26975586 78.09082031 133.64404297 C73.01772423 127.31822949 67.78501363 121.13006694 62.49609375 114.984375 C61.81289063 114.18773437 61.1296875 113.39109375 60.42578125 112.5703125 C57.24445114 108.89319069 53.97987588 105.38106258 50.49609375 101.984375 C49.97402344 101.45199219 49.45195312 100.91960937 48.9140625 100.37109375 C31.88381677 83.03330408 8.07560662 62.446796 -17.19140625 61.609375 C-27.93392669 61.9514128 -34.37237385 65.83405225 -41.50390625 73.984375 Z M-67.50390625 210.984375 C-68.03290527 211.49291016 -68.5619043 212.00144531 -69.10693359 212.52539062 C-70.78944328 214.14907811 -72.46133555 215.78285607 -74.12890625 217.421875 C-74.66249756 217.94225342 -75.19608887 218.46263184 -75.74584961 218.9987793 C-77.03828997 220.28866921 -78.27645642 221.63249297 -79.50390625 222.984375 C-79.50390625 223.644375 -79.50390625 224.304375 -79.50390625 224.984375 C-80.98890625 225.479375 -80.98890625 225.479375 -82.50390625 225.984375 C-83.86688784 227.37232053 -83.86688784 227.37232053 -85.10546875 229.125 C-85.59136475 229.77718506 -86.07726074 230.42937012 -86.57788086 231.10131836 C-87.34563843 232.1571814 -87.34563843 232.1571814 -88.12890625 233.234375 C-88.92470093 234.31440796 -88.92470093 234.31440796 -89.73657227 235.41625977 C-91.33664582 237.59791565 -92.92317961 239.78866971 -94.50390625 241.984375 C-94.9520166 242.60618652 -95.40012695 243.22799805 -95.86181641 243.86865234 C-99.93159051 249.54987337 -103.86366931 255.2591084 -107.140625 261.44140625 C-108.23550254 263.48371363 -109.36353275 265.49078974 -110.5234375 267.49609375 C-115.69145284 276.45996591 -120.28546129 285.5710165 -124.58056641 294.98193359 C-125.42407181 296.81123855 -126.29651235 298.62713003 -127.171875 300.44140625 C-160.10314955 367.8697173 -160.10314955 367.8697173 -164.31640625 439.484375 C-161.1656994 445.56849857 -157.82762957 449.74346475 -151.41015625 452.2890625 C-137.83209109 455.53757809 -123.54669231 452.54403298 -111.68359375 445.4609375 C-107.4072093 442.56403191 -103.44660306 439.31516526 -99.50390625 435.984375 C-98.31087891 434.994375 -98.31087891 434.994375 -97.09375 433.984375 C-94.21343663 431.57576874 -94.21343663 431.57576874 -91.50390625 428.984375 C-91.50390625 428.324375 -91.50390625 427.664375 -91.50390625 426.984375 C-90.51390625 426.654375 -89.52390625 426.324375 -88.50390625 425.984375 C-86.79160377 424.36462941 -85.13227363 422.6884804 -83.50390625 420.984375 C-82.39973958 419.921875 -81.29557292 418.859375 -80.19140625 417.796875 C-77.27362033 415.3917267 -77.27362033 415.3917267 -77.50390625 412.984375 C-76.93929687 412.74074219 -76.3746875 412.49710938 -75.79296875 412.24609375 C-73.07701557 410.74907519 -71.13111387 408.92803563 -68.87890625 406.796875 C-57.97826906 396.86553645 -44.91990145 388.68613145 -30.50390625 384.984375 C-29.76011719 384.78070313 -29.01632812 384.57703125 -28.25 384.3671875 C-13.66009483 381.03365674 1.3839621 382.72556097 15.91479492 385.34570312 C27.64712784 387.36531196 39.45149558 388.13401482 51.31591797 388.94458008 C84.82086439 391.24493688 115.21765454 395.73256771 142.49609375 416.984375 C143.42421875 417.6959375 144.35234375 418.4075 145.30859375 419.140625 C162.70441435 432.86399458 170.47190846 449.02236739 178.47558594 469.17773438 C186.25213037 488.59453796 197.79842884 509.94213604 217.640625 518.9453125 C222.37159904 520.66684341 225.74383706 521.17736839 230.55078125 519.09375 C252.14718387 506.86937116 259.38688104 472.87077783 265.49609375 450.984375 C265.74343262 450.10378418 265.99077148 449.22319336 266.24560547 448.31591797 C282.54594948 388.94357288 290.22372097 307.2474614 260.5 251.2578125 C249.43356738 233.18048203 234.12405313 219.34539164 213.38671875 213.66015625 C209.67922873 212.79340521 206.30612189 212.23018327 202.49609375 211.984375 C201.76132812 211.9328125 201.0265625 211.88125 200.26953125 211.828125 C182.84815863 211.18089134 165.2718948 216.22267933 148.42602539 220.11523438 C103.41961198 230.47506597 62.68816717 224.90088427 21.49609375 204.984375 C-12.70074887 188.47881535 -37.70844778 182.20416919 -67.50390625 210.984375 Z M39.49609375 410.984375 C41.26038574 415.95647062 43.89001035 420.41875561 46.49609375 424.984375 C47.15609375 424.984375 47.81609375 424.984375 48.49609375 424.984375 C48.769375 425.71527344 49.04265625 426.44617188 49.32421875 427.19921875 C56.22947975 443.6107224 69.71247209 458.93418181 80.49609375 472.984375 C81.3140592 474.0597003 82.13175699 475.13522924 82.94921875 476.2109375 C88.31849627 483.25695128 93.81267853 490.18818754 99.49609375 496.984375 C99.96305664 497.54302246 100.43001953 498.10166992 100.91113281 498.67724609 C106.52820477 505.37565014 112.20351478 511.8724278 118.48046875 517.96875 C120.45125746 519.93953871 122.25742432 521.98367053 124.05859375 524.109375 C127.55298111 528.1622261 131.40535494 531.54843604 135.49609375 534.984375 C136.35847656 535.7578125 137.22085938 536.53125 138.109375 537.328125 C152.81376537 550.22182589 171.41219893 560.77288819 191.49609375 559.984375 C202.82828651 558.40507185 212.19327157 553.74570878 220.49609375 545.984375 C217.69783973 544.52469352 214.89693029 543.37578336 211.93359375 542.296875 C192.21485644 534.40359745 177.92989934 517.7510702 167.93359375 499.5078125 C166.59088063 496.99981966 166.59088063 496.99981966 164.93359375 495.0234375 C163.12887761 492.46348689 162.42169205 489.97336241 161.49609375 486.984375 C160.3158567 483.9628297 159.10368613 480.95596825 157.8828125 477.95068359 C156.16373237 473.69947282 154.56139656 469.42028987 152.99609375 465.109375 C145.06524688 444.55442694 125.47934311 427.99476568 105.62109375 419.171875 C90.06342853 413.15291215 74.62256887 411.87278526 58.12109375 411.421875 C56.64582376 411.37858009 55.1705632 411.33496274 53.6953125 411.29101562 C46.59688137 411.06831433 46.59688137 411.06831433 39.49609375 410.984375 Z " fill="#D23C55" transform="translate(432.50390625,125.015625)"/>
<path d="M0 0 C5.80790325 5.42209998 10.94192796 12.63906677 13.25 20.3125 C12.9639072 21.98792228 12.63586196 23.65720563 12.25 25.3125 C11.5386792 25.51931396 10.8273584 25.72612793 10.09448242 25.93920898 C6.87531272 26.87553695 3.65640369 27.81275796 0.4375 28.75 C-0.68205078 29.07548828 -1.80160156 29.40097656 -2.95507812 29.73632812 C-4.56479492 30.20522461 -4.56479492 30.20522461 -6.20703125 30.68359375 C-7.19678955 30.97161865 -8.18654785 31.25964355 -9.20629883 31.55639648 C-11.06435124 32.10869405 -12.91107308 32.69952436 -14.75 33.3125 C-15.15089844 32.58804688 -15.55179687 31.86359375 -15.96484375 31.1171875 C-20.1589003 23.98443827 -24.53206671 18.42449844 -32.6015625 15.68359375 C-41.34786257 14.17286919 -50.19253214 14.35493027 -57.75 19.3125 C-60.60484511 21.58360728 -60.60484511 21.58360728 -62.75 24.3125 C-63.801875 25.5190625 -63.801875 25.5190625 -64.875 26.75 C-71.36774015 36.96418877 -70.66971012 51.32524408 -68.3828125 62.6953125 C-66.85607186 69.35255012 -66.85607186 69.35255012 -63.15234375 74.90625 C-61.75 76.3125 -61.75 76.3125 -61.75 78.3125 C-60.88375 78.74369141 -60.88375 78.74369141 -60 79.18359375 C-58.57907497 79.89652315 -57.16184749 80.61691488 -55.75 81.34765625 C-55.09 81.68667969 -54.43 82.02570313 -53.75 82.375 C-53.09 82.71660156 -52.43 83.05820312 -51.75 83.41015625 C-47.29606493 85.41964648 -43.2508188 85.47566957 -38.375 85.5 C-37.08851563 85.51417969 -35.80203125 85.52835938 -34.4765625 85.54296875 C-29.79317727 85.25332543 -26.12973656 84.69223656 -22.75 81.3125 C-21.945625 80.549375 -21.14125 79.78625 -20.3125 79 C-17.97147695 76.54478071 -16.3600505 74.27838251 -14.75 71.3125 C-17.06 70.6525 -19.37 69.9925 -21.75 69.3125 C-22.08 69.9725 -22.41 70.6325 -22.75 71.3125 C-22.75 70.6525 -22.75 69.9925 -22.75 69.3125 C-27.04 69.3125 -31.33 69.3125 -35.75 69.3125 C-35.75 61.7225 -35.75 54.1325 -35.75 46.3125 C-18.26 46.3125 -0.77 46.3125 17.25 46.3125 C21.04617386 53.90484771 17.82533773 68.64505453 15.5 76.5625 C10.42691436 90.59021366 1.71981908 101.49601013 -11.75 108.3125 C-28.41386675 115.15323629 -47.87073641 115.81043974 -64.75 109.3125 C-78.65192008 102.8472697 -89.17229841 93.02626968 -95.21875 78.875 C-101.69388272 61.10603115 -102.78767492 41.42552475 -96.75 23.3125 C-95.76 22.8175 -95.76 22.8175 -94.75 22.3125 C-94.5025 21.4875 -94.255 20.6625 -94 19.8125 C-91.54037636 12.9255538 -87.14986528 7.19809239 -81.75 2.3125 C-81.17636719 1.75820313 -80.60273438 1.20390625 -80.01171875 0.6328125 C-58.74250612 -19.22981893 -21.89236004 -18.07694027 0 0 Z " fill="#D33C56" transform="translate(266.75,758.6875)"/>
<path d="M0 0 C0.33 0 0.66 0 1 0 C2.02436965 11.30990245 2.14721752 22.53249 2.1328125 33.87890625 C2.13348852 35.78157056 2.13446102 37.68423478 2.13571167 39.5868988 C2.13717712 43.55802235 2.13507313 47.52912325 2.13037109 51.50024414 C2.12470199 56.52660989 2.12794231 61.55292188 2.13394356 66.57928562 C2.13760405 70.50642786 2.13638532 74.43355794 2.13381577 78.36070061 C2.13316013 80.21058089 2.13392572 82.06046238 2.13629532 83.91034126 C2.14934673 96.96827874 1.72268706 109.9621177 1 123 C-3.31249443 123.02768695 -7.62494465 123.04675254 -11.9375 123.0625 C-13.16919922 123.07087891 -14.40089844 123.07925781 -15.66992188 123.08789062 C-16.83974609 123.09111328 -18.00957031 123.09433594 -19.21484375 123.09765625 C-20.84087524 123.10551147 -20.84087524 123.10551147 -22.49975586 123.11352539 C-25 123 -25 123 -26 122 C-26.09326716 120.43452952 -26.11745582 118.86487228 -26.11352539 117.29663086 C-26.11340454 116.28161499 -26.11328369 115.26659912 -26.11315918 114.2208252 C-26.10804321 113.14635132 -26.10292725 112.07187744 -26.09765625 110.96484375 C-26.09664917 109.98294067 -26.09564209 109.0010376 -26.09460449 107.98937988 C-26.08935445 104.30540812 -26.07539332 100.62145294 -26.0625 96.9375 C-26.041875 88.708125 -26.02125 80.47875 -26 72 C-43.16 72 -60.32 72 -78 72 C-78 88.5 -78 105 -78 122 C-80.64828179 123.3241409 -82.66680112 123.12957042 -85.62890625 123.1328125 C-87.30436523 123.13474609 -87.30436523 123.13474609 -89.01367188 123.13671875 C-90.18478516 123.13285156 -91.35589844 123.12898437 -92.5625 123.125 C-93.73748047 123.12886719 -94.91246094 123.13273438 -96.12304688 123.13671875 C-97.23873047 123.13542969 -98.35441406 123.13414062 -99.50390625 123.1328125 C-100.53330322 123.13168457 -101.5627002 123.13055664 -102.62329102 123.12939453 C-105 123 -105 123 -106 122 C-106.09581822 120.46914161 -106.12188108 118.93386244 -106.12025452 117.40000916 C-106.12162918 116.40576431 -106.12300385 115.41151947 -106.12442017 114.387146 C-106.12082489 113.28735413 -106.11722961 112.18756226 -106.11352539 111.05444336 C-106.11367142 109.90337601 -106.11381744 108.75230865 -106.1139679 107.56636047 C-106.11326818 103.74083609 -106.10547302 99.91535969 -106.09765625 96.08984375 C-106.09579228 93.44568407 -106.09436828 90.80152404 -106.09336853 88.15736389 C-106.09025549 81.89584583 -106.08204248 75.63434514 -106.07201904 69.37283474 C-106.06085705 62.24598463 -106.05534724 55.1191337 -106.05032361 47.99227703 C-106.03985984 33.3281757 -106.02226093 18.66408809 -106 4 C-101.52115561 3.80418654 -97.04191574 3.6197364 -92.5625 3.4375 C-91.28310547 3.38142578 -90.00371094 3.32535156 -88.68554688 3.26757812 C-87.47060547 3.21923828 -86.25566406 3.17089844 -85.00390625 3.12109375 C-83.87799072 3.0739624 -82.7520752 3.02683105 -81.59204102 2.97827148 C-79 3 -79 3 -78 4 C-77.90731001 5.35094982 -77.88252674 6.70667091 -77.88647461 8.06079102 C-77.88659546 8.93368774 -77.88671631 9.80658447 -77.88684082 10.70593262 C-77.89451477 12.09092957 -77.89451477 12.09092957 -77.90234375 13.50390625 C-77.90335083 14.3482019 -77.90435791 15.19249756 -77.90539551 16.06237793 C-77.9106443 19.22909902 -77.92460544 22.39580081 -77.9375 25.5625 C-77.958125 32.636875 -77.97875 39.71125 -78 47 C-60.84 47 -43.68 47 -26 47 C-26 33.14 -26 19.28 -26 5 C-26.99 4.505 -26.99 4.505 -28 4 C-24.79217914 3.04623433 -21.91812604 2.88378819 -18.578125 2.90234375 C-17.55332031 2.90556641 -16.52851562 2.90878906 -15.47265625 2.91210938 C-14.40917969 2.92048828 -13.34570312 2.92886719 -12.25 2.9375 C-11.17105469 2.94201172 -10.09210938 2.94652344 -8.98046875 2.95117188 C-6.32025617 2.96294273 -3.66015635 2.97938601 -1 3 C-0.67 2.01 -0.34 1.02 0 0 Z " fill="#DD3F5B" transform="translate(848,744)"/>
<path d="M0 0 C6.26105784 6.91155736 10.56764072 14.54357271 12.50390625 23.66015625 C6.46525582 26.25851785 0.33170426 28.43488639 -5.93359375 30.41015625 C-6.63162109 30.63276123 -7.32964844 30.85536621 -8.04882812 31.0847168 C-10.97558856 31.99273923 -13.41283277 32.66015625 -16.49609375 32.66015625 C-16.77582031 32.00789062 -17.05554688 31.355625 -17.34375 30.68359375 C-20.7699845 23.2141822 -24.54607342 18.24574448 -32.12109375 14.78515625 C-38.94318505 12.55536765 -47.13034584 12.5624962 -53.93359375 14.84765625 C-62.37452438 19.14216482 -65.37028633 23.811536 -68.49609375 32.66015625 C-72.15871866 44.71780756 -71.34454285 59.43339062 -65.49609375 70.66015625 C-61.70548642 76.89861659 -56.31821183 80.2778293 -49.49609375 82.66015625 C-41.43529336 84.52299457 -33.72213531 83.857389 -26.57421875 79.484375 C-24.22080073 77.67448447 -22.679119 76.14386583 -21.62109375 73.34765625 C-21.57984375 72.79078125 -21.53859375 72.23390625 -21.49609375 71.66015625 C-21.16609375 71.99015625 -20.83609375 72.32015625 -20.49609375 72.66015625 C-18.84609375 68.70015625 -17.19609375 64.74015625 -15.49609375 60.66015625 C-5.89085791 63.29384995 3.26083281 66.98507803 12.50390625 70.66015625 C11.46478762 82.09046122 5.83493022 91.31738968 -2.8984375 98.6875 C-16.96228814 109.52292008 -31.97605373 112.80395161 -49.49609375 111.66015625 C-64.33963534 109.64603829 -77.7679308 102.68852053 -87.5625 91.24609375 C-96.97230078 78.44226115 -101.08994847 64.12963385 -100.93359375 48.34765625 C-100.92529541 47.25751221 -100.91699707 46.16736816 -100.90844727 45.04418945 C-100.51936019 26.3832408 -93.93813842 11.72816142 -80.49609375 -1.33984375 C-72.63002706 -8.45527187 -62.93622806 -12.71950544 -52.49609375 -14.33984375 C-51.77550781 -14.47390625 -51.05492187 -14.60796875 -50.3125 -14.74609375 C-32.74562906 -17.35298185 -13.306321 -11.78993115 0 0 Z " fill="#D13C55" transform="translate(703.49609375,760.33984375)"/>
<path d="M0 0 C2.17394072 -0.0016224 4.34787108 -0.00518775 6.52180862 -0.00918579 C10.62761318 -0.01612673 14.73335231 -0.01360103 18.83916092 -0.00942993 C20.09480347 -0.01141388 21.35044601 -0.01339783 22.64413834 -0.01544189 C23.78711884 -0.01233002 24.93009933 -0.00921814 26.10771561 -0.00601196 C27.61576767 -0.00481857 27.61576767 -0.00481857 29.15428543 -0.00360107 C31.41728592 0.12338257 31.41728592 0.12338257 32.41728592 1.12338257 C32.50454815 2.90409503 32.52427633 4.68821397 32.51494217 6.47103882 C32.51244461 7.44307251 32.50994705 8.4151062 32.50737381 9.41659546 C32.49826981 10.66046021 32.4891658 11.90432495 32.47978592 13.18588257 C32.45916092 17.12525757 32.43853592 21.06463257 32.41728592 25.12338257 C20.86728592 25.12338257 9.31728592 25.12338257 -2.58271408 25.12338257 C-2.08771408 28.58838257 -2.08771408 28.58838257 -1.58271408 32.12338257 C-1.50319479 33.47128247 -1.45267187 34.82166702 -1.44900131 36.17190552 C-1.44260384 37.25264091 -1.44260384 37.25264091 -1.43607712 38.35520935 C-1.4367569 39.50260841 -1.4367569 39.50260841 -1.43745041 40.67318726 C-1.4340918 41.49844406 -1.43073318 42.32370087 -1.4272728 43.17396545 C-1.41783163 45.88107843 -1.41582375 48.5881292 -1.41474533 51.29525757 C-1.41153015 53.18378728 -1.40816588 55.07231675 -1.40465927 56.96084595 C-1.3986867 60.90809711 -1.39681766 64.85532643 -1.39741135 68.80258179 C-1.39751336 73.86571262 -1.38381274 78.92870444 -1.36663914 83.99180222 C-1.35554047 87.88649138 -1.35349141 91.78114656 -1.35402107 95.67584991 C-1.3528396 97.54340345 -1.34840847 99.41095783 -1.34068871 101.27849579 C-1.33092337 103.88281665 -1.33375209 106.48683052 -1.33979416 109.09115601 C-1.33417465 109.86418564 -1.32855515 110.63721527 -1.32276535 111.43367004 C-1.3450949 115.20918668 -1.4346301 116.9012566 -3.58271408 120.12338257 C-12.49271408 119.79338257 -21.40271408 119.46338257 -30.58271408 119.12338257 C-30.58271408 88.43338257 -30.58271408 57.74338257 -30.58271408 26.12338257 C-41.14271408 25.79338257 -51.70271408 25.46338257 -62.58271408 25.12338257 C-62.91271408 25.78338257 -63.24271408 26.44338257 -63.58271408 27.12338257 C-66.05771408 26.13338257 -66.05771408 26.13338257 -68.58271408 25.12338257 C-68.58271408 17.20338257 -68.58271408 9.28338257 -68.58271408 1.12338257 C-45.72276537 0.27277983 -22.87388831 0.01128741 0 0 Z " fill="#CD3A54" transform="translate(550.5827140808105,746.8766174316406)"/>
<path d="M0 0 C4.65962343 3.99396294 6.47232603 7.88394507 7.1875 13.875 C7.21345117 16.14977192 7.18115876 18.42569171 7.1015625 20.69921875 C7.05773437 21.97474609 7.01390625 23.25027344 6.96875 24.56445312 C6.94296875 25.2206665 6.9171875 25.87687988 6.890625 26.55297852 C6.81232431 28.56701908 6.74534272 30.58121479 6.6796875 32.59570312 C6.31896076 42.48061771 6.31896076 42.48061771 5.1875 45.875 C5.8271167 45.93123535 6.4667334 45.9874707 7.12573242 46.04541016 C14.59147908 46.71179198 22.04799345 47.44437767 29.5 48.25 C30.64017578 48.3634375 31.78035156 48.476875 32.95507812 48.59375 C45.88152853 50.01241473 45.88152853 50.01241473 50 55.125 C52.00375337 59.76527097 52.39957853 63.50827169 51.625 68.5 C49.92630154 72.48824855 48.01294217 74.89843504 44.1875 76.875 C36.32019905 78.40696935 29.22472972 77.27934073 21.375 76 C20.16134766 75.81308594 18.94769531 75.62617188 17.69726562 75.43359375 C8.18384557 73.94893163 8.18384557 73.94893163 4.1875 72.875 C4.5175 73.865 4.8475 74.855 5.1875 75.875 C5.27298698 79.42017239 5.04440448 82.95875026 4.875 86.5 C4.83955078 87.46035156 4.80410156 88.42070312 4.76757812 89.41015625 C4.07411812 104.66627635 4.07411812 104.66627635 -0.375 109.875 C-1.5815625 110.865 -1.5815625 110.865 -2.8125 111.875 C-3.1425 112.205 -3.4725 112.535 -3.8125 112.875 C-8.32816825 113.30984213 -12.49031111 113.38137021 -16.75 111.75 C-20.42960067 108.40490848 -21.71247842 104.99165664 -22.15307617 100.07275391 C-22.15260745 98.6656007 -22.13603108 97.25838385 -22.10546875 95.8515625 C-22.10122391 95.10538666 -22.09697906 94.35921082 -22.09260559 93.59042358 C-22.07592382 91.22656902 -22.03829339 88.86359324 -22 86.5 C-21.98493949 84.8893353 -21.97125348 83.27865713 -21.95898438 81.66796875 C-21.92605504 77.73664485 -21.87434762 73.80597099 -21.8125 69.875 C-22.40675781 69.76430176 -23.00101562 69.65360352 -23.61328125 69.53955078 C-26.34682858 69.02887057 -29.07966154 68.51445958 -31.8125 68 C-32.74707031 67.82597656 -33.68164062 67.65195312 -34.64453125 67.47265625 C-51.92162369 64.21054789 -51.92162369 64.21054789 -55.8125 59.875 C-57.88089223 56.12932971 -59.04926866 52.72771479 -58.5 48.4296875 C-57.08397628 43.55406039 -55.34971813 40.46769607 -50.8125 37.875 C-46.77047378 36.72841553 -43.54574089 37.00676801 -39.41796875 37.65234375 C-38.21591797 37.83603516 -37.01386719 38.01972656 -35.77539062 38.20898438 C-34.52951172 38.40814453 -33.28363281 38.60730469 -32 38.8125 C-30.73478516 39.00779297 -29.46957031 39.20308594 -28.16601562 39.40429688 C-25.04690074 39.88687691 -21.92924376 40.37737397 -18.8125 40.875 C-18.8532666 40.04887207 -18.8940332 39.22274414 -18.93603516 38.37158203 C-19.08369183 35.25946727 -19.22021767 32.14710329 -19.34960938 29.03417969 C-19.43563173 27.04324011 -19.53408482 25.05284999 -19.6328125 23.0625 C-20.22929407 8.29958111 -20.22929407 8.29958111 -17.8125 1.875 C-12.82924601 -2.25745453 -5.87386156 -2.34954462 0 0 Z " fill="#CF3B55" transform="translate(413.8125,349.125)"/>
<path d="M0 0 C9.24 0 18.48 0 28 0 C28.93152781 4.65763905 29.14128281 8.9053699 29.12939453 13.61401367 C29.13114685 14.46984543 29.13289917 15.32567719 29.13470459 16.20744324 C29.13909516 19.02763921 29.13619573 21.84777217 29.1328125 24.66796875 C29.13348616 26.62901318 29.1344567 28.59005754 29.13571167 30.55110168 C29.13718469 34.65573931 29.13504606 38.76035514 29.13037109 42.86499023 C29.12466275 48.13450184 29.12796229 53.40396264 29.13394356 58.6734724 C29.1375502 62.71995937 29.1364103 66.7664342 29.13381577 70.81292152 C29.13314737 72.75665607 29.13397189 74.70039171 29.13629532 76.64412498 C29.13882474 79.35416985 29.13497764 82.0641313 29.12939453 84.77416992 C29.13141876 85.58198914 29.13344299 86.38980835 29.13552856 87.22210693 C29.1142665 92.77146699 29.1142665 92.77146699 28 95 C47.8 95 67.6 95 88 95 C88 102.92 88 110.84 88 119 C58.96 119 29.92 119 0 119 C0 79.73 0 40.46 0 0 Z " fill="#D93E59" transform="translate(312,747)"/>
<path d="M0 0 C0.33 39.27 0.66 78.54 1 119 C-8.24 119.33 -17.48 119.66 -27 120 C-28.61364043 118.38635957 -28.14164417 116.63279239 -28.15821838 114.40000916 C-28.17290161 112.90864189 -28.17290161 112.90864189 -28.18788147 111.387146 C-28.19363693 110.28735413 -28.1993924 109.18756226 -28.20532227 108.05444336 C-28.21522186 106.90337601 -28.22512146 105.75230865 -28.23532104 104.56636047 C-28.26704662 100.74087621 -28.29173703 96.9153795 -28.31640625 93.08984375 C-28.33696624 90.44568041 -28.35796244 87.80152043 -28.37937927 85.15736389 C-28.42935606 78.89587961 -28.47427631 72.63436955 -28.51740164 66.37283474 C-28.5667315 59.24595156 -28.62166534 52.11911508 -28.67708123 44.99227703 C-28.79097777 30.32822888 -28.89780003 15.66413427 -29 1 C-25.03068844 0.8573582 -21.06136866 0.71494744 -17.09204102 0.57275391 C-15.74080174 0.5243154 -14.38956475 0.47581297 -13.03833008 0.42724609 C-11.09977813 0.35758049 -9.16121732 0.28816139 -7.22265625 0.21875 C-5.47094116 0.1559082 -5.47094116 0.1559082 -3.68383789 0.09179688 C-1 0 -1 0 0 0 Z " fill="#DE3F5B" transform="translate(457,747)"/>
<path d="M0 0 C3.51026605 3.83800588 4.19401428 7.92129524 4.25 13 C4.1675 14.32 4.085 15.64 4 17 C7.96 17 11.92 17 16 17 C19.57261888 22.50778744 19.79536781 27.64589491 19 34 C18.04084593 37.25390442 16.69130126 40.06656274 15 43 C14.63777344 43.65097656 14.27554688 44.30195313 13.90234375 44.97265625 C10.24192185 50.81692308 5.67630055 52.97570661 -0.83203125 54.7890625 C-12.07836873 57.18558628 -19.25050134 53.82426195 -28.75 47.9140625 C-31.312101 45.73449742 -31.99284506 44.16677572 -33 41 C-33.515625 39.96875 -34.03125 38.9375 -34.5625 37.875 C-38.28790407 29.02955341 -37.35730725 19.80524538 -34 11 C-30.57705799 4.39470615 -25.74037241 0.89697513 -19 -2 C-18.3503125 -2.29261719 -17.700625 -2.58523438 -17.03125 -2.88671875 C-10.95857422 -5.03953209 -5.38836523 -3.22609989 0 0 Z " fill="#D53C56" transform="translate(545,444)"/>
<path d="M0 0 C0.33 0 0.66 0 1 0 C2.02436965 11.30990245 2.14721752 22.53249 2.1328125 33.87890625 C2.13348852 35.78157056 2.13446102 37.68423478 2.13571167 39.5868988 C2.13717712 43.55802235 2.13507313 47.52912325 2.13037109 51.50024414 C2.12470199 56.52660989 2.12794231 61.55292188 2.13394356 66.57928562 C2.13760405 70.50642786 2.13638532 74.43355794 2.13381577 78.36070061 C2.13316013 80.21058089 2.13392572 82.06046238 2.13629532 83.91034126 C2.14934673 96.96827874 1.72268706 109.9621177 1 123 C-3.31249443 123.02768695 -7.62494465 123.04675254 -11.9375 123.0625 C-13.16919922 123.07087891 -14.40089844 123.07925781 -15.66992188 123.08789062 C-16.83974609 123.09111328 -18.00957031 123.09433594 -19.21484375 123.09765625 C-20.84087524 123.10551147 -20.84087524 123.10551147 -22.49975586 123.11352539 C-25 123 -25 123 -26 122 C-26.09326716 120.43452952 -26.11745582 118.86487228 -26.11352539 117.29663086 C-26.11340454 116.28161499 -26.11328369 115.26659912 -26.11315918 114.2208252 C-26.10804321 113.14635132 -26.10292725 112.07187744 -26.09765625 110.96484375 C-26.09664917 109.98294067 -26.09564209 109.0010376 -26.09460449 107.98937988 C-26.08935445 104.30540812 -26.07539332 100.62145294 -26.0625 96.9375 C-26.041875 88.708125 -26.02125 80.47875 -26 72 C-43.16 72 -60.32 72 -78 72 C-78 88.5 -78 105 -78 122 C-80.64828179 123.3241409 -82.66680112 123.12957042 -85.62890625 123.1328125 C-87.30436523 123.13474609 -87.30436523 123.13474609 -89.01367188 123.13671875 C-90.18478516 123.13285156 -91.35589844 123.12898437 -92.5625 123.125 C-93.73748047 123.12886719 -94.91246094 123.13273438 -96.12304688 123.13671875 C-97.23873047 123.13542969 -98.35441406 123.13414062 -99.50390625 123.1328125 C-100.53330322 123.13168457 -101.5627002 123.13055664 -102.62329102 123.12939453 C-105 123 -105 123 -106 122 C-106.09581822 120.46914161 -106.12188108 118.93386244 -106.12025452 117.40000916 C-106.12162918 116.40576431 -106.12300385 115.41151947 -106.12442017 114.387146 C-106.12082489 113.28735413 -106.11722961 112.18756226 -106.11352539 111.05444336 C-106.11367142 109.90337601 -106.11381744 108.75230865 -106.1139679 107.56636047 C-106.11326818 103.74083609 -106.10547302 99.91535969 -106.09765625 96.08984375 C-106.09579228 93.44568407 -106.09436828 90.80152404 -106.09336853 88.15736389 C-106.09025549 81.89584583 -106.08204248 75.63434514 -106.07201904 69.37283474 C-106.06085705 62.24598463 -106.05534724 55.1191337 -106.05032361 47.99227703 C-106.03985984 33.3281757 -106.02226093 18.66408809 -106 4 C-101.52115561 3.80418654 -97.04191574 3.6197364 -92.5625 3.4375 C-91.28310547 3.38142578 -90.00371094 3.32535156 -88.68554688 3.26757812 C-87.47060547 3.21923828 -86.25566406 3.17089844 -85.00390625 3.12109375 C-83.87799072 3.0739624 -82.7520752 3.02683105 -81.59204102 2.97827148 C-79 3 -79 3 -78 4 C-77.90731001 5.35094982 -77.88252674 6.70667091 -77.88647461 8.06079102 C-77.88659546 8.93368774 -77.88671631 9.80658447 -77.88684082 10.70593262 C-77.89451477 12.09092957 -77.89451477 12.09092957 -77.90234375 13.50390625 C-77.90335083 14.3482019 -77.90435791 15.19249756 -77.90539551 16.06237793 C-77.9106443 19.22909902 -77.92460544 22.39580081 -77.9375 25.5625 C-77.958125 32.636875 -77.97875 39.71125 -78 47 C-60.84 47 -43.68 47 -26 47 C-26 33.14 -26 19.28 -26 5 C-26.99 4.505 -26.99 4.505 -28 4 C-24.79217914 3.04623433 -21.91812604 2.88378819 -18.578125 2.90234375 C-17.55332031 2.90556641 -16.52851562 2.90878906 -15.47265625 2.91210938 C-14.40917969 2.92048828 -13.34570312 2.92886719 -12.25 2.9375 C-11.17105469 2.94201172 -10.09210938 2.94652344 -8.98046875 2.95117188 C-6.32025617 2.96294273 -3.66015635 2.97938601 -1 3 C-0.67 2.01 -0.34 1.02 0 0 Z M-104 5 C-104 43.28 -104 81.56 -104 121 C-96.08 121 -88.16 121 -80 121 C-80 104.5 -80 88 -80 71 C-61.52 71 -43.04 71 -24 71 C-24 87.5 -24 104 -24 121 C-16.08 121 -8.16 121 0 121 C0 82.72 0 44.44 0 5 C-7.92 5 -15.84 5 -24 5 C-24.33 19.19 -24.66 33.38 -25 48 C-43.15 48 -61.3 48 -80 48 C-80 33.81 -80 19.62 -80 5 C-87.92 5 -95.84 5 -104 5 Z " fill="#5A1D24" transform="translate(848,744)"/>
<path d="M0 0 C3.43737307 2.79152009 6.18165096 5.29009589 6.99609375 9.76953125 C7.21251855 15.05390347 6.7399245 19.46244486 3.49609375 23.76953125 C-0.11223515 27.41238961 -3.91147943 28.71774386 -9.00390625 28.76953125 C-13.62485025 28.0242177 -16.86491463 26.29559614 -19.94140625 22.76953125 C-23.0108801 18.30484201 -23.44305625 15.1271612 -23.00390625 9.76953125 C-21.5955831 5.59813932 -20.00870415 2.54824962 -16.50390625 -0.16796875 C-10.94533573 -2.53036122 -5.3928013 -3.31136922 0 0 Z " fill="#C83A51" transform="translate(636.00390625,454.23046875)"/>
<path d="M0 0 C4.1772066 4.43828201 4.50995808 8.42243883 4.3671875 14.36328125 C3.79346953 18.67837282 2.35710104 21.35480474 -1 24.125 C-4.72601431 26.33033922 -8.07231596 27.38160729 -12.40625 26.8046875 C-17.38460231 25.36096533 -20.79371721 23.30288363 -24 19.125 C-26.22328938 14.47630402 -26.24445126 11.10280506 -25 6.125 C-22.55148782 1.73456436 -20.07442498 -1.83035667 -15.18359375 -3.4921875 C-9.91310943 -4.41617223 -4.44803923 -2.78002452 0 0 Z " fill="#C93A51" transform="translate(676,405.875)"/>
<path d="M0 0 C3.61864266 4.47008799 4.58708023 7.6855088 4.4375 13.37890625 C3.76330605 18.22467526 0.96748942 20.88047447 -2.5625 24 C-7.96786425 26.65168812 -12.54468224 26.41642867 -18.1875 24.5 C-22.52009924 21.47725634 -24.40765447 18.30744391 -25.8125 13.25 C-25.90070049 8.13437175 -24.88584172 4.02026734 -21.546875 0.04296875 C-14.95212084 -5.97908308 -6.63682935 -5.48259816 0 0 Z " fill="#CE3C54" transform="translate(606.875,406.375)"/>
<path d="M0 0 C4.81852225 2.36380337 7.67076821 5.16236475 10 10 C10.78850613 14.9402323 10.53776529 18.79002809 8.5 23.375 C4.92333188 27.13050153 1.21247059 29.75334964 -4.0859375 30.16015625 C-8.915499 29.78082288 -12.25268302 28.13728864 -16 25 C-18.6846399 21.48219599 -19.82640162 18.42675873 -20 14 C-18.7410741 7.7909286 -16.11060275 4.58829555 -11 1 C-7.52363841 -0.7381808 -3.800959 -0.45508953 0 0 Z " fill="#C93A51" transform="translate(630,355)"/>
<path d="M0 0 C3.26986843 2.63982061 5.98372869 5.11930434 6.5625 9.40625 C6.64556701 15.41199507 6.4987577 19.29937934 2.2265625 23.91796875 C-1.56236705 26.88767029 -4.97885748 27.7526384 -9.7734375 27.91796875 C-14.41193331 26.42421586 -17.68487931 24.71927114 -20.7734375 20.91796875 C-22.32923773 16.25056806 -22.48579559 11.78235682 -21.7734375 6.91796875 C-19.67549759 2.81645994 -16.94219907 0.5277574 -12.8984375 -1.58203125 C-8.29545851 -2.31850789 -4.0963178 -2.49929522 0 0 Z " fill="#C93952" transform="translate(530.7734375,382.08203125)"/>
<path d="M0 0 C2.87235449 4.17797017 4.01735854 7.92158565 4.0625 13 C2.97659111 17.59043302 1.30859309 20.95065845 -2.3125 24 C-8.07306815 26.19450215 -12.17621999 26.46912 -17.9375 24 C-21.30287828 21.13263734 -23.51029074 18.2549272 -24.9375 14.0625 C-24.9375 8.54143389 -24.12976975 4.52345579 -20.6875 0.125 C-13.81603566 -5.1847679 -7.0525345 -4.80172562 0 0 Z " fill="#C83951" transform="translate(468.9375,465)"/>
<path d="M0 0 C0.33 0 0.66 0 1 0 C2.02436965 11.30990245 2.14721752 22.53249 2.1328125 33.87890625 C2.13348852 35.78157056 2.13446102 37.68423478 2.13571167 39.5868988 C2.13717712 43.55802235 2.13507313 47.52912325 2.13037109 51.50024414 C2.12470199 56.52660989 2.12794231 61.55292188 2.13394356 66.57928562 C2.13760405 70.50642786 2.13638532 74.43355794 2.13381577 78.36070061 C2.13316013 80.21058089 2.13392572 82.06046238 2.13629532 83.91034126 C2.14934673 96.96827874 1.72268706 109.9621177 1 123 C-3.31249443 123.02768695 -7.62494465 123.04675254 -11.9375 123.0625 C-13.16919922 123.07087891 -14.40089844 123.07925781 -15.66992188 123.08789062 C-16.83974609 123.09111328 -18.00957031 123.09433594 -19.21484375 123.09765625 C-20.84087524 123.10551147 -20.84087524 123.10551147 -22.49975586 123.11352539 C-25 123 -25 123 -26 122 C-26.09326716 120.43452952 -26.11745582 118.86487228 -26.11352539 117.29663086 C-26.11340454 116.28161499 -26.11328369 115.26659912 -26.11315918 114.2208252 C-26.10804321 113.14635132 -26.10292725 112.07187744 -26.09765625 110.96484375 C-26.09664917 109.98294067 -26.09564209 109.0010376 -26.09460449 107.98937988 C-26.08935445 104.30540812 -26.07539332 100.62145294 -26.0625 96.9375 C-26.0315625 84.5934375 -26.0315625 84.5934375 -26 72 C-43.16 72 -60.32 72 -78 72 C-78 88.5 -78 105 -78 122 C-78.66 121.67 -79.32 121.34 -80 121 C-80 104.5 -80 88 -80 71 C-61.52 71 -43.04 71 -24 71 C-24 87.5 -24 104 -24 121 C-16.08 121 -8.16 121 0 121 C0 82.72 0 44.44 0 5 C-7.92 5 -15.84 5 -24 5 C-24 4.67 -24 4.34 -24 4 C-12.615 3.505 -12.615 3.505 -1 3 C-0.67 2.01 -0.34 1.02 0 0 Z " fill="#49161B" transform="translate(848,744)"/>
<path d="M0 0 C0.33 39.27 0.66 78.54 1 119 C-8.24 119.33 -17.48 119.66 -27 120 C-28.61364043 118.38635957 -28.14164417 116.63279239 -28.15821838 114.40000916 C-28.17290161 112.90864189 -28.17290161 112.90864189 -28.18788147 111.387146 C-28.19363693 110.28735413 -28.1993924 109.18756226 -28.20532227 108.05444336 C-28.21522186 106.90337601 -28.22512146 105.75230865 -28.23532104 104.56636047 C-28.26704662 100.74087621 -28.29173703 96.9153795 -28.31640625 93.08984375 C-28.33696624 90.44568041 -28.35796244 87.80152043 -28.37937927 85.15736389 C-28.42935606 78.89587961 -28.47427631 72.63436955 -28.51740164 66.37283474 C-28.5667315 59.24595156 -28.62166534 52.11911508 -28.67708123 44.99227703 C-28.79097777 30.32822888 -28.89780003 15.66413427 -29 1 C-25.03068844 0.8573582 -21.06136866 0.71494744 -17.09204102 0.57275391 C-15.74080174 0.5243154 -14.38956475 0.47581297 -13.03833008 0.42724609 C-11.09977813 0.35758049 -9.16121732 0.28816139 -7.22265625 0.21875 C-5.47094116 0.1559082 -5.47094116 0.1559082 -3.68383789 0.09179688 C-1 0 -1 0 0 0 Z M-26 2 C-26 40.28 -26 78.56 -26 118 C-17.75 118 -9.5 118 -1 118 C-1 79.72 -1 41.44 -1 2 C-9.25 2 -17.5 2 -26 2 Z " fill="#4E191E" transform="translate(457,747)"/>
<path d="M0 0 C9.24 0 18.48 0 28 0 C28.75956712 3.79783558 29.09384849 6.16149821 28.87890625 9.86328125 C28.83056641 10.74951172 28.78222656 11.63574219 28.73242188 12.54882812 C28.67634766 13.46083984 28.62027344 14.37285156 28.5625 15.3125 C28.51029297 16.24384766 28.45808594 17.17519531 28.40429688 18.13476562 C28.2751852 20.42356353 28.14024585 22.71186186 28 25 C27.67 25 27.34 25 27 25 C27 17.41 27 9.82 27 2 C18.75 2 10.5 2 2 2 C2 40.28 2 78.56 2 118 C30.05 118 58.1 118 87 118 C87 111.07 87 104.14 87 97 C68.85 97 50.7 97 32 97 C32 96.67 32 96.34 32 96 C50.48 96 68.96 96 88 96 C88 103.59 88 111.18 88 119 C58.96 119 29.92 119 0 119 C0 79.73 0 40.46 0 0 Z " fill="#24090A" transform="translate(312,747)"/>
<path d="M0 0 C17.49 0 34.98 0 53 0 C56.85238311 7.70476622 53.50719039 22.56710238 51.125 30.5625 C49.88479079 34.23918321 48.4684159 37.00263783 46 40 C46.67744547 36.16819905 47.78020266 32.62828387 49 28.9375 C51.74732848 19.12621957 51.74732848 19.12621957 52 1 C35.17 1 18.34 1 1 1 C1 7.93 1 14.86 1 22 C8.59 22 16.18 22 24 22 C19.75598802 34.73203593 19.75598802 34.73203593 12.0625 38.75 C3.55073119 42.9072163 -5.70243422 43.38668408 -14.6875 40.375 C-20.68860185 37.94188851 -26.42566704 35.0174715 -29.5 29.125 C-29.7475 28.073125 -29.7475 28.073125 -30 27 C-28 28.375 -28 28.375 -26 30 C-26 30.66 -26 31.32 -26 32 C-25.4225 32.28746094 -24.845 32.57492187 -24.25 32.87109375 C-22.82907497 33.58402315 -21.41184749 34.30441488 -20 35.03515625 C-19.34 35.37417969 -18.68 35.71320312 -18 36.0625 C-17.34 36.40410156 -16.68 36.74570312 -16 37.09765625 C-11.54606493 39.10714648 -7.5008188 39.16316957 -2.625 39.1875 C-1.33851563 39.20167969 -0.05203125 39.21585938 1.2734375 39.23046875 C5.95682273 38.94082543 9.62026344 38.37973656 13 35 C13.804375 34.236875 14.60875 33.47375 15.4375 32.6875 C17.77852305 30.23228071 19.3899495 27.96588251 21 25 C18.69 24.34 16.38 23.68 14 23 C13.67 23.66 13.34 24.32 13 25 C13 24.34 13 23.68 13 23 C8.71 23 4.42 23 0 23 C0 15.41 0 7.82 0 0 Z " fill="#421216" transform="translate(231,805)"/>
<path d="M0 0 C17.74453826 15.59368513 24.01281046 43.12352321 28.375 65.25 C28.54290039 66.0946582 28.71080078 66.93931641 28.88378906 67.80957031 C29.89204369 73.28637463 30.14535104 78.43193699 30 84 C29.566875 83.0409375 29.566875 83.0409375 29.125 82.0625 C28.17176549 79.84793921 28.17176549 79.84793921 26 79 C25.91773332 75.95613276 26.02391783 73.92824652 27 71 C24.43993143 46.68201537 15.2776641 21.19501387 0 2 C0 1.34 0 0.68 0 0 Z " fill="#6A1D26" transform="translate(702,351)"/>
<path d="M0 0 C0.87430664 -0.00926514 1.74861328 -0.01853027 2.64941406 -0.02807617 C8.78206378 0.00124189 14.47227786 0.84528898 20.4375 2.25 C20.4375 2.58 20.4375 2.91 20.4375 3.25 C16.66668278 3.27899599 12.89589417 3.29679729 9.125 3.3125 C7.5172168 3.32506836 7.5172168 3.32506836 5.87695312 3.33789062 C4.84892578 3.34111328 3.82089844 3.34433594 2.76171875 3.34765625 C1.81385498 3.35289307 0.86599121 3.35812988 -0.1105957 3.36352539 C-2.5625 3.25 -2.5625 3.25 -5.5625 2.25 C-8.21040872 2.53800783 -10.75980378 2.90142264 -13.375 3.375 C-14.13111572 3.51188232 -14.88723145 3.64876465 -15.66625977 3.78979492 C-26.1255502 5.80655954 -35.65826343 9.16431611 -44.57421875 15.11328125 C-46.5625 16.25 -46.5625 16.25 -49.5625 16.25 C-41.77315884 9.58806349 -31.49224454 4.79977165 -21.5625 2.25 C-20.81871094 2.04632813 -20.07492187 1.84265625 -19.30859375 1.6328125 C-12.90659791 0.17007167 -6.53686489 0.04296047 0 0 Z " fill="#812431" transform="translate(423.5625,506.75)"/>
<path d="M0 0 C0.495 0.99 0.495 0.99 1 2 C-1.34962925 8.91157175 -5.55273182 13.85670096 -12 17.25 C-20.00318282 21.18704961 -29.3349013 21.17468885 -37.6875 18.375 C-43.68860185 15.94188851 -49.42566704 13.0174715 -52.5 7.125 C-52.665 6.42375 -52.83 5.7225 -53 5 C-51 6.375 -51 6.375 -49 8 C-49 8.66 -49 9.32 -49 10 C-48.4225 10.28746094 -47.845 10.57492187 -47.25 10.87109375 C-45.82907497 11.58402315 -44.41184749 12.30441488 -43 13.03515625 C-42.34 13.37417969 -41.68 13.71320312 -41 14.0625 C-40.34 14.40410156 -39.68 14.74570312 -39 15.09765625 C-34.54606493 17.10714648 -30.5008188 17.16316957 -25.625 17.1875 C-23.69527344 17.20876953 -23.69527344 17.20876953 -21.7265625 17.23046875 C-17.04317727 16.94082543 -13.37973656 16.37973656 -10 13 C-9.195625 12.236875 -8.39125 11.47375 -7.5625 10.6875 C-5.22147695 8.23228071 -3.6100505 5.96588251 -2 3 C-2.99 2.34 -3.98 1.68 -5 1 C-3.35 0.67 -1.7 0.34 0 0 Z " fill="#842532" transform="translate(254,827)"/>
<path d="M0 0 C0.66 0.33 1.32 0.66 2 1 C0.50260417 2.171875 -0.99479167 3.34375 -2.4921875 4.515625 C-4.08450632 5.90673611 -4.08450632 5.90673611 -4.80859375 7.76953125 C-6.65361895 11.22366039 -9.41617788 13.7036704 -12.1875 16.4375 C-13.01604492 17.27764648 -13.01604492 17.27764648 -13.86132812 18.13476562 C-17.64492144 21.90078127 -21.58499968 24.99869737 -26 28 C-24.33772282 23.87434821 -21.38100337 20.93255523 -18.375 17.75 C-17.83810547 17.17588379 -17.30121094 16.60176758 -16.74804688 16.01025391 C-5.35010338 3.87178534 -5.35010338 3.87178534 0 0 Z " fill="#9F2E40" transform="translate(362,308)"/>
<path d="M0 0 C3.5261852 3.80930956 4.19420348 7.93845862 4.25 13 C4.1675 14.32 4.085 15.64 4 17 C6.97 17 9.94 17 13 17 C13 17.33 13 17.66 13 18 C9.37 18 5.74 18 2 18 C1.93941406 17.18015625 1.87882813 16.3603125 1.81640625 15.515625 C1.69072266 13.89914062 1.69072266 13.89914062 1.5625 12.25 C1.48128906 11.18265625 1.40007813 10.1153125 1.31640625 9.015625 C1.21199219 8.02046875 1.10757813 7.0253125 1 6 C0.92652344 5.25234375 0.85304688 4.5046875 0.77734375 3.734375 C0.10727952 1.77679702 0.10727952 1.77679702 -2.16796875 0.7890625 C-5.25824371 -0.07195204 -8.11299172 -0.41404341 -11.3125 -0.625 C-12.91544922 -0.73714844 -12.91544922 -0.73714844 -14.55078125 -0.8515625 C-15.35902344 -0.90054687 -16.16726563 -0.94953125 -17 -1 C-11.87769129 -6.12230871 -5.62660426 -3.10786639 0 0 Z " fill="#6B1E27" transform="translate(545,444)"/>
<path d="M0 0 C6.08168148 2.28573264 8.96053013 8.60510232 12 14 C13.29111846 17.28958235 14.26621076 20.54507566 15 24 C-0.52927241 30.32219391 -0.52927241 30.32219391 -5 29 C1 27 7 25 13 23 C11.78336172 20.43087052 10.55246549 17.87034623 9.3125 15.3125 C8.97283203 14.59126953 8.63316406 13.87003906 8.28320312 13.12695312 C6.04357976 8.54305109 3.69797944 5.49073716 0 2 C0 1.34 0 0.68 0 0 Z " fill="#641B24" transform="translate(701,760)"/>
<path d="M0 0 C9.24 0 18.48 0 28 0 C28.75956712 3.79783558 29.09384849 6.16149821 28.87890625 9.86328125 C28.83056641 10.74951172 28.78222656 11.63574219 28.73242188 12.54882812 C28.67634766 13.46083984 28.62027344 14.37285156 28.5625 15.3125 C28.51029297 16.24384766 28.45808594 17.17519531 28.40429688 18.13476562 C28.2751852 20.42356353 28.14024585 22.71186186 28 25 C27.67 25 27.34 25 27 25 C27 17.41 27 9.82 27 2 C18.75 2 10.5 2 2 2 C1.67 2.66 1.34 3.32 1 4 C0.67 2.68 0.34 1.36 0 0 Z " fill="#3F1619" transform="translate(312,747)"/>
<path d="M0 0 C6.11796431 5.93257146 11.58112136 12.43166226 17 19 C16.67 19.66 16.34 20.32 16 21 C8.50867261 14.54913474 3.166515 9.49954501 0 0 Z " fill="#9D2B3B" transform="translate(517,604)"/>
<path d="M0 0 C0.33 0 0.66 0 1 0 C1.45763495 5.72043683 0.71653644 8.59883843 -3 13 C-7.18950147 16.70235013 -10.38364965 17.56932531 -15.80859375 17.33984375 C-18.91538618 16.85804171 -21.34170036 15.6358767 -24 14 C-24 13.34 -24 12.68 -24 12 C-23.2884375 12.32226562 -22.576875 12.64453125 -21.84375 12.9765625 C-17.2595452 14.62637247 -12.80789313 14.59285299 -8 14 C-4.41000419 11.94857382 -2.37714222 9.90190294 -1 6 C-0.61709538 4.00889599 -0.27395385 2.00899487 0 0 Z " fill="#832531" transform="translate(610,415)"/>
<path d="M0 0 C-10.56 -0.33 -21.12 -0.66 -32 -1 C-32 -1.33 -32 -1.66 -32 -2 C-28.95872183 -2.33725065 -25.91705809 -2.66992332 -22.875 -3 C-22.0190625 -3.09539062 -21.163125 -3.19078125 -20.28125 -3.2890625 C-12.13069713 -4.16681435 -6.96802906 -4.6453527 0 0 Z " fill="#DF425D" transform="translate(645,317)"/>
<path d="M0 0 C0.99 0 1.98 0 3 0 C5.63495369 5.81579419 6.16388668 12.09122451 4.32421875 18.26953125 C3.5 20.1875 3.5 20.1875 2 23 C0.24729533 17.98496183 1.4477786 12.70161792 1.94140625 7.53125 C1.99687541 4.1883086 1.82527376 2.72056014 0 0 Z " fill="#862734" transform="translate(559,462)"/>
<path d="M0 0 C2 1.375 2 1.375 4 3 C4 3.66 4 4.32 4 5 C4.59167969 5.28875 5.18335938 5.5775 5.79296875 5.875 C7.6766287 6.83516649 9.50255736 7.90720445 11.3125 9 C17.35817498 12.08617313 24.33834415 12.34077364 31 13 C31 13.33 31 13.66 31 14 C20.88937696 14.80765332 13.47045123 13.82261189 5 8 C2.84380672 6.06623508 1.57221597 4.47062509 0 2 C0 1.34 0 0.68 0 0 Z " fill="#611B23" transform="translate(201,832)"/>
<path d="M0 0 C-1.83072917 0.45768229 -3.66145833 0.91536458 -5.4921875 1.37304688 C-6.23726562 1.55931641 -6.98234375 1.74558594 -7.75 1.9375 C-9.85904948 2.46476237 -11.96809896 2.99202474 -14.07714844 3.51928711 C-15.39209646 3.84802412 -16.70263381 4.19478703 -18.00878906 4.55688477 C-21.00271827 5.22314047 -23.94640052 5.05872307 -27 5 C-25.68 4.67 -24.36 4.34 -23 4 C-23 3.34 -23 2.68 -23 2 C-22.07380859 1.92652344 -22.07380859 1.92652344 -21.12890625 1.8515625 C-15.93966544 1.39345601 -11.04091456 0.66046776 -6.0078125 -0.6953125 C-3.72587593 -1.04159859 -2.1823891 -0.69484137 0 0 Z " fill="#79212C" transform="translate(593,343)"/>
<path d="M0 0 C4.50697511 6.76046267 4.26368413 16.08947607 4 24 C3.71125 23.360625 3.4225 22.72125 3.125 22.0625 C2.17176549 19.84793921 2.17176549 19.84793921 0 19 C-0.08226668 15.95613276 0.02391783 13.92824652 1 11 C0.91478259 9.10047654 0.76270916 7.20336427 0.5625 5.3125 C0.46066406 4.31863281 0.35882812 3.32476562 0.25390625 2.30078125 C0.17011719 1.54152344 0.08632813 0.78226562 0 0 Z " fill="#561A1F" transform="translate(728,411)"/>
<path d="M0 0 C0 3 0 3 -2.265625 5.59375 C-3.25278939 6.57027111 -4.2479569 7.53875255 -5.25 8.5 C-5.98669922 9.22896484 -5.98669922 9.22896484 -6.73828125 9.97265625 C-9.35447016 12.53303313 -12.00707352 14.89069944 -15 17 C-15.66 16.67 -16.32 16.34 -17 16 C-15.71034824 14.62437146 -14.37310707 13.29233607 -13 12 C-12.34 12 -11.68 12 -11 12 C-10.76539063 11.42765625 -10.53078125 10.8553125 -10.2890625 10.265625 C-8.70593415 7.48315699 -6.8008475 5.82929786 -4.375 3.75 C-3.55773437 3.04359375 -2.74046875 2.3371875 -1.8984375 1.609375 C-1.27195312 1.07828125 -0.64546875 0.5471875 0 0 Z " fill="#E6415F" transform="translate(347,549)"/>
<path d="M0 0 C0.99 0.33 1.98 0.66 3 1 C2.4225 1.185625 1.845 1.37125 1.25 1.5625 C-2.81971241 4.16259404 -4.59303513 8.40605426 -5.75 12.9375 C-5.8325 13.618125 -5.915 14.29875 -6 15 C-6.33 15 -6.66 15 -7 15 C-6.96641027 6.35064568 -6.96641027 6.35064568 -4.703125 3.1875 C-3.125 1.8125 -3.125 1.8125 0 0 Z " fill="#EB4563" transform="translate(590,405)"/>
<path d="M0 0 C0 3 0 3 -2.1875 5.48046875 C-3.115625 6.37378906 -4.04375 7.26710938 -5 8.1875 C-5.928125 9.08855469 -6.85625 9.98960937 -7.8125 10.91796875 C-8.534375 11.60503906 -9.25625 12.29210937 -10 13 C-10.66 12.67 -11.32 12.34 -12 12 C-8.32167983 7.47384007 -4.58913637 3.60575001 0 0 Z " fill="#802431" transform="translate(351,543)"/>
<path d="M0 0 C2.7444306 4.99878431 2.53499146 9.521173 1 14.9375 C0.67 15.948125 0.34 16.95875 0 18 C-0.33 18 -0.66 18 -1 18 C-1.09706112 11.88514973 -0.77040851 6.06696699 0 0 Z " fill="#EB4562" transform="translate(710,509)"/>
<path d="M0 0 C2.2578125 1.01171875 2.2578125 1.01171875 4 2 C2.23086176 2.22226864 0.45955629 2.42733873 -1.3125 2.625 C-2.29863281 2.74101562 -3.28476562 2.85703125 -4.30078125 2.9765625 C-7 3 -7 3 -10 1 C-6.86358252 -0.56820874 -3.42820517 -0.38163039 0 0 Z " fill="#912939" transform="translate(382,388)"/>
<path d="M0 0 C0.33 0.66 0.66 1.32 1 2 C0.22265625 3.9453125 0.22265625 3.9453125 -0.9375 6.125 C-1.31777344 6.84945312 -1.69804687 7.57390625 -2.08984375 8.3203125 C-2.39019531 8.87460937 -2.69054687 9.42890625 -3 10 C-3.66 10 -4.32 10 -5 10 C-4.505 9.1028125 -4.505 9.1028125 -4 8.1875 C-2.79212012 5.94613529 -2.79212012 5.94613529 -3 3 C-3.66 2.34 -4.32 1.68 -5 1 C-3.35 0.67 -1.7 0.34 0 0 Z " fill="#9D2C3C" transform="translate(254,827)"/>
<path d="M0 0 C0 0.33 0 0.66 0 1 C-3.96 1 -7.92 1 -12 1 C-7.98716318 -3.01283682 -5.03280241 -1.94449184 0 0 Z " fill="#8F2A36" transform="translate(540,442)"/>
<path d="M0 0 C2.94721162 2.74395564 5.19168608 5.38337216 7 9 C6.67 9.66 6.34 10.32 6 11 C5.401875 10.05125 4.80375 9.1025 4.1875 8.125 C2.18437474 4.86035803 2.18437474 4.86035803 -1 3 C-0.67 2.01 -0.34 1.02 0 0 Z " fill="#852632" transform="translate(551,261)"/>
<path d="M0 0 C0.66 0.66 1.32 1.32 2 2 C2.66 1.67 3.32 1.34 4 1 C4 3.97 4 6.94 4 10 C3.34 8.68 2.68 7.36 2 6 C1.34 5.67 0.68 5.34 0 5 C0 3.35 0 1.7 0 0 Z " fill="#962B3B" transform="translate(728,425)"/>
<path d="M0 0 C1.1725131 0.95117134 2.33787015 1.91117009 3.5 2.875 C4.47453125 3.67550781 4.47453125 3.67550781 5.46875 4.4921875 C5.9740625 4.98976563 6.479375 5.48734375 7 6 C7 6.66 7 7.32 7 8 C3.64379729 6.61122646 1.92701272 5.08322035 0 2 C0 1.34 0 0.68 0 0 Z " fill="#681E27" transform="translate(615,848)"/>
<path d="M0 0 C2 1.375 2 1.375 4 3 C4 3.66 4 4.32 4 5 C4.99 5.33 5.98 5.66 7 6 C6.34 6.66 5.68 7.32 5 8 C0 2.25 0 2.25 0 0 Z " fill="#812631" transform="translate(201,832)"/>
<path d="M0 0 C0.33 0 0.66 0 1 0 C1 2.31 1 4.62 1 7 C0.67 7 0.34 7 0 7 C0 4.69 0 2.38 0 0 Z " fill="#D04A5B" transform="translate(347,180)"/>
<path d="M0 0 C0.33 0.66 0.66 1.32 1 2 C-0.32 1.67 -1.64 1.34 -3 1 C-2.01 0.67 -1.02 0.34 0 0 Z " fill="#DA475D" transform="translate(658,642)"/>
<path d="M0 0 C4 1 4 1 4 1 Z " fill="#DA455B" transform="translate(576,773)"/>
<path d="M0 0 C1 4 1 4 1 4 Z " fill="#DA455C" transform="translate(704,532)"/>
<path d="M0 0 C0.99 0.495 0.99 0.495 2 1 C1.67 1.66 1.34 2.32 1 3 C0.67 2.01 0.34 1.02 0 0 Z " fill="#D84B5F" transform="translate(549,449)"/>
<path d="M0 0 C0.99 0.495 0.99 0.495 2 1 C1.01 1.495 1.01 1.495 0 2 C0 1.34 0 0.68 0 0 Z " fill="#DE455D" transform="translate(249,832)"/>
<path d="M0 0 C3 1 3 1 3 1 Z " fill="#DD485E" transform="translate(240,829)"/>
<path d="" fill="#D4465B" transform="translate(0,0)"/>
<path d="M0 0 C0.33 0.66 0.66 1.32 1 2 C0.34 1.67 -0.32 1.34 -1 1 C-0.67 0.67 -0.34 0.34 0 0 Z " fill="#DA475B" transform="translate(820,788)"/>
<path d="M0 0 C3 1 3 1 3 1 Z " fill="#D34759" transform="translate(707,788)"/>
<path d="" fill="#D3475C" transform="translate(0,0)"/>
<path d="M0 0 C3 1 3 1 3 1 Z " fill="#DC495F" transform="translate(218,774)"/>
<path d="M0 0 C3 1 3 1 3 1 Z " fill="#D7495C" transform="translate(682,747)"/>
<path d="M0 0 C0.33 0.66 0.66 1.32 1 2 C0.34 1.67 -0.32 1.34 -1 1 C-0.67 0.67 -0.34 0.34 0 0 Z " fill="#C94758" transform="translate(339,744)"/>
<path d="" fill="#D9495F" transform="translate(0,0)"/>
<path d="" fill="#D64B5E" transform="translate(0,0)"/>
<path d="M0 0 C3 1 3 1 3 1 Z " fill="#DE485F" transform="translate(521,541)"/>
<path d="" fill="#DD4B61" transform="translate(0,0)"/>
<path d="" fill="#D7495D" transform="translate(0,0)"/>
<path d="M0 0 C0.33 0.66 0.66 1.32 1 2 C0.34 1.67 -0.32 1.34 -1 1 C-0.67 0.67 -0.34 0.34 0 0 Z " fill="#D94B5F" transform="translate(592,314)"/>
<path d="M0 0 C0.66 0.66 1.32 1.32 2 2 C1.34 2 0.68 2 0 2 C0 1.34 0 0.68 0 0 Z " fill="#D9475E" transform="translate(481,228)"/>
<path d="" fill="#D74D5F" transform="translate(0,0)"/>
<path d="M0 0 C2 1 2 1 2 1 Z " fill="#D0485A" transform="translate(202,869)"/>
<path d="M0 0 C2 1 2 1 2 1 Z " fill="#C84B5B" transform="translate(520,867)"/>
<path d="" fill="#D24859" transform="translate(0,0)"/>
<path d="" fill="#D14658" transform="translate(0,0)"/>
<path d="M0 0 C2 1 2 1 2 1 Z " fill="#D14557" transform="translate(249,830)"/>
<path d="" fill="#D4485C" transform="translate(0,0)"/>
<path d="" fill="#D44658" transform="translate(0,0)"/>
<path d="" fill="#DC4B60" transform="translate(0,0)"/>
<path d="" fill="#D4475A" transform="translate(0,0)"/>
<path d="" fill="#D0495C" transform="translate(0,0)"/>
<path d="M0 0 C2 1 2 1 2 1 Z " fill="#D9485B" transform="translate(700,790)"/>
<path d="" fill="#D2465B" transform="translate(0,0)"/>
<path d="M0 0 C2 1 2 1 2 1 Z " fill="#DE475D" transform="translate(816,789)"/>
<path d="M0 0 C2 1 2 1 2 1 Z " fill="#DC4B5F" transform="translate(778,789)"/>
<path d="M0 0 C2 1 2 1 2 1 Z " fill="#E04A60" transform="translate(771,789)"/>
<path d="" fill="#D6465A" transform="translate(0,0)"/>
<path d="M0 0 C2 1 2 1 2 1 Z " fill="#D8475B" transform="translate(683,788)"/>
<path d="" fill="#D44659" transform="translate(0,0)"/>
<path d="" fill="#D24959" transform="translate(0,0)"/>
<path d="" fill="#D6465B" transform="translate(0,0)"/>
<path d="" fill="#D2465A" transform="translate(0,0)"/>
<path d="M0 0 C2 1 2 1 2 1 Z " fill="#D7485C" transform="translate(657,774)"/>
<path d="M0 0 C2 1 2 1 2 1 Z " fill="#DD455D" transform="translate(568,773)"/>
<path d="M0 0 C2 1 2 1 2 1 Z " fill="#DE465D" transform="translate(512,773)"/>
<path d="" fill="#D54459" transform="translate(0,0)"/>
<path d="" fill="#DA475C" transform="translate(0,0)"/>
<path d="M0 0 C2 1 2 1 2 1 Z " fill="#CF495B" transform="translate(204,747)"/>
<path d="M0 0 C2 1 2 1 2 1 Z " fill="#D24559" transform="translate(578,745)"/>
<path d="M0 0 C2 1 2 1 2 1 Z " fill="#D7475A" transform="translate(653,744)"/>
<path d="M0 0 C2 1 2 1 2 1 Z " fill="#D3485C" transform="translate(233,744)"/>
<path d="M0 0 C2 1 2 1 2 1 Z " fill="#D8495E" transform="translate(611,718)"/>
<path d="M0 0 C2 1 2 1 2 1 Z " fill="#D8485E" transform="translate(602,717)"/>
<path d="" fill="#DB475B" transform="translate(0,0)"/>
<path d="M0 0 C2 1 2 1 2 1 Z " fill="#DE485E" transform="translate(643,669)"/>
<path d="M0 0 C2 1 2 1 2 1 Z " fill="#CF4A5C" transform="translate(268,596)"/>
<path d="M0 0 C2 1 2 1 2 1 Z " fill="#DA485F" transform="translate(578,581)"/>
<path d="M0 0 C2 1 2 1 2 1 Z " fill="#D8485E" transform="translate(525,542)"/>
<path d="" fill="#DA465C" transform="translate(0,0)"/>
<path d="" fill="#D84D60" transform="translate(0,0)"/>
<path d="" fill="#CE4B5A" transform="translate(0,0)"/>
<path d="" fill="#D4475B" transform="translate(0,0)"/>
<path d="" fill="#D84B5E" transform="translate(0,0)"/>
<path d="M0 0 C2 1 2 1 2 1 Z " fill="#DA4D61" transform="translate(460,460)"/>
<path d="" fill="#D54A5C" transform="translate(0,0)"/>
<path d="" fill="#CE4E5E" transform="translate(0,0)"/>
<path d="M0 0 C2 1 2 1 2 1 Z " fill="#E04B60" transform="translate(420,423)"/>
<path d="" fill="#D8495D" transform="translate(0,0)"/>
<path d="" fill="#D0505E" transform="translate(0,0)"/>
<path d="" fill="#D4495B" transform="translate(0,0)"/>
<path d="M0 0 C2 1 2 1 2 1 Z " fill="#D5465C" transform="translate(534,384)"/>
<path d="" fill="#E24A62" transform="translate(0,0)"/>
<path d="" fill="#DC4A61" transform="translate(0,0)"/>
<path d="" fill="#DF4960" transform="translate(0,0)"/>
<path d="M0 0 C2 1 2 1 2 1 Z " fill="#D6465D" transform="translate(507,350)"/>
<path d="M0 0 C2 1 2 1 2 1 Z " fill="#DB475E" transform="translate(474,341)"/>
<path d="M0 0 C2 1 2 1 2 1 Z " fill="#DA495E" transform="translate(612,340)"/>
<path d="M0 0 C2 1 2 1 2 1 Z " fill="#D94960" transform="translate(418,317)"/>
<path d="M0 0 C2 1 2 1 2 1 Z " fill="#CF475A" transform="translate(654,315)"/>
<path d="M0 0 C2 1 2 1 2 1 Z " fill="#DA4A5E" transform="translate(608,312)"/>
<path d="" fill="#DA4B5F" transform="translate(0,0)"/>
<path d="" fill="#DE495F" transform="translate(0,0)"/>
<path d="" fill="#D9495F" transform="translate(0,0)"/>
<path d="" fill="#DE475D" transform="translate(0,0)"/>
<path d="" fill="#D6475C" transform="translate(0,0)"/>
<path d="" fill="#DC4B5F" transform="translate(0,0)"/>
<path d="M0 0 C2 1 2 1 2 1 Z " fill="#DB455E" transform="translate(442,197)"/>
<path d="" fill="#D44A5D" transform="translate(0,0)"/>
<path d="M0 0 C2 1 2 1 2 1 Z " fill="#D3485B" transform="translate(413,112)"/>
<path d="" fill="#A35B56" transform="translate(0,0)"/>
<path d="" fill="#D4495A" transform="translate(0,0)"/>
<path d="" fill="#D44658" transform="translate(0,0)"/>
<path d="" fill="#CF485B" transform="translate(0,0)"/>
<path d="" fill="#CF485A" transform="translate(0,0)"/>
<path d="" fill="#CB4C5A" transform="translate(0,0)"/>
<path d="" fill="#C5495A" transform="translate(0,0)"/>
<path d="" fill="#CA4956" transform="translate(0,0)"/>
<path d="" fill="#C94D5A" transform="translate(0,0)"/>
<path d="" fill="#CE4B5D" transform="translate(0,0)"/>
<path d="" fill="#CA4A5A" transform="translate(0,0)"/>
<path d="" fill="#CD485A" transform="translate(0,0)"/>
<path d="" fill="#CB4D5B" transform="translate(0,0)"/>
<path d="" fill="#C9485A" transform="translate(0,0)"/>
<path d="" fill="#CD4A5A" transform="translate(0,0)"/>
<path d="" fill="#D64159" transform="translate(0,0)"/>
<path d="" fill="#CC495B" transform="translate(0,0)"/>
<path d="" fill="#CF4C5B" transform="translate(0,0)"/>
<path d="" fill="#CD4A5A" transform="translate(0,0)"/>
<path d="" fill="#CE485A" transform="translate(0,0)"/>
<path d="" fill="#D04A5B" transform="translate(0,0)"/>
<path d="" fill="#D3465A" transform="translate(0,0)"/>
<path d="" fill="#CC485B" transform="translate(0,0)"/>
<path d="" fill="#D0495C" transform="translate(0,0)"/>
<path d="" fill="#DC445C" transform="translate(0,0)"/>
<path d="" fill="#D0495A" transform="translate(0,0)"/>
<path d="" fill="#D1495B" transform="translate(0,0)"/>
<path d="" fill="#D8445A" transform="translate(0,0)"/>
<path d="" fill="#D6475D" transform="translate(0,0)"/>
<path d="" fill="#D74A5C" transform="translate(0,0)"/>
<path d="" fill="#CD4C5B" transform="translate(0,0)"/>
<path d="" fill="#DA4A5F" transform="translate(0,0)"/>
<path d="" fill="#D6485C" transform="translate(0,0)"/>
<path d="" fill="#CF4558" transform="translate(0,0)"/>
<path d="" fill="#DC465D" transform="translate(0,0)"/>
<path d="" fill="#D7475A" transform="translate(0,0)"/>
<path d="" fill="#DA475D" transform="translate(0,0)"/>
<path d="" fill="#CC4A5A" transform="translate(0,0)"/>
<path d="" fill="#D14A5C" transform="translate(0,0)"/>
<path d="" fill="#D34A5C" transform="translate(0,0)"/>
<path d="" fill="#D4475A" transform="translate(0,0)"/>
<path d="" fill="#D14A5D" transform="translate(0,0)"/>
<path d="" fill="#D14A5D" transform="translate(0,0)"/>
<path d="" fill="#D3495C" transform="translate(0,0)"/>
<path d="" fill="#D84359" transform="translate(0,0)"/>
<path d="" fill="#D6465C" transform="translate(0,0)"/>
<path d="" fill="#CF495C" transform="translate(0,0)"/>
<path d="" fill="#D9495D" transform="translate(0,0)"/>
<path d="" fill="#D2465D" transform="translate(0,0)"/>
<path d="" fill="#D3495C" transform="translate(0,0)"/>
<path d="" fill="#D24C5C" transform="translate(0,0)"/>
<path d="" fill="#D3485B" transform="translate(0,0)"/>
<path d="" fill="#D6465A" transform="translate(0,0)"/>
<path d="" fill="#D2465C" transform="translate(0,0)"/>
<path d="" fill="#D6475C" transform="translate(0,0)"/>
<path d="" fill="#D9485F" transform="translate(0,0)"/>
<path d="" fill="#D6485E" transform="translate(0,0)"/>
<path d="" fill="#D54B5D" transform="translate(0,0)"/>
<path d="" fill="#DC4860" transform="translate(0,0)"/>
<path d="" fill="#D5485E" transform="translate(0,0)"/>
<path d="" fill="#D2475C" transform="translate(0,0)"/>
<path d="" fill="#DD4962" transform="translate(0,0)"/>
<path d="" fill="#D5465A" transform="translate(0,0)"/>
<path d="" fill="#D14859" transform="translate(0,0)"/>
<path d="" fill="#D3485C" transform="translate(0,0)"/>
<path d="" fill="#D14A5A" transform="translate(0,0)"/>
<path d="" fill="#D54659" transform="translate(0,0)"/>
<path d="" fill="#D6475C" transform="translate(0,0)"/>
<path d="" fill="#D3455A" transform="translate(0,0)"/>
<path d="" fill="#D9495E" transform="translate(0,0)"/>
<path d="" fill="#D7475D" transform="translate(0,0)"/>
<path d="" fill="#DE495E" transform="translate(0,0)"/>
<path d="" fill="#D5455A" transform="translate(0,0)"/>
<path d="" fill="#DE4D60" transform="translate(0,0)"/>
<path d="" fill="#D94B60" transform="translate(0,0)"/>
<path d="" fill="#DC4B5E" transform="translate(0,0)"/>
<path d="" fill="#DE4B63" transform="translate(0,0)"/>
<path d="" fill="#D6465B" transform="translate(0,0)"/>
<path d="" fill="#D4485D" transform="translate(0,0)"/>
<path d="" fill="#D04858" transform="translate(0,0)"/>
<path d="" fill="#D5485A" transform="translate(0,0)"/>
<path d="" fill="#D7495C" transform="translate(0,0)"/>
<path d="" fill="#E54A65" transform="translate(0,0)"/>
<path d="" fill="#D8425A" transform="translate(0,0)"/>
<path d="" fill="#D5455C" transform="translate(0,0)"/>
<path d="" fill="#D6435B" transform="translate(0,0)"/>
<path d="" fill="#D2485C" transform="translate(0,0)"/>
<path d="" fill="#D44458" transform="translate(0,0)"/>
<path d="" fill="#D2475A" transform="translate(0,0)"/>
<path d="" fill="#D94A5D" transform="translate(0,0)"/>
<path d="" fill="#D6495D" transform="translate(0,0)"/>
<path d="" fill="#D7495D" transform="translate(0,0)"/>
<path d="" fill="#D44659" transform="translate(0,0)"/>
<path d="" fill="#D84A60" transform="translate(0,0)"/>
<path d="" fill="#D7465B" transform="translate(0,0)"/>
<path d="" fill="#D9455C" transform="translate(0,0)"/>
<path d="" fill="#E24C60" transform="translate(0,0)"/>
<path d="" fill="#D1485B" transform="translate(0,0)"/>
<path d="" fill="#D5495A" transform="translate(0,0)"/>
<path d="" fill="#D4465A" transform="translate(0,0)"/>
<path d="" fill="#D54A5D" transform="translate(0,0)"/>
<path d="" fill="#D9455C" transform="translate(0,0)"/>
<path d="" fill="#E0465E" transform="translate(0,0)"/>
<path d="" fill="#DD465C" transform="translate(0,0)"/>
<path d="" fill="#DE465D" transform="translate(0,0)"/>
<path d="" fill="#E2455E" transform="translate(0,0)"/>
<path d="" fill="#DF475D" transform="translate(0,0)"/>
<path d="" fill="#DB465E" transform="translate(0,0)"/>
<path d="" fill="#D2495A" transform="translate(0,0)"/>
<path d="" fill="#D2485B" transform="translate(0,0)"/>
<path d="" fill="#CF3F55" transform="translate(0,0)"/>
<path d="" fill="#D3485C" transform="translate(0,0)"/>
<path d="" fill="#D54A5E" transform="translate(0,0)"/>
<path d="" fill="#D7475D" transform="translate(0,0)"/>
<path d="" fill="#D2495C" transform="translate(0,0)"/>
<path d="" fill="#D2455A" transform="translate(0,0)"/>
<path d="" fill="#D1465C" transform="translate(0,0)"/>
<path d="" fill="#D24A5C" transform="translate(0,0)"/>
<path d="" fill="#D24A5A" transform="translate(0,0)"/>
<path d="" fill="#D34B5D" transform="translate(0,0)"/>
<path d="" fill="#D6495D" transform="translate(0,0)"/>
<path d="" fill="#D24558" transform="translate(0,0)"/>
<path d="" fill="#D0495B" transform="translate(0,0)"/>
<path d="" fill="#CF475C" transform="translate(0,0)"/>
<path d="" fill="#D14A5E" transform="translate(0,0)"/>
<path d="" fill="#E0485E" transform="translate(0,0)"/>
<path d="" fill="#D44A5E" transform="translate(0,0)"/>
<path d="" fill="#CD4C5D" transform="translate(0,0)"/>
<path d="" fill="#D14457" transform="translate(0,0)"/>
<path d="" fill="#CD4B5C" transform="translate(0,0)"/>
<path d="" fill="#CF4E5D" transform="translate(0,0)"/>
<path d="" fill="#CB4B5C" transform="translate(0,0)"/>
<path d="" fill="#CB4A58" transform="translate(0,0)"/>
<path d="" fill="#CB4B5C" transform="translate(0,0)"/>
<path d="" fill="#D74859" transform="translate(0,0)"/>
<path d="" fill="#DF4B5F" transform="translate(0,0)"/>
<path d="" fill="#D84A5D" transform="translate(0,0)"/>
<path d="" fill="#D4495D" transform="translate(0,0)"/>
<path d="" fill="#D0485B" transform="translate(0,0)"/>
<path d="" fill="#CB4C5B" transform="translate(0,0)"/>
<path d="" fill="#D0495D" transform="translate(0,0)"/>
<path d="" fill="#D1495C" transform="translate(0,0)"/>
<path d="" fill="#D2475A" transform="translate(0,0)"/>
<path d="" fill="#CB4B5C" transform="translate(0,0)"/>
<path d="" fill="#D04A5A" transform="translate(0,0)"/>
<path d="" fill="#DA495F" transform="translate(0,0)"/>
<path d="" fill="#CF485A" transform="translate(0,0)"/>
<path d="" fill="#D7495E" transform="translate(0,0)"/>
<path d="" fill="#DB4861" transform="translate(0,0)"/>
<path d="" fill="#D8495D" transform="translate(0,0)"/>
<path d="" fill="#DF4A61" transform="translate(0,0)"/>
<path d="" fill="#DA455C" transform="translate(0,0)"/>
<path d="" fill="#DF465B" transform="translate(0,0)"/>
<path d="" fill="#D8485D" transform="translate(0,0)"/>
<path d="" fill="#DB4A5D" transform="translate(0,0)"/>
<path d="" fill="#D7485D" transform="translate(0,0)"/>
<path d="" fill="#DD445B" transform="translate(0,0)"/>
<path d="" fill="#D5495C" transform="translate(0,0)"/>
<path d="" fill="#D44D5D" transform="translate(0,0)"/>
<path d="" fill="#D64A58" transform="translate(0,0)"/>
<path d="" fill="#D6495C" transform="translate(0,0)"/>
<path d="" fill="#D9485B" transform="translate(0,0)"/>
<path d="" fill="#DC4C5F" transform="translate(0,0)"/>
<path d="" fill="#D9495F" transform="translate(0,0)"/>
<path d="" fill="#DE445A" transform="translate(0,0)"/>
<path d="" fill="#DB475D" transform="translate(0,0)"/>
<path d="" fill="#DA4A60" transform="translate(0,0)"/>
<path d="" fill="#D84A60" transform="translate(0,0)"/>
<path d="" fill="#D74B5E" transform="translate(0,0)"/>
<path d="" fill="#DB485E" transform="translate(0,0)"/>
<path d="" fill="#D8455B" transform="translate(0,0)"/>
<path d="" fill="#D7415A" transform="translate(0,0)"/>
<path d="" fill="#D9495C" transform="translate(0,0)"/>
<path d="" fill="#D8485D" transform="translate(0,0)"/>
<path d="" fill="#D7475B" transform="translate(0,0)"/>
<path d="" fill="#DE475E" transform="translate(0,0)"/>
<path d="" fill="#E4455E" transform="translate(0,0)"/>
<path d="" fill="#D8485B" transform="translate(0,0)"/>
<path d="" fill="#DB4A5E" transform="translate(0,0)"/>
<path d="" fill="#D5455C" transform="translate(0,0)"/>
<path d="" fill="#D8475A" transform="translate(0,0)"/>
<path d="" fill="#DC485E" transform="translate(0,0)"/>
<path d="" fill="#DC475E" transform="translate(0,0)"/>
<path d="" fill="#DB475D" transform="translate(0,0)"/>
<path d="" fill="#D64F60" transform="translate(0,0)"/>
<path d="" fill="#D94D5F" transform="translate(0,0)"/>
<path d="" fill="#E34D61" transform="translate(0,0)"/>
<path d="" fill="#DA465D" transform="translate(0,0)"/>
<path d="" fill="#D94A5E" transform="translate(0,0)"/>
<path d="" fill="#E04860" transform="translate(0,0)"/>
<path d="" fill="#D9485B" transform="translate(0,0)"/>
<path d="" fill="#DB4C5F" transform="translate(0,0)"/>
<path d="" fill="#DF4A60" transform="translate(0,0)"/>
<path d="" fill="#D8465B" transform="translate(0,0)"/>
<path d="" fill="#DA475C" transform="translate(0,0)"/>
<path d="" fill="#8B7D5D" transform="translate(0,0)"/>
<path d="" fill="#D44E5F" transform="translate(0,0)"/>
<path d="" fill="#D84659" transform="translate(0,0)"/>
<path d="" fill="#E44C63" transform="translate(0,0)"/>
<path d="" fill="#D94A60" transform="translate(0,0)"/>
<path d="" fill="#D64257" transform="translate(0,0)"/>
<path d="" fill="#D7465C" transform="translate(0,0)"/>
<path d="" fill="#DF485E" transform="translate(0,0)"/>
<path d="" fill="#DC495F" transform="translate(0,0)"/>
<path d="" fill="#D5485C" transform="translate(0,0)"/>
<path d="" fill="#DC445C" transform="translate(0,0)"/>
<path d="" fill="#D24F5F" transform="translate(0,0)"/>
<path d="" fill="#D5475B" transform="translate(0,0)"/>
<path d="" fill="#D94A5F" transform="translate(0,0)"/>
<path d="" fill="#D7455A" transform="translate(0,0)"/>
<path d="" fill="#CF4D5C" transform="translate(0,0)"/>
<path d="" fill="#DA4961" transform="translate(0,0)"/>
<path d="" fill="#D04B5C" transform="translate(0,0)"/>
<path d="" fill="#D04959" transform="translate(0,0)"/>
<path d="" fill="#D0475B" transform="translate(0,0)"/>
<path d="" fill="#CE4858" transform="translate(0,0)"/>
<path d="" fill="#D7455E" transform="translate(0,0)"/>
<path d="" fill="#D24C5C" transform="translate(0,0)"/>
<path d="" fill="#CF4A5D" transform="translate(0,0)"/>
<path d="" fill="#DA495E" transform="translate(0,0)"/>
<path d="" fill="#D0495B" transform="translate(0,0)"/>
<path d="" fill="#DA465E" transform="translate(0,0)"/>
<path d="" fill="#DA465C" transform="translate(0,0)"/>
<path d="" fill="#D4495C" transform="translate(0,0)"/>
<path d="" fill="#DF4960" transform="translate(0,0)"/>
<path d="" fill="#D64B5F" transform="translate(0,0)"/>
<path d="" fill="#CE4A5C" transform="translate(0,0)"/>
<path d="" fill="#D9495C" transform="translate(0,0)"/>
<path d="" fill="#CB4A5A" transform="translate(0,0)"/>
<path d="" fill="#CA495B" transform="translate(0,0)"/>
<path d="" fill="#D7495D" transform="translate(0,0)"/>
<path d="" fill="#D74A5C" transform="translate(0,0)"/>
<path d="" fill="#DC445E" transform="translate(0,0)"/>
<path d="" fill="#DA465D" transform="translate(0,0)"/>
<path d="" fill="#D7495E" transform="translate(0,0)"/>
<path d="" fill="#D34A5B" transform="translate(0,0)"/>
<path d="" fill="#D34C5D" transform="translate(0,0)"/>
<path d="" fill="#D5485E" transform="translate(0,0)"/>
<path d="" fill="#D94B5F" transform="translate(0,0)"/>
<path d="" fill="#E1475F" transform="translate(0,0)"/>
<path d="" fill="#DA485E" transform="translate(0,0)"/>
<path d="" fill="#D64B5E" transform="translate(0,0)"/>
<path d="" fill="#D44D5C" transform="translate(0,0)"/>
<path d="" fill="#DB4B60" transform="translate(0,0)"/>
<path d="" fill="#DC4C5F" transform="translate(0,0)"/>
<path d="" fill="#E75165" transform="translate(0,0)"/>
<path d="" fill="#D9475C" transform="translate(0,0)"/>
<path d="" fill="#D6475F" transform="translate(0,0)"/>
<path d="" fill="#CF4F5D" transform="translate(0,0)"/>
<path d="" fill="#D84D5E" transform="translate(0,0)"/>
<path d="" fill="#E14C5F" transform="translate(0,0)"/>
<path d="" fill="#D45061" transform="translate(0,0)"/>
<path d="" fill="#DF495F" transform="translate(0,0)"/>
<path d="" fill="#D7445B" transform="translate(0,0)"/>
<path d="" fill="#D8485F" transform="translate(0,0)"/>
<path d="" fill="#DC4D61" transform="translate(0,0)"/>
<path d="" fill="#DA4A5F" transform="translate(0,0)"/>
<path d="" fill="#DA455E" transform="translate(0,0)"/>
<path d="" fill="#DC475E" transform="translate(0,0)"/>
<path d="" fill="#D5485E" transform="translate(0,0)"/>
<path d="" fill="#D44A5E" transform="translate(0,0)"/>
<path d="" fill="#D5465C" transform="translate(0,0)"/>
<path d="" fill="#DF4B61" transform="translate(0,0)"/>
<path d="" fill="#D84A5C" transform="translate(0,0)"/>
<path d="" fill="#DA4D61" transform="translate(0,0)"/>
<path d="" fill="#D74A5D" transform="translate(0,0)"/>
<path d="" fill="#D2475A" transform="translate(0,0)"/>
<path d="" fill="#DB4A60" transform="translate(0,0)"/>
<path d="" fill="#CD4658" transform="translate(0,0)"/>
<path d="" fill="#DB4C60" transform="translate(0,0)"/>
<path d="" fill="#DB4B60" transform="translate(0,0)"/>
<path d="" fill="#D2495B" transform="translate(0,0)"/>
<path d="" fill="#D74C5F" transform="translate(0,0)"/>
<path d="" fill="#D44A5E" transform="translate(0,0)"/>
<path d="" fill="#D84C5E" transform="translate(0,0)"/>
<path d="" fill="#D84B5F" transform="translate(0,0)"/>
<path d="" fill="#D3495A" transform="translate(0,0)"/>
<path d="" fill="#D74A5E" transform="translate(0,0)"/>
<path d="" fill="#E14B5F" transform="translate(0,0)"/>
<path d="" fill="#D74A5D" transform="translate(0,0)"/>
<path d="" fill="#D94C5D" transform="translate(0,0)"/>
<path d="" fill="#DA475E" transform="translate(0,0)"/>
<path d="" fill="#DA4D61" transform="translate(0,0)"/>
<path d="" fill="#D44C5D" transform="translate(0,0)"/>
<path d="" fill="#DB4C63" transform="translate(0,0)"/>
<path d="" fill="#D84D5F" transform="translate(0,0)"/>
<path d="" fill="#D44D5E" transform="translate(0,0)"/>
<path d="" fill="#DA4C61" transform="translate(0,0)"/>
<path d="" fill="#D64B5E" transform="translate(0,0)"/>
<path d="" fill="#D84B5F" transform="translate(0,0)"/>
<path d="" fill="#D74F61" transform="translate(0,0)"/>
<path d="" fill="#D9495F" transform="translate(0,0)"/>
<path d="" fill="#D1495E" transform="translate(0,0)"/>
<path d="" fill="#D3445B" transform="translate(0,0)"/>
<path d="" fill="#DB4A5D" transform="translate(0,0)"/>
<path d="" fill="#D3495D" transform="translate(0,0)"/>
<path d="" fill="#DA485F" transform="translate(0,0)"/>
<path d="" fill="#D24C5E" transform="translate(0,0)"/>
<path d="" fill="#D44D60" transform="translate(0,0)"/>
<path d="" fill="#D4485F" transform="translate(0,0)"/>
<path d="" fill="#D3475A" transform="translate(0,0)"/>
<path d="" fill="#D14A5D" transform="translate(0,0)"/>
<path d="" fill="#D94A60" transform="translate(0,0)"/>
<path d="" fill="#CC515D" transform="translate(0,0)"/>
<path d="" fill="#DC465E" transform="translate(0,0)"/>
<path d="" fill="#DA4E60" transform="translate(0,0)"/>
<path d="" fill="#D84C5E" transform="translate(0,0)"/>
<path d="" fill="#E04861" transform="translate(0,0)"/>
<path d="" fill="#D8495D" transform="translate(0,0)"/>
<path d="" fill="#D34E5D" transform="translate(0,0)"/>
<path d="" fill="#DC4C60" transform="translate(0,0)"/>
<path d="" fill="#D24D5E" transform="translate(0,0)"/>
<path d="" fill="#E04D64" transform="translate(0,0)"/>
<path d="" fill="#D94A5E" transform="translate(0,0)"/>
<path d="" fill="#DB465E" transform="translate(0,0)"/>
<path d="" fill="#CE4E5C" transform="translate(0,0)"/>
<path d="" fill="#D6485C" transform="translate(0,0)"/>
<path d="" fill="#DA495F" transform="translate(0,0)"/>
<path d="" fill="#DC4C62" transform="translate(0,0)"/>
<path d="" fill="#E04B63" transform="translate(0,0)"/>
<path d="" fill="#CD4D5D" transform="translate(0,0)"/>
<path d="" fill="#D54B5F" transform="translate(0,0)"/>
<path d="" fill="#DA485C" transform="translate(0,0)"/>
<path d="" fill="#D8495B" transform="translate(0,0)"/>
<path d="" fill="#DC4A60" transform="translate(0,0)"/>
<path d="" fill="#E44760" transform="translate(0,0)"/>
<path d="" fill="#D34A5C" transform="translate(0,0)"/>
<path d="" fill="#D2485D" transform="translate(0,0)"/>
<path d="" fill="#D74A60" transform="translate(0,0)"/>
<path d="" fill="#CF495B" transform="translate(0,0)"/>
<path d="" fill="#D6485E" transform="translate(0,0)"/>
<path d="" fill="#D7495B" transform="translate(0,0)"/>
<path d="" fill="#D5495C" transform="translate(0,0)"/>
<path d="" fill="#D5495D" transform="translate(0,0)"/>
<path d="" fill="#D64A5E" transform="translate(0,0)"/>
<path d="" fill="#DB4761" transform="translate(0,0)"/>
<path d="" fill="#D5485D" transform="translate(0,0)"/>
<path d="" fill="#D84A5E" transform="translate(0,0)"/>
<path d="" fill="#DA4C60" transform="translate(0,0)"/>
<path d="" fill="#D84A5D" transform="translate(0,0)"/>
<path d="" fill="#D5495F" transform="translate(0,0)"/>
<path d="" fill="#D9485E" transform="translate(0,0)"/>
<path d="" fill="#D6495E" transform="translate(0,0)"/>
<path d="" fill="#D94A5D" transform="translate(0,0)"/>
<path d="" fill="#DD4B5E" transform="translate(0,0)"/>
<path d="" fill="#D34A5D" transform="translate(0,0)"/>
<path d="" fill="#DA455B" transform="translate(0,0)"/>
<path d="" fill="#DC4B5E" transform="translate(0,0)"/>
<path d="" fill="#D5495C" transform="translate(0,0)"/>
<path d="" fill="#D74B5F" transform="translate(0,0)"/>
<path d="" fill="#DE4A60" transform="translate(0,0)"/>
<path d="" fill="#DA495E" transform="translate(0,0)"/>
<path d="" fill="#D8485E" transform="translate(0,0)"/>
<path d="" fill="#DB4A5F" transform="translate(0,0)"/>
<path d="" fill="#D5495C" transform="translate(0,0)"/>
<path d="" fill="#D64A5E" transform="translate(0,0)"/>
<path d="" fill="#D74A5E" transform="translate(0,0)"/>
<path d="" fill="#D24A5D" transform="translate(0,0)"/>
<path d="" fill="#DA475F" transform="translate(0,0)"/>
<path d="" fill="#D04F5E" transform="translate(0,0)"/>
<path d="" fill="#D5465E" transform="translate(0,0)"/>
<path d="" fill="#E24760" transform="translate(0,0)"/>
<path d="" fill="#E04860" transform="translate(0,0)"/>
<path d="" fill="#D94C5F" transform="translate(0,0)"/>
<path d="" fill="#D64A5F" transform="translate(0,0)"/>
<path d="" fill="#D84759" transform="translate(0,0)"/>
<path d="" fill="#D8495D" transform="translate(0,0)"/>
<path d="" fill="#DC475F" transform="translate(0,0)"/>
<path d="" fill="#D7495E" transform="translate(0,0)"/>
<path d="" fill="#D74A5E" transform="translate(0,0)"/>
<path d="" fill="#D6485E" transform="translate(0,0)"/>
<path d="" fill="#D4485F" transform="translate(0,0)"/>
<path d="" fill="#D74B5D" transform="translate(0,0)"/>
<path d="" fill="#D4495C" transform="translate(0,0)"/>
<path d="" fill="#887C5B" transform="translate(0,0)"/>
<path d="" fill="#8F795D" transform="translate(0,0)"/>
<path d="" fill="#DC465C" transform="translate(0,0)"/>
<path d="" fill="#DC495E" transform="translate(0,0)"/>
<path d="" fill="#D9485B" transform="translate(0,0)"/>
<path d="" fill="#E14B61" transform="translate(0,0)"/>
<path d="" fill="#D9495C" transform="translate(0,0)"/>
<path d="" fill="#D5485C" transform="translate(0,0)"/>
<path d="" fill="#D2455A" transform="translate(0,0)"/>
<path d="" fill="#D34B5C" transform="translate(0,0)"/>
<path d="" fill="#DD475D" transform="translate(0,0)"/>
<path d="" fill="#D7485E" transform="translate(0,0)"/>
<path d="" fill="#D9465E" transform="translate(0,0)"/>
<path d="" fill="#D9495D" transform="translate(0,0)"/>
<path d="" fill="#D74A5F" transform="translate(0,0)"/>
<path d="" fill="#D84A5C" transform="translate(0,0)"/>
<path d="" fill="#D8495C" transform="translate(0,0)"/>
<path d="" fill="#D44659" transform="translate(0,0)"/>
<path d="" fill="#DA485F" transform="translate(0,0)"/>
<path d="" fill="#D9455C" transform="translate(0,0)"/>
<path d="" fill="#D64B5E" transform="translate(0,0)"/>
<path d="" fill="#D5445A" transform="translate(0,0)"/>
<path d="" fill="#D64B5E" transform="translate(0,0)"/>
<path d="" fill="#D44B5E" transform="translate(0,0)"/>
<path d="" fill="#D44C5B" transform="translate(0,0)"/>
<path d="" fill="#D34859" transform="translate(0,0)"/>
<path d="" fill="#D34C5C" transform="translate(0,0)"/>
<path d="" fill="#D94A5D" transform="translate(0,0)"/>
<path d="" fill="#DA495D" transform="translate(0,0)"/>
<path d="" fill="#D9495B" transform="translate(0,0)"/>
<path d="" fill="#DA4C5F" transform="translate(0,0)"/>
<path d="" fill="#DB495F" transform="translate(0,0)"/>
<path d="" fill="#D6435C" transform="translate(0,0)"/>
<path d="" fill="#D7475B" transform="translate(0,0)"/>
<path d="" fill="#D74A5E" transform="translate(0,0)"/>
<path d="" fill="#D24759" transform="translate(0,0)"/>
<path d="" fill="#DC465B" transform="translate(0,0)"/>
<path d="" fill="#DA495E" transform="translate(0,0)"/>
<path d="" fill="#DC485F" transform="translate(0,0)"/>
<path d="" fill="#D9495C" transform="translate(0,0)"/>
<path d="" fill="#D9485E" transform="translate(0,0)"/>
<path d="" fill="#DE465D" transform="translate(0,0)"/>
<path d="" fill="#E44860" transform="translate(0,0)"/>
<path d="" fill="#E1465F" transform="translate(0,0)"/>
<path d="" fill="#DD4961" transform="translate(0,0)"/>
<path d="" fill="#D8475B" transform="translate(0,0)"/>
<path d="" fill="#DC475C" transform="translate(0,0)"/>
<path d="" fill="#D8435A" transform="translate(0,0)"/>
<path d="" fill="#D3485C" transform="translate(0,0)"/>
<path d="" fill="#D3495A" transform="translate(0,0)"/>
<path d="" fill="#8D7C5D" transform="translate(0,0)"/>
<path d="" fill="#DE455B" transform="translate(0,0)"/>
<path d="" fill="#D8455B" transform="translate(0,0)"/>
<path d="" fill="#DF425D" transform="translate(0,0)"/>
<path d="" fill="#D7495E" transform="translate(0,0)"/>
<path d="" fill="#D6495C" transform="translate(0,0)"/>
<path d="" fill="#D24859" transform="translate(0,0)"/>
<path d="" fill="#D64B5D" transform="translate(0,0)"/>
<path d="" fill="#D8455C" transform="translate(0,0)"/>
<path d="" fill="#D4495D" transform="translate(0,0)"/>
<path d="" fill="#D14A5B" transform="translate(0,0)"/>
<path d="" fill="#D54A5D" transform="translate(0,0)"/>
<path d="" fill="#E14960" transform="translate(0,0)"/>
<path d="" fill="#D84F60" transform="translate(0,0)"/>
<path d="" fill="#DA4E5F" transform="translate(0,0)"/>
<path d="" fill="#CF4357" transform="translate(0,0)"/>
<path d="" fill="#D6455B" transform="translate(0,0)"/>
<path d="" fill="#D8465D" transform="translate(0,0)"/>
<path d="" fill="#D9455F" transform="translate(0,0)"/>
<path d="" fill="#D4495E" transform="translate(0,0)"/>
<path d="" fill="#D73C57" transform="translate(0,0)"/>
<path d="" fill="#DB465B" transform="translate(0,0)"/>
<path d="" fill="#DA495D" transform="translate(0,0)"/>
<path d="" fill="#D24D5C" transform="translate(0,0)"/>
<path d="" fill="#D74157" transform="translate(0,0)"/>
<path d="" fill="#D7435C" transform="translate(0,0)"/>
<path d="" fill="#D54E5E" transform="translate(0,0)"/>
<path d="" fill="#D54B5B" transform="translate(0,0)"/>
<path d="" fill="#DB4C60" transform="translate(0,0)"/>
<path d="" fill="#CF4C5C" transform="translate(0,0)"/>
<path d="" fill="#CF4D5D" transform="translate(0,0)"/>
<path d="" fill="#CE485B" transform="translate(0,0)"/>
<path d="" fill="#D04A5A" transform="translate(0,0)"/>
<path d="" fill="#CD4758" transform="translate(0,0)"/>
<path d="" fill="#D8465B" transform="translate(0,0)"/>
<path d="" fill="#C8505D" transform="translate(0,0)"/>
<path d="" fill="#CB4C5B" transform="translate(0,0)"/>
<path d="" fill="#CC505D" transform="translate(0,0)"/>
<path d="" fill="#897C5B" transform="translate(0,0)"/>
</svg>
